STARTFONT 2.1
FONT "open_iconic_all_6x"
SIZE 16 75 75
FONTBOUNDINGBOX 16 16 0 0
STARTPROPERTIES 3
COPYRIGHT "https://github.com/iconic/open-iconic, SIL OPEN FONT LICENSE"
FONT_ASCENT 0
FONT_DESCENT 0
ENDPROPERTIES
STARTCHAR /home/kraus/git/open-iconic/png/account-login-6x.png
ENCODING 64
DWIDTH 48 0
BBX 48 48 0 0
BITMAP
00003fffffff
00003fffffff
00003fffffff
00003fffffff
00003fffffff
00003fffffff
00000000003f
00000000003f
00000000003f
00000000003f
00000000003f
00000000003f
00000080003f
000000c0003f
000000e0003f
000000f8003f
000000fc003f
000000fe003f
ffffffff803f
ffffffffc03f
ffffffffe03f
ffffffffe03f
ffffffffc03f
ffffffff803f
000000fe003f
000000fc003f
000000f8003f
000000e0003f
000000c0003f
00000080003f
00000000003f
00000000003f
00000000003f
00000000003f
00000000003f
00000000003f
00003fffffff
00003fffffff
00003fffffff
00003fffffff
00003fffffff
00003fffffff
000000000000
000000000000
000000000000
000000000000
000000000000
000000000000
ENDCHAR
STARTCHAR /home/kraus/git/open-iconic/png/account-logout-6x.png
ENCODING 65
DWIDTH 48 0
BBX 48 48 0 0
BITMAP
00003fffffff
00003fffffff
00003fffffff
00003fffffff
00003fffffff
00003fffffff
00000000003f
00000000003f
00000000003f
00000000003f
00000000003f
00000000003f
00100000003f
00300000003f
00700000003f
01f00000003f
03f00000003f
07f00000003f
1ffffffff03f
3ffffffff03f
7ffffffff03f
7ffffffff03f
3ffffffff03f
1ffffffff03f
07f00000003f
03f00000003f
01f00000003f
00700000003f
00300000003f
00100000003f
00000000003f
00000000003f
00000000003f
00000000003f
00000000003f
00000000003f
00003fffffff
00003fffffff
00003fffffff
00003fffffff
00003fffffff
00003fffffff
000000000000
000000000000
000000000000
000000000000
000000000000
000000000000
ENDCHAR
STARTCHAR /home/kraus/git/open-iconic/png/action-redo-6x.png
ENCODING 66
DWIDTH 48 0
BBX 48 48 0 0
BITMAP
000000000000
000000000000
000000000000
000000000000
000000000000
000000000000
0000ff800000
0007fff80000
001ffffe0000
007fffff8000
00ffffffc000
01ffffffe000
03e01ffff000
070003fff800
0e0001fffc00
1800007ffe00
1000003ffe00
2000001fff00
2000001fff00
4000000fff80
00000007ff80
00000007ff80
00000007ff80
00000003ffc0
00000003ffc0
00000003ffc0
00000003ffc0
00000003ffc0
00000003ffc0
00000003ffc0
0000007ffffe
0000003ffffc
0000001ffff8
0000000ffff0
00000007ffe0
00000003ffc0
00000001ff80
00000000ff00
000000007e00
000000003c00
000000001800
000000000000
000000000000
000000000000
000000000000
000000000000
000000000000
000000000000
ENDCHAR
STARTCHAR /home/kraus/git/open-iconic/png/action-undo-6x.png
ENCODING 67
DWIDTH 48 0
BBX 48 48 0 0
BITMAP
000000000000
000000000000
000000000000
000000000000
000000000000
000000000000
000003fe0000
00001fffe000
00007ffff800
0001fffffe00
0003ffffff00
0007ffffff80
000ffff807c0
001fffc000e0
003fff800070
007ffe000018
007ffc000008
00fff8000004
00fff8000004
01fff0000002
01ffe0000000
01ffe0000000
03ffe0000000
03ffc0000000
03ffc0000000
03ffc0000000
03ffc0000000
03ffc0000000
03ffc0000000
03ffc0000000
7ffffe000000
3ffffc000000
1ffff8000000
0ffff0000000
07ffe0000000
03ffc0000000
01ff80000000
00ff00000000
007e00000000
003c00000000
001800000000
000000000000
000000000000
000000000000
000000000000
000000000000
000000000000
000000000000
ENDCHAR
STARTCHAR /home/kraus/git/open-iconic/png/align-center-6x.png
ENCODING 68
DWIDTH 48 0
BBX 48 48 0 0
BITMAP
ffffffffffff
ffffffffffff
ffffffffffff
ffffffffffff
ffffffffffff
ffffffffffff
000000000000
000000000000
000000000000
000000000000
000000000000
000000000000
03ffffffffc0
03ffffffffc0
03ffffffffc0
03ffffffffc0
03ffffffffc0
03ffffffffc0
000000000000
000000000000
000000000000
000000000000
000000000000
000000000000
ffffffffffff
ffffffffffff
ffffffffffff
ffffffffffff
ffffffffffff
ffffffffffff
000000000000
000000000000
000000000000
000000000000
000000000000
000000000000
03ffffffffc0
03ffffffffc0
03ffffffffc0
03ffffffffc0
03ffffffffc0
03ffffffffc0
000000000000
000000000000
000000000000
000000000000
000000000000
000000000000
ENDCHAR
STARTCHAR /home/kraus/git/open-iconic/png/align-left-6x.png
ENCODING 69
DWIDTH 48 0
BBX 48 48 0 0
BITMAP
ffffffffffff
ffffffffffff
ffffffffffff
ffffffffffff
ffffffffffff
ffffffffffff
000000000000
000000000000
000000000000
000000000000
000000000000
000000000000
fffffffff000
fffffffff000
fffffffff000
fffffffff000
fffffffff000
fffffffff000
000000000000
000000000000
000000000000
000000000000
000000000000
000000000000
ffffffffffff
ffffffffffff
ffffffffffff
ffffffffffff
ffffffffffff
ffffffffffff
000000000000
000000000000
000000000000
000000000000
000000000000
000000000000
fffffffff000
fffffffff000
fffffffff000
fffffffff000
fffffffff000
fffffffff000
000000000000
000000000000
000000000000
000000000000
000000000000
000000000000
ENDCHAR
STARTCHAR /home/kraus/git/open-iconic/png/align-right-6x.png
ENCODING 70
DWIDTH 48 0
BBX 48 48 0 0
BITMAP
ffffffffffff
ffffffffffff
ffffffffffff
ffffffffffff
ffffffffffff
ffffffffffff
000000000000
000000000000
000000000000
000000000000
000000000000
000000000000
000fffffffff
000fffffffff
000fffffffff
000fffffffff
000fffffffff
000fffffffff
000000000000
000000000000
000000000000
000000000000
000000000000
000000000000
ffffffffffff
ffffffffffff
ffffffffffff
ffffffffffff
ffffffffffff
ffffffffffff
000000000000
000000000000
000000000000
000000000000
000000000000
000000000000
000fffffffff
000fffffffff
000fffffffff
000fffffffff
000fffffffff
000fffffffff
000000000000
000000000000
000000000000
000000000000
000000000000
000000000000
ENDCHAR
STARTCHAR /home/kraus/git/open-iconic/png/aperture-6x.png
ENCODING 71
DWIDTH 48 0
BBX 48 48 0 0
BITMAP
00001ff80000
0000ffff0000
0003ffffc000
0007fffff000
0001fffff000
0000fffff000
00007fffe000
01001fffe000
03c00fffe040
07e007ffc060
0ff801ffc0f0
0ffc00ffc0f0
1ffe003f80f8
1fff801f81f8
3fffc00f81fc
3fffc00301fc
7fff800103fe
7ffe000003fe
7ffc000003fe
fff8000007ff
ffe0000007ff
ffc0000007ff
ff8000000fff
fe0000000fff
fc0000000fff
f00000001fff
e00000001fff
c00800001fff
001800003ffe
007c00003ffe
00fc00000000
03fc00000000
07fe00000000
0ffe00000000
1ffe00000000
1fff00000000
0fff03fffff0
0fff01fffff0
07ff81ffffe0
03ff81ffffc0
01ff80ffff80
00ffc0ffff00
007fc0fffe00
003fc07ffc00
000fe07ff000
0007e07fe000
0000e03f0000
000000380000
ENDCHAR
STARTCHAR /home/kraus/git/open-iconic/png/arrow-bottom-6x.png
ENCODING 72
DWIDTH 48 0
BBX 48 48 0 0
BITMAP
00003f000000
00003f000000
00003f000000
00003f000000
00003f000000
00003f000000
00003f000000
00003f000000
00003f000000
00003f000000
00003f000000
00003f000000
00003f000000
00003f000000
00003f000000
00003f000000
00003f000000
00003f000000
00003f000000
00003f000000
00003f000000
00003f000000
00003f000000
00003f000000
00003f000000
00003f000000
00003f000000
00003f000000
00003f000000
00003f000000
03fffffff000
01ffffffe000
00ffffffc000
007fffff8000
003fffff0000
001ffffe0000
001ffffe0000
000ffffc0000
0007fff80000
0003fff00000
0001ffe00000
0000ffe00000
00007fc00000
00007f800000
00003f000000
00001e000000
00000c000000
000004000000
ENDCHAR
STARTCHAR /home/kraus/git/open-iconic/png/arrow-circle-bottom-6x.png
ENCODING 73
DWIDTH 48 0
BBX 48 48 0 0
BITMAP
00001ff80000
0000ffff0000
0007ffffe000
000ffffff000
003ffffffc00
007ffffffe00
00ffc003ff00
01ffc003ff80
03ffc003ffc0
07ffc003ffe0
0fffc003fff0
0fffc003fff0
1fffc003fff8
3fffc003fffc
3fffc003fffc
3fffc003fffc
7fffc003fffe
7fffc003fffe
7fffc003fffe
ffffc003ffff
ffffc003ffff
ffffc003ffff
ffffc003ffff
ffffc003ffff
fc000000003f
fe000000007f
ff00000000ff
ff80000001ff
ffc0000003ff
7fe0000007fe
7ff000000ffe
7ff800001ffe
3ffc00003ffc
3ffe00007ffc
3fff0000fffc
1fff8001fff8
0fffc003fff0
0fffe007fff0
07fff00fffe0
03fff81fffc0
01fffc3fff80
00fffe7fff00
007ffffffe00
003ffffffc00
000ffffff000
0007ffffe000
0000ffff0000
00001ff80000
ENDCHAR
STARTCHAR /home/kraus/git/open-iconic/png/arrow-circle-left-6x.png
ENCODING 74
DWIDTH 48 0
BBX 48 48 0 0
BITMAP
00001ff80000
0000ffff0000
0007ffffe000
000ffffff000
003ffffffc00
007ffffffe00
00fffeffff00
01fffcffff80
03fff8ffffc0
07fff0ffffe0
0fffe0fffff0
0fffc0fffff0
1fff80fffff8
3fff00fffffc
3ffe00fffffc
3ffc00fffffc
7ff800fffffe
7ff000fffffe
7fe00000003e
ffc00000003f
ff800000003f
ff000000003f
fe000000003f
fc000000003f
fc000000003f
fe000000003f
ff000000003f
ff800000003f
ffc00000003f
7fe00000003e
7ff000fffffe
7ff800fffffe
3ffc00fffffc
3ffe00fffffc
3fff00fffffc
1fff80fffff8
0fffc0fffff0
0fffe0fffff0
07fff0ffffe0
03fff8ffffc0
01fffcffff80
00fffeffff00
007ffffffe00
003ffffffc00
000ffffff000
0007ffffe000
0000ffff0000
00001ff80000
ENDCHAR
STARTCHAR /home/kraus/git/open-iconic/png/arrow-circle-right-6x.png
ENCODING 75
DWIDTH 48 0
BBX 48 48 0 0
BITMAP
00001ff80000
0000ffff0000
0007ffffe000
000ffffff000
003ffffffc00
007ffffffe00
00ffff7fff00
01ffff3fff80
03ffff1fffc0
07ffff0fffe0
0fffff07fff0
0fffff03fff0
1fffff01fff8
3fffff00fffc
3fffff007ffc
3fffff003ffc
7fffff001ffe
7fffff000ffe
7c00000007fe
fc00000003ff
fc00000001ff
fc00000000ff
fc000000007f
fc000000003f
fc000000003f
fc000000007f
fc00000000ff
fc00000001ff
fc00000003ff
7c00000007fe
7fffff000ffe
7fffff001ffe
3fffff003ffc
3fffff007ffc
3fffff00fffc
1fffff01fff8
0fffff03fff0
0fffff07fff0
07ffff0fffe0
03ffff1fffc0
01ffff3fff80
00ffff7fff00
007ffffffe00
003ffffffc00
000ffffff000
0007ffffe000
0000ffff0000
00001ff80000
ENDCHAR
STARTCHAR /home/kraus/git/open-iconic/png/arrow-circle-top-6x.png
ENCODING 76
DWIDTH 48 0
BBX 48 48 0 0
BITMAP
00001ff80000
0000ffff0000
0007ffffe000
000ffffff000
003ffffffc00
007ffffffe00
00fffe7fff00
01fffc3fff80
03fff81fffc0
07fff00fffe0
0fffe007fff0
0fffc003fff0
1fff8001fff8
3fff0000fffc
3ffe00007ffc
3ffc00003ffc
7ff800001ffe
7ff000000ffe
7fe0000007fe
ffc0000003ff
ff80000001ff
ff00000000ff
fe000000007f
fc000000003f
ffffc003ffff
ffffc003ffff
ffffc003ffff
ffffc003ffff
ffffc003ffff
7fffc003fffe
7fffc003fffe
7fffc003fffe
3fffc003fffc
3fffc003fffc
3fffc003fffc
1fffc003fff8
0fffc003fff0
0fffc003fff0
07ffc003ffe0
03ffc003ffc0
01ffc003ff80
00ffc003ff00
007ffffffe00
003ffffffc00
000ffffff000
0007ffffe000
0000ffff0000
00001ff80000
ENDCHAR
STARTCHAR /home/kraus/git/open-iconic/png/arrow-left-6x.png
ENCODING 77
DWIDTH 48 0
BBX 48 48 0 0
BITMAP
000000000000
000000000000
000000000000
000000000000
000000000000
000000000000
000040000000
0000c0000000
0001c0000000
0003c0000000
0007c0000000
001fc0000000
003fc0000000
007fc0000000
00ffc0000000
01ffc0000000
03ffc0000000
0fffc0000000
1fffffffffff
3fffffffffff
7fffffffffff
ffffffffffff
3fffffffffff
1fffffffffff
0fffc0000000
07ffc0000000
03ffc0000000
00ffc0000000
007fc0000000
003fc0000000
001fc0000000
0007c0000000
0003c0000000
0001c0000000
0000c0000000
000040000000
000000000000
000000000000
000000000000
000000000000
000000000000
000000000000
000000000000
000000000000
000000000000
000000000000
000000000000
000000000000
ENDCHAR
STARTCHAR /home/kraus/git/open-iconic/png/arrow-right-6x.png
ENCODING 78
DWIDTH 48 0
BBX 48 48 0 0
BITMAP
000000000000
000000000000
000000000000
000000000000
000000000000
000000000000
000000020000
000000030000
000000038000
00000003c000
00000003e000
00000003f800
00000003fc00
00000003fe00
00000003ff00
00000003ffc0
00000003ffe0
00000003fff0
fffffffffff8
fffffffffffc
ffffffffffff
fffffffffffe
fffffffffffc
fffffffffff8
00000003fff0
00000003ffc0
00000003ff80
00000003ff00
00000003fe00
00000003fc00
00000003f800
00000003e000
00000003c000
000000038000
000000030000
000000020000
000000000000
000000000000
000000000000
000000000000
000000000000
000000000000
000000000000
000000000000
000000000000
000000000000
000000000000
000000000000
ENDCHAR
STARTCHAR /home/kraus/git/open-iconic/png/arrow-thick-bottom-6x.png
ENCODING 79
DWIDTH 48 0
BBX 48 48 0 0
BITMAP
00003ffc0000
00003ffc0000
00003ffc0000
00003ffc0000
00003ffc0000
00003ffc0000
00003ffc0000
00003ffc0000
00003ffc0000
00003ffc0000
00003ffc0000
00003ffc0000
00003ffc0000
00003ffc0000
00003ffc0000
00003ffc0000
00003ffc0000
00003ffc0000
00003ffc0000
00003ffc0000
00003ffc0000
00003ffc0000
00003ffc0000
00003ffc0000
00003ffc0000
00003ffc0000
00003ffc0000
00003ffc0000
00003ffc0000
00003ffc0000
01ffffffff80
00ffffffff80
007fffffff00
003ffffffe00
001ffffffc00
000ffffff800
0007fffff000
0003ffffe000
0001ffffc000
0000ffff8000
00007fff0000
00003ffe0000
00001ffc0000
00000ff80000
000007f00000
000003e00000
000001c00000
000000800000
ENDCHAR
STARTCHAR /home/kraus/git/open-iconic/png/arrow-thick-left-6x.png
ENCODING 80
DWIDTH 48 0
BBX 48 48 0 0
BITMAP
000000000000
000000000000
000000000000
000000000000
000000000000
000000000000
000000000000
000040000000
0000c0000000
0001c0000000
0003c0000000
0007c0000000
000fc0000000
001fc0000000
003fc0000000
007fc0000000
00ffc0000000
01ffc0000000
03ffffffffff
07ffffffffff
0fffffffffff
1fffffffffff
3fffffffffff
7fffffffffff
ffffffffffff
7fffffffffff
3fffffffffff
1fffffffffff
0fffffffffff
07ffffffffff
03ffc0000000
01ffc0000000
00ffc0000000
007fc0000000
003fc0000000
001fc0000000
000fc0000000
0007c0000000
0003c0000000
0001c0000000
0000c0000000
000000000000
000000000000
000000000000
000000000000
000000000000
000000000000
000000000000
ENDCHAR
STARTCHAR /home/kraus/git/open-iconic/png/arrow-thick-right-6x.png
ENCODING 81
DWIDTH 48 0
BBX 48 48 0 0
BITMAP
000000000000
000000000000
000000000000
000000000000
000000000000
000000000000
000000000000
000000030000
000000038000
00000003c000
00000003e000
00000003f000
00000003f800
00000003fc00
00000003fe00
00000003ff00
00000003ff80
00000003ffc0
ffffffffffe0
fffffffffff0
fffffffffff8
fffffffffffc
fffffffffffe
ffffffffffff
fffffffffffe
fffffffffffc
fffffffffff8
fffffffffff0
ffffffffffe0
ffffffffffc0
00000003ff80
00000003ff00
00000003fe00
00000003fc00
00000003f800
00000003f000
00000003e000
00000003c000
000000038000
000000030000
000000020000
000000000000
000000000000
000000000000
000000000000
000000000000
000000000000
000000000000
ENDCHAR
STARTCHAR /home/kraus/git/open-iconic/png/arrow-thick-top-6x.png
ENCODING 82
DWIDTH 48 0
BBX 48 48 0 0
BITMAP
000001000000
000003800000
000007c00000
00000fe00000
00001ff00000
00003ff80000
00007ffc0000
0000fffe0000
0001ffff0000
0003ffff8000
0007ffffc000
000fffffe000
001ffffff000
003ffffff800
007ffffffc00
00fffffffe00
01ffffffff00
01ffffffff80
00003ffc0000
00003ffc0000
00003ffc0000
00003ffc0000
00003ffc0000
00003ffc0000
00003ffc0000
00003ffc0000
00003ffc0000
00003ffc0000
00003ffc0000
00003ffc0000
00003ffc0000
00003ffc0000
00003ffc0000
00003ffc0000
00003ffc0000
00003ffc0000
00003ffc0000
00003ffc0000
00003ffc0000
00003ffc0000
00003ffc0000
00003ffc0000
00003ffc0000
00003ffc0000
00003ffc0000
00003ffc0000
00003ffc0000
00003ffc0000
ENDCHAR
STARTCHAR /home/kraus/git/open-iconic/png/arrow-top-6x.png
ENCODING 83
DWIDTH 48 0
BBX 48 48 0 0
BITMAP
000008000000
00000c000000
00001e000000
00003f000000
00007f800000
0000ff800000
0001ffc00000
0001ffe00000
0003fff00000
0007fff80000
000ffffc0000
001ffffe0000
001ffffe0000
003fffff0000
007fffff8000
00ffffffc000
01ffffffe000
03fffffff000
00003f000000
00003f000000
00003f000000
00003f000000
00003f000000
00003f000000
00003f000000
00003f000000
00003f000000
00003f000000
00003f000000
00003f000000
00003f000000
00003f000000
00003f000000
00003f000000
00003f000000
00003f000000
00003f000000
00003f000000
00003f000000
00003f000000
00003f000000
00003f000000
00003f000000
00003f000000
00003f000000
00003f000000
00003f000000
00003f000000
ENDCHAR
STARTCHAR /home/kraus/git/open-iconic/png/audio-6x.png
ENCODING 84
DWIDTH 48 0
BBX 48 48 0 0
BITMAP
000000000000
000000000000
000000000000
000000000000
000000000000
000000000000
030000000040
0380000000c0
07c0000001e0
0fe0000003f0
1fe0000007f8
1fc0000003f8
3f80000001fc
3f80000001fc
7f00000000fe
7f01800180fe
7e03c003c07e
7e07e003e07e
fe07e007e03f
fc07e007e03f
fc0fe003f03f
fc0fc003f03f
fc0fc003f03f
fc0fc003f03f
fc0fc003f03f
fc0fe007f03f
fc07e007e03f
fe07e007e07f
7e07e003e07e
7e03c003c07e
7f01800180fe
3f00000000fc
3f80000001fc
3f80000001fc
1fc0000003f8
1fe0000007f8
0fc0000003f0
0780000001e0
0300000000c0
000000000040
000000000000
000000000000
000000000000
000000000000
000000000000
000000000000
000000000000
000000000000
ENDCHAR
STARTCHAR /home/kraus/git/open-iconic/png/audio-spectrum-6x.png
ENCODING 85
DWIDTH 48 0
BBX 48 48 0 0
BITMAP
000000fc0000
000000fc0000
000000fc0000
000000fc0000
000000fc0000
000000fc0000
000fc0fc0000
000fc0fc0000
000fc0fc0000
000fc0fc0000
000fc0fc0000
000fc0fc0000
000fc0fc0fc0
000fc0fc0fc0
000fc0fc0fc0
000fc0fc0fc0
000fc0fc0fc0
000fc0fc0fc0
fc0fc0fc0fc0
fc0fc0fc0fc0
fc0fc0fc0fc0
fc0fc0fc0fc0
fc0fc0fc0fc0
fc0fc0fc0fc0
fc0fc0fc0fc0
fc0fc0fc0fc0
fc0fc0fc0fc0
fc0fc0fc0fc0
fc0fc0fc0fc0
fc0fc0fc0fc0
000fc0fc0fc0
000fc0fc0fc0
000fc0fc0fc0
000fc0fc0fc0
000fc0fc0fc0
000fc0fc0fc0
000fc0fc0000
000fc0fc0000
000fc0fc0000
000fc0fc0000
000fc0fc0000
000fc0fc0000
000000fc0000
000000fc0000
000000fc0000
000000fc0000
000000fc0000
000000fc0000
ENDCHAR
STARTCHAR /home/kraus/git/open-iconic/png/badge-6x.png
ENCODING 86
DWIDTH 48 0
BBX 48 48 0 0
BITMAP
000007e00000
00003ffc0000
00007ffe0000
0000ffff0000
0001ffff8000
0003ffffc000
0007ffffe000
0007ffffe000
0007ffffe000
000ffffff000
000ffffff000
000ffffff000
000ffffff000
000ffffff000
000ffffff000
0007ffffe000
0007ffffe000
0007ffffe000
0003ffffc000
0001ffff8000
0000ffff0000
00007ffe0000
00003ffc0000
000007e00000
000000000000
000000000000
000000000000
000000000000
000000000000
0000300c0000
00003ffc0000
00003ffc0000
00003ffc0000
00003ffc0000
00003ffc0000
00003ffc0000
00003ffc0000
00003ffc0000
00003ffc0000
00003ffc0000
00003ffc0000
00003ffc0000
00003e7c0000
00003c3c0000
0000381c0000
0000300c0000
000020040000
000000000000
ENDCHAR
STARTCHAR /home/kraus/git/open-iconic/png/ban-6x.png
ENCODING 87
DWIDTH 48 0
BBX 48 48 0 0
BITMAP
00001ff80000
0000ffff0000
0007ffffe000
000ffffff000
003ffffffc00
007ffffffe00
00fff00fff00
01ff8001ff80
03fe00007fc0
07f800003fe0
0ff000007ff0
0fe00000fff0
1fc00001fff8
3f800003fffc
3f800007fdfc
3f00000ff8fc
7f00001ff0fe
7e00003fe07e
7e00007fc07e
fe0000ff807f
fc0001ff003f
fc0003fe003f
fc0007fc003f
fc000ff8003f
fc001ff0003f
fc003fe0003f
fc007fc0003f
fc00ff80003f
fe01ff00007f
7e03fe00007e
7e07fc00007e
7f0ff80000fe
3f1ff00000fc
3fbfe00001fc
3fffc00001fc
1fff800003f8
0fff000007f0
0ffe00000ff0
07fc00001fe0
03fe00007fc0
01ff8001ff80
00fff00fff00
007ffffffe00
003ffffffc00
000ffffff000
0007ffffe000
0000ffff0000
00001ff80000
ENDCHAR
STARTCHAR /home/kraus/git/open-iconic/png/bar-chart-6x.png
ENCODING 88
DWIDTH 48 0
BBX 48 48 0 0
BITMAP
fc000003ffc0
fc000003ffc0
fc000003ffc0
fc000003ffc0
fc000003ffc0
fc000003ffc0
fc000003ffc0
fc000003ffc0
fc000003ffc0
fc000003ffc0
fc000003ffc0
fc000003ffc0
fc0fff03ffc0
fc0fff03ffc0
fc0fff03ffc0
fc0fff03ffc0
fc0fff03ffc0
fc0fff03ffc0
fc0fff03ffc0
fc0fff03ffc0
fc0fff03ffc0
fc0fff03ffc0
fc0fff03ffc0
fc0fff03ffc0
fc0fff03ffc0
fc0fff03ffc0
fc0fff03ffc0
fc0fff03ffc0
fc0fff03ffc0
fc0fff03ffc0
fc0000000000
fc0000000000
fc0000000000
fc0000000000
fc0000000000
fc0000000000
ffffffffffff
ffffffffffff
ffffffffffff
ffffffffffff
ffffffffffff
ffffffffffff
000000000000
000000000000
000000000000
000000000000
000000000000
000000000000
ENDCHAR
STARTCHAR /home/kraus/git/open-iconic/png/basket-6x.png
ENCODING 89
DWIDTH 48 0
BBX 48 48 0 0
BITMAP
000003c00000
000007e00000
000007e00000
00000ff00000
00001ff80000
00003ffc0000
00007ffe0000
0000ffff0000
0000fe7f0000
0001fc3f8000
0003fc3fc000
0007f81fe000
000ff00ff000
001fe007f800
001fc003f800
003f8001fc00
007f8001fe00
00ff0000ff00
ffffffffffff
ffffffffffff
ffffffffffff
ffffffffffff
ffffffffffff
ffffffffffff
03ffffffffc0
03ffffffffc0
03ffffffffc0
03ffffffffc0
03ffffffffc0
03ffffffffc0
03f87ffe1fc0
03f03ffc0fc0
03f03ffc0fc0
03f03ffc0fc0
03f03ffc0fc0
03f03ffc0fc0
03f03ffc0fc0
03f03ffc0fc0
03f03ffc0fc0
03f03ffc0fc0
03f03ffc0fc0
03f87ffe1fc0
03ffffffffc0
03ffffffffc0
03ffffffffc0
03ffffffffc0
03ffffffffc0
01ffffffff80
ENDCHAR
STARTCHAR /home/kraus/git/open-iconic/png/battery-empty-6x.png
ENCODING 90
DWIDTH 48 0
BBX 48 48 0 0
BITMAP
000000000000
000000000000
000000000000
000000000000
000000000000
000000000000
ffffffffffc0
ffffffffffc0
ffffffffffc0
ffffffffffc0
ffffffffffc0
ffffffffffc0
fc0000000fc0
fc0000000fc0
fc0000000fc0
fc0000000fc0
fc0000000fc0
fc0000000fc0
fc0000000fff
fc0000000fff
fc0000000fff
fc0000000fff
fc0000000fff
fc0000000fff
fc0000000fff
fc0000000fff
fc0000000fff
fc0000000fff
fc0000000fff
fc0000000fff
fc0000000fc0
fc0000000fc0
fc0000000fc0
fc0000000fc0
fc0000000fc0
fc0000000fc0
ffffffffffc0
ffffffffffc0
ffffffffffc0
ffffffffffc0
ffffffffffc0
ffffffffffc0
000000000000
000000000000
000000000000
000000000000
000000000000
000000000000
ENDCHAR
STARTCHAR /home/kraus/git/open-iconic/png/battery-full-6x.png
ENCODING 91
DWIDTH 48 0
BBX 48 48 0 0
BITMAP
000000000000
000000000000
000000000000
000000000000
000000000000
000000000000
ffffffffffc0
ffffffffffc0
ffffffffffc0
ffffffffffc0
ffffffffffc0
ffffffffffc0
ffffffffffc0
ffffffffffc0
ffffffffffc0
ffffffffffc0
ffffffffffc0
ffffffffffc0
ffffffffffff
ffffffffffff
ffffffffffff
ffffffffffff
ffffffffffff
ffffffffffff
ffffffffffff
ffffffffffff
ffffffffffff
ffffffffffff
ffffffffffff
ffffffffffff
ffffffffffc0
ffffffffffc0
ffffffffffc0
ffffffffffc0
ffffffffffc0
ffffffffffc0
ffffffffffc0
ffffffffffc0
ffffffffffc0
ffffffffffc0
ffffffffffc0
ffffffffffc0
000000000000
000000000000
000000000000
000000000000
000000000000
000000000000
ENDCHAR
STARTCHAR /home/kraus/git/open-iconic/png/beaker-6x.png
ENCODING 92
DWIDTH 48 0
BBX 48 48 0 0
BITMAP
01ffffffff80
03ffffffffc0
03ffffffffc0
03ffffffffc0
03ffffffffc0
01ffffffff80
000fc003f000
000fc003f000
000fc003f000
000fc003f000
000fc003f000
000fc003f000
000fc003f000
000fc003f000
000fc003f000
001fc003f800
001fc003f800
003f8001fc00
003f0001fc00
007f0000fe00
007e00007e00
00fe00007f00
00fc00003f00
01fc00003f80
01f800001f80
03f800001fc0
03f000000fc0
07f000000fe0
07e0000007e0
0fe0000007f0
1ffffffffff8
1ffffffffff8
3ffffffffffc
3ffffffffffc
7ffffffffffe
7ffffffffffe
ffffffffffff
ffffffffffff
ffffffffffff
ffffffffffff
ffffffffffff
ffffffffffff
7ffffffffffe
7ffffffffffe
3ffffffffffc
3ffffffffffc
0ffffffffff0
03ffffffffc0
ENDCHAR
STARTCHAR /home/kraus/git/open-iconic/png/bell-6x.png
ENCODING 93
DWIDTH 48 0
BBX 48 48 0 0
BITMAP
000007e00000
00003ffc0000
00007ffe0000
0000ffff0000
0001ffff8000
0003ffffc000
0007ffffe000
0007ffffe000
0007ffffe000
000ffffff000
000ffffff000
000ffffff000
000ffffff000
000ffffff000
000ffffff000
000ffffff000
001ffffff800
001ffffff800
001ffffff800
003ffffffc00
003ffffffc00
007ffffffe00
007ffffffe00
00ffffffff00
01ffffffff80
01ffffffff80
03ffffffffc0
0ffffffffff0
1ffffffffff8
3ffffffffffc
3ffffffffffc
7ffffffffffe
7ffffffffffe
ffffffffffff
ffffffffffff
ffffffffffff
000000000000
000000000000
000000000000
000000000000
000000000000
000000000000
00003ffc0000
00003ffc0000
00001ff80000
00001ff80000
00000ff00000
000003c00000
ENDCHAR
STARTCHAR /home/kraus/git/open-iconic/png/bluetooth-6x.png
ENCODING 94
DWIDTH 48 0
BBX 48 48 0 0
BITMAP
0001e0000000
0001f0000000
0001f8000000
0001fe000000
0001ff000000
0001ffc00000
0001ffe00000
0001fff00000
0001fffc0000
0001fbfe0000
0001f9ff8000
0021f87fc000
0071f83fe000
00f9f80ff800
01fdf807fc00
01fff807fc00
00fff80ff800
007ff83fe000
003ff87fc000
001ff9ff0000
000ffbfe0000
0007fff80000
0003ffe00000
0001ffc00000
0001ffe00000
0003fff00000
0007fff80000
000ffbfe0000
001ff9ff0000
003ff87fc000
007ff83fe000
00fff80ff800
01fff807fc00
01fdf807fc00
00f9f80ff800
0071f83fe000
0021f87fc000
0001f9ff8000
0001fbfe0000
0001fffc0000
0001fff00000
0001ffe00000
0001ffc00000
0001ff000000
0001fe000000
0001f8000000
0001f0000000
0001e0000000
ENDCHAR
STARTCHAR /home/kraus/git/open-iconic/png/bold-6x.png
ENCODING 95
DWIDTH 48 0
BBX 48 48 0 0
BITMAP
ffffffff8000
fffffffff000
fffffffff800
fffffffffc00
fffffffffe00
ffffffffff00
3fffc03fff80
0fffc00fff80
07ffc007ff80
07ffc007ffc0
03ffc003ffc0
03ffc003ffc0
03ffc003ffc0
03ffc003ffc0
03ffc007ffc0
03ffc007ff80
03ffc00fff80
03ffc03fff80
03ffffffff00
03ffffffff00
03ffffffff80
03ffffffffe0
03fffffffff0
03fffffffff8
03ffc003fff8
03ffc000fffc
03ffc0007ffc
03ffc0003ffe
03ffc0001ffe
03ffc0001fff
03ffc0000fff
03ffc0000fff
03ffc0000fff
03ffc0000fff
03ffc0000fff
03ffc0000fff
03ffc0001fff
03ffc0001ffe
07ffc0003ffe
07ffc0007ffc
0fffc000fffc
3fffc003fff8
fffffffffff8
fffffffffff0
ffffffffffe0
ffffffffff80
fffffffffe00
fffffffff800
ENDCHAR
STARTCHAR /home/kraus/git/open-iconic/png/bolt-6x.png
ENCODING 96
DWIDTH 48 0
BBX 48 48 0 0
BITMAP
000000000000
000001000000
000001000000
000003000000
000007000000
000007000000
00000f000000
00000f000000
00001f000000
00003f000000
00003f000000
00007f000000
00007f000000
0000ff000000
0001ff000000
0001ff000000
0003ff000000
0003ff000000
0007fffff000
000fffffe000
000fffffc000
001fffffc000
001fffff8000
003fffff8000
007fffff0000
007ffffe0000
00fffffe0000
00fffffc0000
01fffffc0000
03fffff80000
00003ff00000
00003ff00000
00003fe00000
00003fe00000
00003fc00000
00003f800000
00003f800000
00003f000000
00003f000000
00003e000000
00003c000000
00003c000000
000038000000
000038000000
000030000000
000020000000
000020000000
000000000000
ENDCHAR
STARTCHAR /home/kraus/git/open-iconic/png/book-6x.png
ENCODING 97
DWIDTH 48 0
BBX 48 48 0 0
BITMAP
0fffff000f80
3fffff000fc0
7fffff000fc0
7fffff000fc0
ffffff000fc0
ffffff000fc0
ffffff000fc0
ffffff000fc0
ffffff000fc0
ffffff000fc0
ffffff000fc0
ffffff000fc0
ffffff000fc0
ffffff060fc0
ffffff0f0fc0
ffffff1f8fc0
ffffff3fcfc0
ffffff7fefc0
ffffffffffc0
ffffffffffc0
ffffffffffc0
ffffffffffc0
ffffffffffc0
ffffffffffc0
ffffffffffc0
ffffffffffc0
ffffffffffc0
ffffffffffc0
ffffffffffc0
ffffffffffc0
ffffffffffc0
ffffffffffc0
ffffffffffc0
ffffffffffc0
ffffffffffc0
ffffffffffc0
fe0000000000
fc0000000000
fc0000000000
fc0000000000
fc0000000000
fe0000000000
7fffffffffc0
7fffffffffc0
3fffffffffc0
1fffffffffc0
0fffffffffc0
03ffffffffc0
ENDCHAR
STARTCHAR /home/kraus/git/open-iconic/png/bookmark-6x.png
ENCODING 98
DWIDTH 48 0
BBX 48 48 0 0
BITMAP
000ffffff000
000ffffff000
000ffffff000
000ffffff000
000ffffff000
000ffffff000
000ffffff000
000ffffff000
000ffffff000
000ffffff000
000ffffff000
000ffffff000
000ffffff000
000ffffff000
000ffffff000
000ffffff000
000ffffff000
000ffffff000
000ffffff000
000ffffff000
000ffffff000
000ffffff000
000ffffff000
000ffffff000
000ffffff000
000ffffff000
000ffffff000
000ffffff000
000ffffff000
000ffffff000
000ffffff000
000ffffff000
000ffffff000
000ffffff000
000ffffff000
000ffffff000
000ffe7ff000
000ffc3ff000
000ff81ff000
000ff00ff000
000fe007f000
000fc003f000
000f8001f000
000f0000f000
000e00007000
000c00003000
000800001000
000000000000
ENDCHAR
STARTCHAR /home/kraus/git/open-iconic/png/box-6x.png
ENCODING 99
DWIDTH 48 0
BBX 48 48 0 0
BITMAP
ffffffffffff
ffffffffffff
ffffffffffff
ffffffffffff
ffffffffffff
ffffffffffff
000000000000
000000000000
000000000000
000000000000
000000000000
000000000000
ffffc003ffff
ffffc003ffff
ffffc003ffff
ffffc003ffff
ffffc003ffff
ffffc003ffff
ffffffffffff
ffffffffffff
ffffffffffff
ffffffffffff
ffffffffffff
ffffffffffff
ffffffffffff
ffffffffffff
ffffffffffff
ffffffffffff
ffffffffffff
ffffffffffff
ffffffffffff
ffffffffffff
ffffffffffff
ffffffffffff
ffffffffffff
ffffffffffff
ffffffffffff
ffffffffffff
ffffffffffff
ffffffffffff
ffffffffffff
ffffffffffff
ffffffffffff
ffffffffffff
ffffffffffff
ffffffffffff
ffffffffffff
ffffffffffff
ENDCHAR
STARTCHAR /home/kraus/git/open-iconic/png/briefcase-6x.png
ENCODING 100
DWIDTH 48 0
BBX 48 48 0 0
BITMAP
0000ffff0000
0003ffffc000
0007ffffe000
0007ffffe000
000ffffff000
000ffffff000
000fc003f000
000fc003f000
000fc003f000
000fc003f000
000fc003f000
000fc003f000
ffffffffffff
ffffffffffff
ffffffffffff
ffffffffffff
ffffffffffff
ffffffffffff
ffffffffffff
ffffffffffff
ffffffffffff
ffffffffffff
ffffffffffff
ffffffffffff
ffffffffffff
ffffffffffff
ffffffffffff
ffffffffffff
ffffffffffff
7ffffffffffe
000000000000
000000000000
000000000000
000000000000
000000000000
000000000000
ffffffffffff
ffffffffffff
ffffffffffff
ffffffffffff
ffffffffffff
ffffffffffff
ffffffffffff
ffffffffffff
ffffffffffff
ffffffffffff
ffffffffffff
ffffffffffff
ENDCHAR
STARTCHAR /home/kraus/git/open-iconic/png/british-pound-6x.png
ENCODING 101
DWIDTH 48 0
BBX 48 48 0 0
BITMAP
00000ff00000
00003ffc0000
00007fff0000
0000ffff8000
0001ffffc000
0003ffffc000
0003f81fe000
0007f00fe000
0007e007f000
000fe003f000
000fc003f000
000fc003f000
000fc0000000
000fc0000000
000fc0000000
000fc0000000
000fc0000000
000fc0000000
000fe0000000
0007e0000000
0007e0000000
0007e0000000
0007e0000000
0007f0000000
03fffffc0000
03fffffc0000
03fffffc0000
03fffffc0000
03fffffc0000
03fffffc0000
0007e0000000
0007e0000000
000fe0000000
000fc0000000
001fc0000000
001f80000000
003f80000000
007f00000000
00fe00000000
01fe00000000
03fc00000000
03f800000000
03ffffffffc0
03ffffffffc0
03ffffffffc0
03ffffffffc0
03ffffffffc0
03ffffffffc0
ENDCHAR
STARTCHAR /home/kraus/git/open-iconic/png/browser-6x.png
ENCODING 102
DWIDTH 48 0
BBX 48 48 0 0
BITMAP
7ffffffffffe
ffffffffffff
ffffffffffff
ffffffffffff
ffffffffffff
ffffffffffff
fe1fe000007f
fc0fc000003f
fc0fc000003f
fc0fc000003f
fc0fc000003f
fe1fe000007f
ffffffffffff
ffffffffffff
ffffffffffff
ffffffffffff
ffffffffffff
ffffffffffff
fc000000003f
fc000000003f
fc000000003f
fc000000003f
fc000000003f
fc000000003f
fc000000003f
fc000000003f
fc000000003f
fc000000003f
fc000000003f
fc000000003f
fc000000003f
fc000000003f
fc000000003f
fc000000003f
fc000000003f
fc000000003f
fc000000003f
fc000000003f
fc000000003f
fc000000003f
fc000000003f
fc000000003f
ffffffffffff
ffffffffffff
ffffffffffff
ffffffffffff
ffffffffffff
7ffffffffffe
ENDCHAR
STARTCHAR /home/kraus/git/open-iconic/png/brush-6x.png
ENCODING 103
DWIDTH 48 0
BBX 48 48 0 0
BITMAP
000000000008
00000000001c
00000000007e
0000000000ff
0000000003fe
0000000007fc
000000000ffc
000000003ff8
000000007ff0
00000001fff0
00000003ffe0
00000007ffc0
0000001fff80
0000003fff80
000000ffff00
000001fffe00
000003fffe00
000007fffc00
00000ffff800
000003fff000
000000fff000
0000007fe000
0000003fc000
0000001fc000
0007e00f8000
001ff80f0000
003ffc060000
007ffe040000
007ffe000000
007fff000000
00ffff000000
00ffff000000
00ffff000000
00ffff000000
00ffff000000
00ffff000000
01fffe000000
01fffe000000
01fffe000000
03fffc000000
03fffc000000
07fff8000000
0ffff0000000
1fffe0000000
3fffc0000000
7fff80000000
7ffe00000000
0ff000000000
ENDCHAR
STARTCHAR /home/kraus/git/open-iconic/png/bug-6x.png
ENCODING 104
DWIDTH 48 0
BBX 48 48 0 0
BITMAP
00003f000000
0000ffc00000
0001ffe00000
0003fff00000
0003fff00000
0007fff80000
0007fff80000
000ffffc0000
000ffffc0000
000ffffc0000
000ffffc0000
000ffffc0000
780ffffc0780
fe07fff81fc0
ff87fff87fc0
ffe7fff9ffc0
ffffffffffc0
3fffffffff00
0ffffffffc00
03fffffff000
00ffffffc000
00ffffffc000
00ffffffc000
01ffffffe000
7fffe1ffff80
ffffc0ffffc0
ffffc0ffffc0
ffffc0ffffc0
ffffc0ffffc0
7fffc0ffff80
03ffc0fff000
03ffc0fff000
03ffc0fff000
03ffc0fff000
07ffc0fff800
1fffc0fffe00
7fffc0ffff80
ffffc0ffffc0
ffffc0ffffc0
ffffc0ffffc0
fe7fc0ff8fc0
787fc0ff8780
003fc0ff0000
001fc07e0000
000f807c0000
000700180000
000000000000
000000000000
ENDCHAR
STARTCHAR /home/kraus/git/open-iconic/png/bullhorn-6x.png
ENCODING 105
DWIDTH 48 0
BBX 48 48 0 0
BITMAP
000000000fc0
000000000fc0
000000000fc0
000000040fc0
0000001c0fc0
0000007c0fc0
000001fc0fc0
000007fc0fc0
00001ffc0fc0
00007ffc0fc0
0001fffc0fc0
0007fffc0fc0
fffffffc0fc0
fffffffc0fc0
fffffffc0fc0
fffffffc0fc0
fffffffc0fc0
fffffffc0fc0
fffffffc0fc0
fffffffc0fc0
fffffffc0fc0
fffffffc0fc0
fffffffc0fc0
fffffffc0fc0
03fffffc0fc0
01fffffc0fc0
01f87ffc0fc0
01fc1ffc0fc0
00fc07fc0fc0
00fc01fc0fc0
00fe007c0fc0
007e001c0fc0
007f00040fc0
003f00000fc0
003f00000fc0
003f80000fc0
001f80000000
001fc0000000
000fc0000000
000fc0000000
000fc0000000
000780000000
000000000000
000000000000
000000000000
000000000000
000000000000
000000000000
ENDCHAR
STARTCHAR /home/kraus/git/open-iconic/png/calculator-6x.png
ENCODING 106
DWIDTH 48 0
BBX 48 48 0 0
BITMAP
ffffffffffc0
ffffffffffc0
ffffffffffc0
ffffffffffc0
ffffffffffc0
ffffffffffc0
fc0000000fc0
fc0000000fc0
fc0000000fc0
fc0000000fc0
fc0000000fc0
fc0000000fc0
fc0000000fc0
fc0000000fc0
fc0000000fc0
fc0000000fc0
fc0000000fc0
fc0000000fc0
ffffffffffc0
ffffffffffc0
ffffffffffc0
ffffffffffc0
ffffffffffc0
ffffffffffc0
fc0fc0fc0fc0
fc0fc0fc0fc0
fc0fc0fc0fc0
fc0fc0fc0fc0
fc0fc0fc0fc0
fc0fc0fc0fc0
fffffffc0fc0
fffffffc0fc0
fffffffc0fc0
fffffffc0fc0
fffffffc0fc0
fffffffc0fc0
fc0fc0fc0fc0
fc0fc0fc0fc0
fc0fc0fc0fc0
fc0fc0fc0fc0
fc0fc0fc0fc0
fc0fc0fc0fc0
ffffffffffc0
ffffffffffc0
ffffffffffc0
ffffffffffc0
ffffffffffc0
ffffffffffc0
ENDCHAR
STARTCHAR /home/kraus/git/open-iconic/png/calendar-6x.png
ENCODING 107
DWIDTH 48 0
BBX 48 48 0 0
BITMAP
ffffffffffc0
ffffffffffc0
ffffffffffc0
ffffffffffc0
ffffffffffc0
ffffffffffc0
ffffffffffc0
ffffffffffc0
ffffffffffc0
ffffffffffc0
ffffffffffc0
ffffffffffc0
000000000000
000000000000
000000000000
000000000000
000000000000
000000000000
ffffffffffc0
ffffffffffc0
ffffffffffc0
ffffffffffc0
ffffffffffc0
ffffffffffc0
fc0fc0fc0fc0
fc0fc0fc0fc0
fc0fc0fc0fc0
fc0fc0fc0fc0
fc0fc0fc0fc0
fc0fc0fc0fc0
ffffffffffc0
ffffffffffc0
ffffffffffc0
ffffffffffc0
ffffffffffc0
ffffffffffc0
fc0fc0ffffc0
fc0fc0ffffc0
fc0fc0ffffc0
fc0fc0ffffc0
fc0fc0ffffc0
fc0fc0ffffc0
ffffffffffc0
ffffffffffc0
ffffffffffc0
ffffffffffc0
ffffffffffc0
ffffffffffc0
ENDCHAR
STARTCHAR /home/kraus/git/open-iconic/png/camera-slr-6x.png
ENCODING 108
DWIDTH 48 0
BBX 48 48 0 0
BITMAP
000000fff000
000001fff000
000001fff800
000003fff800
000003fffc00
000007fffe00
000007fffe00
00000fffff00
00000fffff00
00001fffff80
00001fffff80
00003fffffc0
03ffffffffff
0fffffffffff
1fffffffffff
3fffffffffff
7fffffffffff
7fffffffffff
fe1fffe07fff
fc0fff000fff
fc0ffe0007ff
fc0ffc0003ff
fc0ff80001ff
fe1ff00000ff
ffffe00f007f
ffffe03fc07f
ffffe07fe07f
ffffc07fe03f
ffffc0fff03f
ffffc0fff03f
ffffc0fff03f
ffffc0fff03f
ffffc07fe03f
ffffe07fe07f
ffffe03fc07f
ffffe00f007f
fffff00000ff
fffff80001ff
fffffc0003ff
fffffe0007ff
ffffff000fff
ffffffe07fff
ffffffffffff
ffffffffffff
ffffffffffff
ffffffffffff
ffffffffffff
ffffffffffff
ENDCHAR
STARTCHAR /home/kraus/git/open-iconic/png/caret-bottom-6x.png
ENCODING 109
DWIDTH 48 0
BBX 48 48 0 0
BITMAP
000000000000
000000000000
000000000000
000000000000
000000000000
000000000000
000000000000
000000000000
000000000000
000000000000
000000000000
000000000000
7ffffffffffe
3ffffffffffc
1ffffffffff8
0ffffffffff0
07ffffffffe0
03ffffffffc0
01ffffffff80
00ffffffff00
007ffffffe00
003ffffffc00
001ffffff800
000ffffff000
0007ffffe000
0003ffffc000
0001ffff8000
0000ffff0000
00007ffe0000
00003ffc0000
00001ff80000
00000ff00000
000007e00000
000003c00000
000001800000
000000000000
000000000000
000000000000
000000000000
000000000000
000000000000
000000000000
000000000000
000000000000
000000000000
000000000000
000000000000
000000000000
ENDCHAR
STARTCHAR /home/kraus/git/open-iconic/png/caret-left-6x.png
ENCODING 110
DWIDTH 48 0
BBX 48 48 0 0
BITMAP
000000000000
000000001000
000000003000
000000007000
00000000f000
00000001f000
00000003f000
00000007f000
0000000ff000
0000001ff000
0000003ff000
0000007ff000
000000fff000
000001fff000
000003fff000
000007fff000
00000ffff000
00001ffff000
00003ffff000
00007ffff000
0000fffff000
0001fffff000
0003fffff000
0007fffff000
0007fffff000
0003fffff000
0001fffff000
0000fffff000
00007ffff000
00003ffff000
00001ffff000
00000ffff000
000007fff000
000003fff000
000001fff000
000000fff000
0000007ff000
0000003ff000
0000001ff000
0000000ff000
00000007f000
00000003f000
00000001f000
00000000f000
000000007000
000000003000
000000001000
000000000000
ENDCHAR
STARTCHAR /home/kraus/git/open-iconic/png/caret-right-6x.png
ENCODING 111
DWIDTH 48 0
BBX 48 48 0 0
BITMAP
000000000000
000800000000
000c00000000
000e00000000
000f00000000
000f80000000
000fc0000000
000fe0000000
000ff0000000
000ff8000000
000ffc000000
000ffe000000
000fff000000
000fff800000
000fffc00000
000fffe00000
000ffff00000
000ffff80000
000ffffc0000
000ffffe0000
000fffff0000
000fffff8000
000fffffc000
000fffffe000
000fffffe000
000fffffc000
000fffff8000
000fffff0000
000ffffe0000
000ffffc0000
000ffff80000
000ffff00000
000fffe00000
000fffc00000
000fff800000
000fff000000
000ffe000000
000ffc000000
000ff8000000
000ff0000000
000fe0000000
000fc0000000
000f80000000
000f00000000
000e00000000
000c00000000
000800000000
000000000000
ENDCHAR
STARTCHAR /home/kraus/git/open-iconic/png/caret-top-6x.png
ENCODING 112
DWIDTH 48 0
BBX 48 48 0 0
BITMAP
000000000000
000000000000
000000000000
000000000000
000000000000
000000000000
000000000000
000000000000
000000000000
000000000000
000000000000
000000000000
000000000000
000001800000
000003c00000
000007e00000
00000ff00000
00001ff80000
00003ffc0000
00007ffe0000
0000ffff0000
0001ffff8000
0003ffffc000
0007ffffe000
000ffffff000
001ffffff800
003ffffffc00
007ffffffe00
00ffffffff00
01ffffffff80
03ffffffffc0
07ffffffffe0
0ffffffffff0
1ffffffffff8
3ffffffffffc
7ffffffffffe
000000000000
000000000000
000000000000
000000000000
000000000000
000000000000
000000000000
000000000000
000000000000
000000000000
000000000000
000000000000
ENDCHAR
STARTCHAR /home/kraus/git/open-iconic/png/cart-6x.png
ENCODING 113
DWIDTH 48 0
BBX 48 48 0 0
BITMAP
000000000000
000000000000
000000000000
000000000000
000000000000
000000000000
7fff00000000
ffff80000000
ffffc0000000
ffffc0000000
ffffe0000000
7ffff0000000
000ffffffffe
0007fffffffe
0007fffffffe
0007fffffffe
0003fffffffc
0003fffffffc
0003fffffffc
0001fffffff8
0001fffffff8
0001fffffff8
0001fffffff0
0000fffffff0
0000fffffff0
0000ffffffe0
00007fffffe0
00007fffffe0
00007fffffe0
00003fffffc0
000000000000
000000000000
000000000000
000000000000
000000000000
000000000000
00001e000780
00003f000fc0
00003f000fc0
00003f000fc0
00003f000fc0
00001e000780
000000000000
000000000000
000000000000
000000000000
000000000000
000000000000
ENDCHAR
STARTCHAR /home/kraus/git/open-iconic/png/chat-6x.png
ENCODING 114
DWIDTH 48 0
BBX 48 48 0 0
BITMAP
fffffffc0000
fffffffc0000
fffffffc0000
fffffffc0000
fffffffc0000
fffffffc0000
fff000000000
fff000000000
fff000000000
fff000000000
fff000000000
fff000000000
fff03fffffff
fff03fffffff
fff03fffffff
fff03fffffff
fff03fffffff
fff03fffffff
fff03fffffff
fff03fffffff
fff03fffffff
fff03fffffff
fff03fffffff
fff03fffffff
f8003fffffff
f0003fffffff
e0003fffffff
c0003fffffff
80003fffffff
00003fffffff
00003fffffff
00003fffffff
00003fffffff
00003fffffff
00003fffffff
00003fffffff
00000000001f
00000000000f
000000000007
000000000003
000000000001
000000000000
000000000000
000000000000
000000000000
000000000000
000000000000
000000000000
ENDCHAR
STARTCHAR /home/kraus/git/open-iconic/png/check-6x.png
ENCODING 115
DWIDTH 48 0
BBX 48 48 0 0
BITMAP
000000000000
000000000000
000000000000
000000000000
000000000000
000000000000
000000000200
000000000700
000000000f80
000000001fc0
000000003fe0
000000007ff0
00000000fff8
00000001fffc
00000003fffe
00000007fffc
0000000ffff8
0000001ffff0
0080003fffe0
01c0007fffc0
03e000ffff80
07f001ffff00
0ff803fffe00
1ffc07fffc00
3ffe0ffff800
7fff1ffff000
ffffbfffe000
7fffffffc000
3fffffff8000
1fffffff0000
0ffffffe0000
07fffffc0000
03fffff80000
01fffff00000
00ffffe00000
007fffc00000
003fff800000
001fff000000
000ffe000000
0007fc000000
0003f8000000
0001f0000000
0000e0000000
000040000000
000000000000
000000000000
000000000000
000000000000
ENDCHAR
STARTCHAR /home/kraus/git/open-iconic/png/chevron-bottom-6x.png
ENCODING 116
DWIDTH 48 0
BBX 48 48 0 0
BITMAP
000000000000
000000000000
000000000000
000000000000
000000000000
000000000000
000000000000
00c000000300
01e000000780
03f000000fc0
07f800001fe0
0ffc00003ff0
1ffe00007ff8
3fff0000fffc
7fff8001fffe
7fffc003fffe
3fffe007fffc
1ffff00ffff8
0ffff81ffff0
07fffc3fffe0
03fffe7fffc0
01ffffffff80
00ffffffff00
007ffffffe00
003ffffffc00
001ffffff800
000ffffff000
0007ffffe000
0003ffffc000
0001ffff8000
0000ffff0000
00007ffe0000
00003ffc0000
00001ff80000
00000ff00000
000007e00000
000003c00000
000001800000
000000000000
000000000000
000000000000
000000000000
000000000000
000000000000
000000000000
000000000000
000000000000
000000000000
ENDCHAR
STARTCHAR /home/kraus/git/open-iconic/png/chevron-left-6x.png
ENCODING 117
DWIDTH 48 0
BBX 48 48 0 0
BITMAP
000000000000
000000060000
0000000f0000
0000001f8000
0000003fc000
0000007fe000
000000fff000
000001fff800
000003fffc00
000007fffc00
00000ffff800
00001ffff000
00003fffe000
00007fffc000
0000ffff8000
0001ffff0000
0003fffe0000
0007fffc0000
000ffff80000
001ffff00000
003fffe00000
007fffc00000
00ffff800000
01ffff000000
01ffff000000
00ffff800000
007fffc00000
003fffe00000
001ffff00000
000ffff80000
0007fffc0000
0003fffe0000
0001ffff0000
0000ffff8000
00007fffc000
00003fffe000
00001ffff000
00000ffff800
000007fffc00
000003fffc00
000001fff800
000000fff000
0000007fe000
0000003fc000
0000001f8000
0000000f0000
000000060000
000000000000
ENDCHAR
STARTCHAR /home/kraus/git/open-iconic/png/chevron-right-6x.png
ENCODING 118
DWIDTH 48 0
BBX 48 48 0 0
BITMAP
000000000000
000300000000
000780000000
000fc0000000
001fe0000000
003ff0000000
007ff8000000
00fffc000000
01fffe000000
01ffff000000
00ffff800000
007fffc00000
003fffe00000
001ffff00000
000ffff80000
0007fffc0000
0003fffe0000
0001ffff0000
0000ffff8000
00007fffc000
00003fffe000
00001ffff000
00000ffff800
000007fffc00
000007fffc00
00000ffff800
00001ffff000
00003fffe000
00007fffc000
0000ffff8000
0001ffff0000
0003fffe0000
0007fffc0000
000ffff80000
001ffff00000
003fffe00000
007fffc00000
00ffff800000
01ffff000000
01fffe000000
00fffc000000
007ff8000000
003ff0000000
001fe0000000
000fc0000000
000780000000
000300000000
000000000000
ENDCHAR
STARTCHAR /home/kraus/git/open-iconic/png/chevron-top-6x.png
ENCODING 119
DWIDTH 48 0
BBX 48 48 0 0
BITMAP
000000000000
000000000000
000000000000
000000000000
000000000000
000000000000
000000000000
000001800000
000003c00000
000007e00000
00000ff00000
00001ff80000
00003ffc0000
00007ffe0000
0000ffff0000
0001ffff8000
0003ffffc000
0007ffffe000
000ffffff000
001ffffff800
003ffffffc00
007ffffffe00
00ffffffff00
01ffffffff80
03fffe7fffc0
07fffc3fffe0
0ffff81ffff0
1ffff00ffff8
3fffe007fffc
7fffc003fffe
7fff8001fffe
3fff0000fffc
1ffe00007ff8
0ffc00003ff0
07f800001fe0
03f000000fc0
01e000000780
00c000000300
000000000000
000000000000
000000000000
000000000000
000000000000
000000000000
000000000000
000000000000
000000000000
000000000000
ENDCHAR
STARTCHAR /home/kraus/git/open-iconic/png/circle-check-6x.png
ENCODING 120
DWIDTH 48 0
BBX 48 48 0 0
BITMAP
00001ff80000
0000ffff0000
0007ffffe000
000ffffff000
003ffffffc00
007ffffffe00
00ffffffff00
01ffffffff80
03ffffffffc0
07ffffffffe0
0ffffffffff0
0fffffffe7f0
1fffffffc3f8
3fffffff81fc
3fffffff00fc
3ffffffe00fc
7ffffffc01fe
7ffffff803fe
7ffffff007fe
ffffffe00fff
fffcffc01fff
fff87f803fff
fff03f007fff
ffe01e00ffff
ffe00c01ffff
fff00003ffff
fff80007ffff
fffc000fffff
fffe001fffff
7fff003ffffe
7fff807ffffe
7fffc0fffffe
3fffe1fffffc
3ffff3fffffc
3ffffffffffc
1ffffffffff8
0ffffffffff0
0ffffffffff0
07ffffffffe0
03ffffffffc0
01ffffffff80
00ffffffff00
007ffffffe00
003ffffffc00
000ffffff000
0007ffffe000
0000ffff0000
00001ff80000
ENDCHAR
STARTCHAR /home/kraus/git/open-iconic/png/circle-x-6x.png
ENCODING 121
DWIDTH 48 0
BBX 48 48 0 0
BITMAP
00001ff80000
0000ffff0000
0007ffffe000
000ffffff000
003ffffffc00
007ffffffe00
00ffffffff00
01ffffffff80
03ffffffffc0
07ffffffffe0
0ffffffffff0
0ffcffff3ff0
1ff87ffe1ff8
3ff03ffc0ffc
3fe01ff807fc
3fe00ff007fc
7ff007e00ffe
7ff803c01ffe
7ffc01803ffe
fffe00007fff
ffff0000ffff
ffff8001ffff
ffffc003ffff
ffffe007ffff
ffffe007ffff
ffffc003ffff
ffff8001ffff
ffff0000ffff
fffe00007fff
7ffc01803ffe
7ff803c01ffe
7ff007e00ffe
3fe00ff007fc
3fe01ff807fc
3ff03ffc0ffc
1ff87ffe1ff8
0ffcffff3ff0
0ffffffffff0
07ffffffffe0
03ffffffffc0
01ffffffff80
00ffffffff00
007ffffffe00
003ffffffc00
000ffffff000
0007ffffe000
0000ffff0000
00001ff80000
ENDCHAR
STARTCHAR /home/kraus/git/open-iconic/png/clipboard-6x.png
ENCODING 122
DWIDTH 48 0
BBX 48 48 0 0
BITMAP
00001e000000
00003f000000
00003f000000
00003f000000
00003f000000
00003f000000
fc0ffffc0fc0
fc0ffffc0fc0
fc0ffffc0fc0
fc0ffffc0fc0
fc0ffffc0fc0
fc0ffffc0fc0
fc0000000fc0
fc0000000fc0
fc0000000fc0
fc0000000fc0
fc0000000fc0
fc0000000fc0
ffffffffffc0
ffffffffffc0
ffffffffffc0
ffffffffffc0
ffffffffffc0
ffffffffffc0
ffffffffffc0
ffffffffffc0
ffffffffffc0
ffffffffffc0
ffffffffffc0
ffffffffffc0
ffffffffffc0
ffffffffffc0
ffffffffffc0
ffffffffffc0
ffffffffffc0
ffffffffffc0
ffffffffffc0
ffffffffffc0
ffffffffffc0
ffffffffffc0
ffffffffffc0
ffffffffffc0
ffffffffffc0
ffffffffffc0
ffffffffffc0
ffffffffffc0
ffffffffffc0
ffffffffffc0
ENDCHAR
STARTCHAR /home/kraus/git/open-iconic/png/clock-6x.png
ENCODING 123
DWIDTH 48 0
BBX 48 48 0 0
BITMAP
00001ff80000
0000ffff0000
0007ffffe000
000ffffff000
003ffffffc00
007ffffffe00
00fff00fff00
01ff8001ff80
03fe00007fc0
07f800001fe0
0ff000000ff0
0fe0000007f0
1fc007e003f8
3f8007e001fc
3f8007e001fc
3f0007e000fc
7f0007e000fe
7e0007e0007e
7e0007e0007e
fe0007e0007f
fc0007e0003f
fc0007e0003f
fc0007e0003f
fc0007f0003f
fc0007f8003f
fc0007fc003f
fc0003fe003f
fc0001fe003f
fe0000fc007f
7e000078007e
7e000030007e
7f00000000fe
3f00000000fc
3f80000001fc
3f80000001fc
1fc0000003f8
0fe0000007f0
0ff000000ff0
07f800001fe0
03fe00007fc0
01ff8001ff80
00fff00fff00
007ffffffe00
003ffffffc00
000ffffff000
0007ffffe000
0000ffff0000
00001ff80000
ENDCHAR
STARTCHAR /home/kraus/git/open-iconic/png/cloud-6x.png
ENCODING 124
DWIDTH 48 0
BBX 48 48 0 0
BITMAP
000000000000
000000000000
000000000000
000000000000
000000000000
000000000000
000001fe0000
00000fff8000
00001fffe000
00007ffff800
0000fffffc00
0001fffffe00
0003fffffe00
0003ffffff00
0007ffffff00
0007ffffff80
000fffffff80
000fffffffc0
007fffffffc0
03ffffffffc0
07ffffffffc0
0fffffffffc0
1fffffffffc0
3fffffffffc0
7fffffffffe0
7ffffffffff8
7ffffffffffc
fffffffffffc
fffffffffffe
fffffffffffe
ffffffffffff
ffffffffffff
ffffffffffff
7fffffffffff
7fffffffffff
7fffffffffff
3ffffffffffe
1ffffffffffe
0ffffffffffc
07fffffffff8
03fffffffff0
007fffffffc0
000000000000
000000000000
000000000000
000000000000
000000000000
000000000000
ENDCHAR
STARTCHAR /home/kraus/git/open-iconic/png/cloud-download-6x.png
ENCODING 125
DWIDTH 48 0
BBX 48 48 0 0
BITMAP
000001fe0000
00000fff8000
00001fffe000
00007ffff800
0000fffffc00
0001fffffe00
0003fffffe00
0003ffffff00
0007ffffff00
0007ffffff80
000fffffff80
000fffffffc0
007fffffffc0
03ffffffffc0
07ffffffffc0
0fffffffffc0
1fffffffffc0
3fffffffffc0
7fffff03ffe0
7ffffc00fff8
7ffff8007ffc
fffff0003ffc
ffffe0001ffe
ffffe0001ffe
ffffc0780fff
ffffc0fc0fff
ffffc0fc0fff
7fffc0fc0fff
7fffc0fc0fff
7fffc0fc0fff
000000fc0000
000000fc0000
000000fc0000
000000fc0000
000000fc0000
000000fc0000
0000fffffc00
00007ffff800
00003ffff000
00001fffe000
00000fffc000
000007ff8000
000003ff0000
000001fe0000
000000fc0000
000000780000
000000300000
000000000000
ENDCHAR
STARTCHAR /home/kraus/git/open-iconic/png/cloud-upload-6x.png
ENCODING 126
DWIDTH 48 0
BBX 48 48 0 0
BITMAP
000001fe0000
00000fff8000
00001fffe000
00007ffff800
0000fffffc00
0001fffffe00
0003fffffe00
0003ffffff00
0007ffffff00
0007ffffff80
000fffffff80
000fffffffc0
007fffffffc0
03ffffffffc0
07ffffffffc0
0fffffffffc0
1fffffffffc0
3fffffffffc0
7fffffcfffe0
7fffff87fff8
7fffff03fffc
fffffe01fffc
fffffc00fffe
fffff8007ffe
fffff0003fff
ffffe0001fff
ffffc0000fff
7fff800007ff
7fff003003ff
7ffe007801ff
000000fc0000
000001fe0000
000003ff0000
000007ff8000
00000fffc000
00001fffe000
00003ffff000
00007ffff800
0000fffffc00
0001fffffe00
0003ffffff00
0007ffffff80
000000fc0000
000000fc0000
000000fc0000
000000fc0000
000000fc0000
000000780000
ENDCHAR
STARTCHAR /home/kraus/git/open-iconic/png/cloudy-6x.png
ENCODING 127
DWIDTH 48 0
BBX 48 48 0 0
BITMAP
001fe0000000
00fff8000000
01fffe000000
07ffff800000
0fffffc00000
1fffffe00000
1ffffc000000
3fffe0000000
7fff80000000
7ffe00000000
7ffc00000000
fff800000000
fff001fe0000
ffe00fff8000
ffc01fffe000
ff807ffff800
ff80fffffc00
ff01fffffe00
fe03fffffe00
7803ffffff00
6007ffffff00
0007ffffff80
000fffffff80
000fffffffc0
007fffffffc0
03ffffffffc0
07ffffffffc0
0fffffffffc0
1fffffffffc0
3fffffffffc0
7fffffffffe0
7ffffffffff8
7ffffffffffc
fffffffffffc
fffffffffffe
fffffffffffe
ffffffffffff
ffffffffffff
ffffffffffff
7fffffffffff
7fffffffffff
7fffffffffff
3ffffffffffe
1ffffffffffe
0ffffffffffc
07fffffffff8
03fffffffff0
007fffffffc0
ENDCHAR
STARTCHAR /home/kraus/git/open-iconic/png/code-6x.png
ENCODING 128
DWIDTH 48 0
BBX 48 48 0 0
BITMAP
000000000000
000000000000
000000000000
000000000000
000000000000
000000000000
00000003f000
00000007e000
00000007e000
0000000fc000
0000000fc000
0000001f8000
03f0001f8fc0
07e0003f07e0
07e0003f07e0
0fc0007e03f0
0fc0007e03f0
1f8000fc01f8
1f8000fc01f8
3f0001f800fc
3f0001f800fc
7e0003f0007e
7e0003f0007e
fc0007e0003f
fc0007e0003f
7e000fc0007e
7e000fc0007e
3f001f8000fc
3f001f8000fc
1f803f0001f8
1f803f0001f8
0fc07e0003f0
0fc07e0003f0
07e0fc0007e0
07e0fc0007e0
03f1f8000fc0
0001f8000000
0003f0000000
0003f0000000
0007e0000000
0007e0000000
000fc0000000
000000000000
000000000000
000000000000
000000000000
000000000000
000000000000
ENDCHAR
STARTCHAR /home/kraus/git/open-iconic/png/cog-6x.png
ENCODING 129
DWIDTH 48 0
BBX 48 48 0 0
BITMAP
000007e00000
00000ff00000
00000ff00000
00000ff00000
00001ff80000
00601ff80600
00f83ffc1f00
01fe7ffe7f80
03ffffffffc0
07ffffffffe0
07ffffffffe0
03ffffffffc0
03ffffffffc0
01ffffffff80
01ffffffff80
01fff81fff00
00ffe007ff00
01ffc003ff80
03ff8001ffc0
0fff0000fff0
7fff0000fffe
fffe00007fff
fffe00007fff
fffe00007fff
fffe00007fff
fffe00007fff
fffe00007fff
7fff0000fffe
1fff0000fff8
03ff8001ffc0
01ffc003ff80
00ffe007ff00
00fff81fff00
01ffffffff80
01ffffffff80
03ffffffffc0
03ffffffffc0
07ffffffffe0
07ffffffffe0
07ffffffffc0
03ff7ffeff80
01f83ffc1f00
00e01ff80600
00001ff80000
00001ff80000
00000ff00000
00000ff00000
000007e00000
ENDCHAR
STARTCHAR /home/kraus/git/open-iconic/png/collapse-down-6x.png
ENCODING 130
DWIDTH 48 0
BBX 48 48 0 0
BITMAP
ffffffffffff
ffffffffffff
ffffffffffff
ffffffffffff
ffffffffffff
ffffffffffff
ffffffffffff
ffffffffffff
ffffffffffff
ffffffffffff
ffffffffffff
ffffffffffff
000000000000
000000000000
000000000000
000000000000
000000000000
000000000000
0007ffffe000
0003ffffc000
0001ffff8000
0000ffff0000
00007ffe0000
00003ffc0000
00001ff80000
00000ff00000
000007e00000
000003c00000
000001800000
000000000000
000000000000
000000000000
000000000000
000000000000
000000000000
000000000000
000000000000
000000000000
000000000000
000000000000
000000000000
000000000000
ffffffffffff
ffffffffffff
ffffffffffff
ffffffffffff
ffffffffffff
ffffffffffff
ENDCHAR
STARTCHAR /home/kraus/git/open-iconic/png/collapse-left-6x.png
ENCODING 131
DWIDTH 48 0
BBX 48 48 0 0
BITMAP
fc0000000fff
fc0000000fff
fc0000000fff
fc0000000fff
fc0000000fff
fc0000000fff
fc0000000fff
fc0000000fff
fc0000000fff
fc0000000fff
fc0000000fff
fc0000000fff
fc0000000fff
fc0000040fff
fc00000c0fff
fc00001c0fff
fc00003c0fff
fc00007c0fff
fc0000fc0fff
fc0001fc0fff
fc0003fc0fff
fc0007fc0fff
fc000ffc0fff
fc001ffc0fff
fc001ffc0fff
fc000ffc0fff
fc0007fc0fff
fc0003fc0fff
fc0001fc0fff
fc0000fc0fff
fc00007c0fff
fc00003c0fff
fc00001c0fff
fc00000c0fff
fc0000040fff
fc0000000fff
fc0000000fff
fc0000000fff
fc0000000fff
fc0000000fff
fc0000000fff
fc0000000fff
fc0000000fff
fc0000000fff
fc0000000fff
fc0000000fff
fc0000000fff
fc0000000fff
ENDCHAR
STARTCHAR /home/kraus/git/open-iconic/png/collapse-right-6x.png
ENCODING 132
DWIDTH 48 0
BBX 48 48 0 0
BITMAP
fff00000003f
fff00000003f
fff00000003f
fff00000003f
fff00000003f
fff00000003f
fff00000003f
fff00000003f
fff00000003f
fff00000003f
fff00000003f
fff00000003f
fff00000003f
fff02000003f
fff03000003f
fff03800003f
fff03c00003f
fff03e00003f
fff03f00003f
fff03f80003f
fff03fc0003f
fff03fe0003f
fff03ff0003f
fff03ff8003f
fff03ff8003f
fff03ff0003f
fff03fe0003f
fff03fc0003f
fff03f80003f
fff03f00003f
fff03e00003f
fff03c00003f
fff03800003f
fff03000003f
fff02000003f
fff00000003f
fff00000003f
fff00000003f
fff00000003f
fff00000003f
fff00000003f
fff00000003f
fff00000003f
fff00000003f
fff00000003f
fff00000003f
fff00000003f
fff00000003f
ENDCHAR
STARTCHAR /home/kraus/git/open-iconic/png/collapse-up-6x.png
ENCODING 133
DWIDTH 48 0
BBX 48 48 0 0
BITMAP
ffffffffffff
ffffffffffff
ffffffffffff
ffffffffffff
ffffffffffff
ffffffffffff
000000000000
000000000000
000000000000
000000000000
000000000000
000000000000
000000000000
000000000000
000000000000
000000000000
000000000000
000000000000
000000000000
000001800000
000003c00000
000007e00000
00000ff00000
00001ff80000
00003ffc0000
00007ffe0000
0000ffff0000
0001ffff8000
0003ffffc000
0007ffffe000
000000000000
000000000000
000000000000
000000000000
000000000000
000000000000
ffffffffffff
ffffffffffff
ffffffffffff
ffffffffffff
ffffffffffff
ffffffffffff
ffffffffffff
ffffffffffff
ffffffffffff
ffffffffffff
ffffffffffff
ffffffffffff
ENDCHAR
STARTCHAR /home/kraus/git/open-iconic/png/command-6x.png
ENCODING 134
DWIDTH 48 0
BBX 48 48 0 0
BITMAP
03f00003f000
0ffc000ffc00
1ffe001ffe00
3fff003fff00
7fff807fff80
7fff807fff80
fe1fc0fe1fc0
fc0fc0fc0fc0
fc0fc0fc0fc0
fc0fc0fc0fc0
fc0fc0fc0fc0
fe0fc0fc1fc0
7fffffffff80
7fffffffff80
3fffffffff00
1ffffffffe00
0ffffffffc00
03fffffff000
000fc0fc0000
000fc0fc0000
000fc0fc0000
000fc0fc0000
000fc0fc0000
000fc0fc0000
03fffffff000
0ffffffffc00
1ffffffffe00
3fffffffff00
7fffffffff80
7fffffffff80
fe0fc0fc1fc0
fc0fc0fc0fc0
fc0fc0fc0fc0
fc0fc0fc0fc0
fc0fc0fc0fc0
fe1fc0fe1fc0
7fff807fff80
7fff807fff80
3fff003fff00
1ffe001ffe00
0ffc000ffc00
03f00003f000
000000000000
000000000000
000000000000
000000000000
000000000000
000000000000
ENDCHAR
STARTCHAR /home/kraus/git/open-iconic/png/comment-square-6x.png
ENCODING 135
DWIDTH 48 0
BBX 48 48 0 0
BITMAP
ffffffffffff
ffffffffffff
ffffffffffff
ffffffffffff
ffffffffffff
ffffffffffff
ffffffffffff
ffffffffffff
ffffffffffff
ffffffffffff
ffffffffffff
ffffffffffff
ffffffffffff
ffffffffffff
ffffffffffff
ffffffffffff
ffffffffffff
ffffffffffff
ffffffffffff
ffffffffffff
ffffffffffff
ffffffffffff
ffffffffffff
ffffffffffff
ffffffffffff
ffffffffffff
ffffffffffff
ffffffffffff
ffffffffffff
ffffffffffff
ffffffffffff
ffffffffffff
ffffffffffff
ffffffffffff
ffffffffffff
ffffffffffff
0000000007ff
0000000003ff
0000000001ff
0000000000ff
00000000007f
00000000003f
00000000001f
00000000000f
000000000007
000000000003
000000000001
000000000000
ENDCHAR
STARTCHAR /home/kraus/git/open-iconic/png/compass-6x.png
ENCODING 136
DWIDTH 48 0
BBX 48 48 0 0
BITMAP
00001ff80000
0000ffff0000
0007ffffe000
000ffffff000
003ffffffc00
007ffffffe00
00fff00fff00
01ff8001ff80
03fe00007fc0
07f800001fe0
0ff000000ff0
0fe0000007f0
1fc0000013f8
3f800000e1fc
3f800007e1fc
3f00003fe0fc
7f0001ffc0fe
7e000fffc07e
7e003fffc07e
fe003fff807f
fc007fff803f
fc007c3f803f
fc00781f003f
fc00f81f003f
fc00f81f003f
fc00f81e003f
fc01fc3e003f
fc01fffe003f
fe01fffc007f
7e03fffc007e
7e03fff0007e
7f03ff8000fe
3f07fc0000fc
3f87e00001fc
3f87000001fc
1fc8000003f8
0fe0000007f0
0ff000000ff0
07f800001fe0
03fe00007fc0
01ff8001ff80
00fff00fff00
007ffffffe00
003ffffffc00
000ffffff000
0007ffffe000
0000ffff0000
00001ff80000
ENDCHAR
STARTCHAR /home/kraus/git/open-iconic/png/contrast-6x.png
ENCODING 137
DWIDTH 48 0
BBX 48 48 0 0
BITMAP
00001ff80000
0000ffff0000
0007ffffe000
000ffffff000
003ffffffc00
007ffffffe00
00ffff0fff00
01ffff01ff80
03ffff007fc0
07ffff001fe0
0fffff000ff0
0fffff0007f0
1fffff0003f8
3fffff0001fc
3fffff0001fc
3fffff0000fc
7fffff0000fe
7fffff00007e
7fffff00007e
ffffff00007f
ffffff00003f
ffffff00003f
ffffff00003f
ffffff00003f
ffffff00003f
ffffff00003f
ffffff00003f
ffffff00003f
ffffff00007f
7fffff00007e
7fffff00007e
7fffff0000fe
3fffff0000fc
3fffff0001fc
3fffff0001fc
1fffff0003f8
0fffff0007f0
0fffff000ff0
07ffff001fe0
03ffff007fc0
01ffff01ff80
00ffff0fff00
007ffffffe00
003ffffffc00
000ffffff000
0007ffffe000
0000ffff0000
00001ff80000
ENDCHAR
STARTCHAR /home/kraus/git/open-iconic/png/copywriting-6x.png
ENCODING 138
DWIDTH 48 0
BBX 48 48 0 0
BITMAP
ffffffffffff
ffffffffffff
ffffffffffff
ffffffffffff
ffffffffffff
ffffffffffff
000000000000
000000000000
000000000000
000000000000
000000000000
000000000000
fffffffc0000
fffffffc0000
fffffffc0000
fffffffc0000
fffffffc0000
fffffffc0000
000000000000
000000000000
000000000000
000000000000
000000000000
000000000000
000000000000
000000000000
000000000000
000000000000
000000000000
000000000000
ffffffffffff
ffffffffffff
ffffffffffff
ffffffffffff
ffffffffffff
ffffffffffff
000000000000
000000000000
000000000000
000000000000
000000000000
000000000000
fffffffff01e
fffffffff03f
fffffffff03f
fffffffff03f
fffffffff03f
fffffffff01e
ENDCHAR
STARTCHAR /home/kraus/git/open-iconic/png/credit-card-6x.png
ENCODING 139
DWIDTH 48 0
BBX 48 48 0 0
BITMAP
000000000000
000000000000
000000000000
000000000000
000000000000
000000000000
ffffffffffff
ffffffffffff
ffffffffffff
ffffffffffff
ffffffffffff
ffffffffffff
000000000000
000000000000
000000000000
000000000000
000000000000
000000000000
ffffffffffff
ffffffffffff
ffffffffffff
ffffffffffff
ffffffffffff
ffffffffffff
ffffffffffff
ffffffffffff
ffffffffffff
ffffffffffff
ffffffffffff
ffffffffffff
fc0fc0ffffff
fc0fc0ffffff
fc0fc0ffffff
fc0fc0ffffff
fc0fc0ffffff
fc0fc0ffffff
ffffffffffff
ffffffffffff
ffffffffffff
ffffffffffff
ffffffffffff
ffffffffffff
000000000000
000000000000
000000000000
000000000000
000000000000
000000000000
ENDCHAR
STARTCHAR /home/kraus/git/open-iconic/png/crop-6x.png
ENCODING 140
DWIDTH 48 0
BBX 48 48 0 0
BITMAP
03f000000000
03f00000000c
03f00000001e
03f00000003e
03f00000007c
03f0000000f8
fffffffffff0
ffffffffffe0
ffffffffffc0
ffffffffffc0
ffffffffffc0
ffffffffffc0
03f000007fc0
03f00000ffc0
03f00001ffc0
03f00003efc0
03f00007cfc0
03f0000f8fc0
03f0001f0fc0
03f0003e0fc0
03f0007c0fc0
03f000f80fc0
03f001f00fc0
03f003e00fc0
03f007c00fc0
03f00f800fc0
03f01f000fc0
03f03e000fc0
03f07c000fc0
03f0f8000fc0
03f1f0000fc0
03f3e0000fc0
03f7c0000fc0
03ff80000fc0
03ff00000fc0
03fe00000fc0
03ffffffffff
03ffffffffff
03ffffffffff
03ffffffffff
03ffffffffff
03ffffffffff
000000000fc0
000000000fc0
000000000fc0
000000000fc0
000000000fc0
000000000fc0
ENDCHAR
STARTCHAR /home/kraus/git/open-iconic/png/dashboard-6x.png
ENCODING 141
DWIDTH 48 0
BBX 48 48 0 0
BITMAP
00001ff80000
0000ffff0000
0007ffffe000
000ffffff000
003ffffffc00
007ffffffe00
00fff00fff00
01ff8001ff80
03fe00007fc0
07f800001fe0
0ff000000ff0
0fe0000007f0
1fc003c003f8
3f8007e001fc
3f8007e001fc
3f0007e000fc
7f0007e000fe
7e0003c0007e
7e078001e07e
fe0fc003f07f
fc0fe003f03f
fc0ff003f03f
fc0ff803f03f
fc07fc01e03f
fc03ffc0003f
fc01fff0003f
fc00fff8003f
fc007ff8003f
fe003ffc007f
7e003ffc007e
7e003ffc007e
7f003ffc00fe
3f001ff800fc
3f801ff801fc
3f800ff001fc
1fc003c003f8
0fe0000007f0
0ff000000ff0
07f800001fe0
03fe00007fc0
01ff8001ff80
00fff00fff00
007ffffffe00
003ffffffc00
000ffffff000
0007ffffe000
0000ffff0000
00001ff80000
ENDCHAR
STARTCHAR /home/kraus/git/open-iconic/png/data-transfer-download-6x.png
ENCODING 142
DWIDTH 48 0
BBX 48 48 0 0
BITMAP
00003ffc0000
00003ffc0000
00003ffc0000
00003ffc0000
00003ffc0000
00003ffc0000
00003ffc0000
00003ffc0000
00003ffc0000
00003ffc0000
00003ffc0000
00003ffc0000
00003ffc0000
00003ffc0000
00003ffc0000
00003ffc0000
00003ffc0000
00003ffc0000
01ffffffff80
00ffffffff00
007ffffffe00
003ffffffc00
001ffffff800
000ffffff000
0007ffffe000
0003ffffc000
0001ffff8000
0000ffff0000
00007ffe0000
00003ffc0000
00001ff80000
00000ff00000
000007e00000
000003c00000
000001800000
000000000000
000000000000
000000000000
000000000000
000000000000
000000000000
000000000000
ffffffffffff
ffffffffffff
ffffffffffff
ffffffffffff
ffffffffffff
ffffffffffff
ENDCHAR
STARTCHAR /home/kraus/git/open-iconic/png/data-transfer-upload-6x.png
ENCODING 143
DWIDTH 48 0
BBX 48 48 0 0
BITMAP
ffffffffffff
ffffffffffff
ffffffffffff
ffffffffffff
ffffffffffff
ffffffffffff
000000000000
000000000000
000000000000
000000000000
000000000000
000000000000
000000000000
000001800000
000003c00000
000007e00000
00000ff00000
00001ff80000
00003ffc0000
00007ffe0000
0000ffff0000
0001ffff8000
0003ffffc000
0007ffffe000
000ffffff000
001ffffff800
003ffffffc00
007ffffffe00
00ffffffff00
01ffffffff80
00003ffc0000
00003ffc0000
00003ffc0000
00003ffc0000
00003ffc0000
00003ffc0000
00003ffc0000
00003ffc0000
00003ffc0000
00003ffc0000
00003ffc0000
00003ffc0000
00003ffc0000
00003ffc0000
00003ffc0000
00003ffc0000
00003ffc0000
00003ffc0000
ENDCHAR
STARTCHAR /home/kraus/git/open-iconic/png/delete-6x.png
ENCODING 144
DWIDTH 48 0
BBX 48 48 0 0
BITMAP
000000000000
000000000000
000000000000
000000000000
000000000000
000000000000
000fffffffff
001fffffffff
003fffffffff
003fffffffff
007fffffffff
00fff3fffcff
00ffe1fff87f
01ffc0fff03f
03ff807fe01f
03ff803fc01f
07ffc01f803f
0fffe00f007f
0ffff00600ff
1ffff80001ff
3ffffc0003ff
3ffffe0007ff
7fffff000fff
ffffff801fff
ffffff801fff
7fffff000fff
3ffffe0007ff
3ffffc0003ff
1ffff80001ff
0ffff00600ff
0fffe00f007f
07ffc01f803f
03ff803fc01f
03ff807fe01f
01ffc0fff03f
00ffe1fff87f
00fff3fffcff
007fffffffff
003fffffffff
003fffffffff
001fffffffff
000fffffffff
000000000000
000000000000
000000000000
000000000000
000000000000
000000000000
ENDCHAR
STARTCHAR /home/kraus/git/open-iconic/png/dial-6x.png
ENCODING 145
DWIDTH 48 0
BBX 48 48 0 0
BITMAP
000000000000
000000000000
000000000000
000000000000
000000000000
000000000000
00001ff80000
0000ffff0000
0007ffffe000
000ffffff000
003ffffffc00
007ffffffe00
00fff00fff00
01ff8001ff80
03fe00007fc0
07f800001fe0
0ff000000ff0
0fe0000007f0
1fc0000003f8
3f80381c01fc
3f807c3e01fc
3f00fc3f00fc
7f01fe7f80fe
7e03ffffc07e
7e07ffffe07e
fe07ffffe07f
fc07ffffe03f
fc0ffffff03f
fc0ffffff03f
fc0ffffff03f
000ffffff000
000ffffff000
000ffffff000
0007ffffe000
0007ffffe000
0007ffffe000
0003ffffc000
0001ffff8000
0000ffff0000
00007ffe0000
00003ffc0000
000007e00000
000000000000
000000000000
000000000000
000000000000
000000000000
000000000000
ENDCHAR
STARTCHAR /home/kraus/git/open-iconic/png/document-6x.png
ENCODING 146
DWIDTH 48 0
BBX 48 48 0 0
BITMAP
ffffc0000000
ffffc0800000
ffffc0c00000
ffffc0e00000
ffffc0f00000
ffffc0f80000
ffffc0fc0000
ffffc0fe0000
ffffc0ff0000
ffffc0ff8000
ffffc0ffc000
ffffc0ffe000
fc0fc0fff000
fc0fc0fff800
fc0fc0fffc00
fc0fc0fffe00
fc0fc0ffff00
fc0fc0ffff80
ffffc0000000
ffffc0000000
ffffc0000000
ffffc0000000
ffffc0000000
ffffc0000000
fc0fffffffc0
fc0fffffffc0
fc0fffffffc0
fc0fffffffc0
fc0fffffffc0
fc0fffffffc0
ffffffffffc0
ffffffffffc0
ffffffffffc0
ffffffffffc0
ffffffffffc0
ffffffffffc0
fc000003ffc0
fc000003ffc0
fc000003ffc0
fc000003ffc0
fc000003ffc0
fc000003ffc0
ffffffffffc0
ffffffffffc0
ffffffffffc0
ffffffffffc0
ffffffffffc0
ffffffffffc0
ENDCHAR
STARTCHAR /home/kraus/git/open-iconic/png/dollar-6x.png
ENCODING 147
DWIDTH 48 0
BBX 48 48 0 0
BITMAP
00003f000000
00003f000000
00003f000000
00003f000000
00003f000000
00003f000000
001fffff0000
007fffffc000
00ffffffe000
01ffffffe000
01fffffff000
03fffffff000
03f00003f000
03f00003f000
03f00003f000
03f00003f000
03f00003f000
03f00003f000
03f800000000
01fe00000000
01ffe0000000
00fffe000000
00ffffe00000
007ffffe0000
001fffff0000
0001ffffc000
00001fffc000
000003ffe000
0000003fe000
00000007f000
03f00003f000
03f00003f000
03f00003f000
03f00003f000
03f00003f000
03f00003f000
03fffffff000
03ffffffe000
01ffffffe000
01ffffffc000
00ffffff8000
003ffffe0000
00003f000000
00003f000000
00003f000000
00003f000000
00003f000000
00003f000000
ENDCHAR
STARTCHAR /home/kraus/git/open-iconic/png/double-quote-sans-left-6x.png
ENCODING 148
DWIDTH 48 0
BBX 48 48 0 0
BITMAP
000000000000
000000000000
000000000000
000000000000
000000000000
000000000000
ffffc003ffff
ffffc003ffff
ffffc003ffff
ffffc003ffff
ffffc003ffff
ffffc003ffff
ffffc003ffff
ffffc003ffff
ffffc003ffff
ffffc003ffff
ffffc003ffff
ffffc003ffff
ffffc003ffff
ffffc003ffff
ffffc003ffff
ffffc003ffff
ffffc003ffff
ffffc003ffff
ffff8003fffe
ffff0003fffc
fffe0003fff8
fffc0003fff0
fff80003ffe0
fff00003ffc0
ffe00003ff80
ffc00003ff00
ff800003fe00
ff000003fc00
fe000003f800
fc000003f000
f8000003e000
f0000003c000
e00000038000
c00000030000
800000020000
000000000000
000000000000
000000000000
000000000000
000000000000
000000000000
000000000000
ENDCHAR
STARTCHAR /home/kraus/git/open-iconic/png/double-quote-sans-right-6x.png
ENCODING 149
DWIDTH 48 0
BBX 48 48 0 0
BITMAP
000000000000
000000000000
000000000000
000000000000
000000000000
000000000000
000000000000
000040000001
0000c0000003
0001c0000007
0003c000000f
0007c000001f
000fc000003f
001fc000007f
003fc00000ff
007fc00001ff
00ffc00003ff
01ffc00007ff
03ffc0000fff
07ffc0001fff
0fffc0003fff
1fffc0007fff
3fffc000ffff
7fffc001ffff
ffffc003ffff
ffffc003ffff
ffffc003ffff
ffffc003ffff
ffffc003ffff
ffffc003ffff
ffffc003ffff
ffffc003ffff
ffffc003ffff
ffffc003ffff
ffffc003ffff
ffffc003ffff
ffffc003ffff
ffffc003ffff
ffffc003ffff
ffffc003ffff
ffffc003ffff
ffffc003ffff
000000000000
000000000000
000000000000
000000000000
000000000000
000000000000
ENDCHAR
STARTCHAR /home/kraus/git/open-iconic/png/double-quote-serif-left-6x.png
ENCODING 150
DWIDTH 48 0
BBX 48 48 0 0
BITMAP
000000000000
000000000000
000000000000
000000000000
000000000000
000000000000
0003c000000f
001fc000007f
007fc00001ff
01ffc00007ff
03ffc0000fff
07ffc0001fff
0ffe00003ff8
1ff000007fc0
1fe000007f80
3fc00000ff00
3f800000fe00
7f000001fc00
7e000001f800
7e000001f800
fe000003f800
fc000003f000
fc000003f000
fc000003f000
ffffc003ffff
ffffc003ffff
ffffc003ffff
ffffc003ffff
ffffc003ffff
ffffc003ffff
ffffc003ffff
ffffc003ffff
ffffc003ffff
ffffc003ffff
ffffc003ffff
ffffc003ffff
ffffc003ffff
ffffc003ffff
ffffc003ffff
ffffc003ffff
ffffc003ffff
ffffc003ffff
000000000000
000000000000
000000000000
000000000000
000000000000
000000000000
ENDCHAR
STARTCHAR /home/kraus/git/open-iconic/png/double-quote-serif-right-6x.png
ENCODING 151
DWIDTH 48 0
BBX 48 48 0 0
BITMAP
000000000000
000000000000
000000000000
000000000000
000000000000
000000000000
ffffc003ffff
ffffc003ffff
ffffc003ffff
ffffc003ffff
ffffc003ffff
ffffc003ffff
ffffc003ffff
ffffc003ffff
ffffc003ffff
ffffc003ffff
ffffc003ffff
ffffc003ffff
ffffc003ffff
ffffc003ffff
ffffc003ffff
ffffc003ffff
ffffc003ffff
ffffc003ffff
000fc000003f
000fc000003f
000fc000003f
001fc000007f
001f8000007e
001f8000007e
003f800000fe
007f000001fc
00ff000003fc
01fe000007f8
03fe00000ff8
1ffc00007ff0
fff80003ffe0
fff00003ffc0
ffe00003ff80
ff800003fe00
fe000003f800
f0000003c000
000000000000
000000000000
000000000000
000000000000
000000000000
000000000000
ENDCHAR
STARTCHAR /home/kraus/git/open-iconic/png/droplet-6x.png
ENCODING 152
DWIDTH 48 0
BBX 48 48 0 0
BITMAP
000000000000
000003800000
000003c00000
000007e00000
00000ff00000
00001ff80000
00003ffc0000
00007ffe0000
0000ffff0000
0000ffff0000
0001ffff8000
0003ffffc000
0007ffffe000
0007ffffe000
000ffffff000
001ffffff800
001ffffff800
003ffffffc00
003ffffffc00
007ffffffe00
007ffffffe00
00ffffffff00
00ffffffff00
00ffffffff00
01ffffffff80
01ffffffff80
01ffffffff80
03ffffffffc0
03fcffffffc0
03f87fffffc0
03f03fffffc0
03f03fffffc0
03f03fffffc0
03f03fffffc0
03f01fffffc0
01f80fffff80
01f807ffff80
01fc007fff80
00fc003fff00
00fe001fff00
007f001ffe00
007fc01ffe00
003ff03ffc00
001ffffff800
000ffffff000
0007ffffe000
0003ffffc000
0000ffff0000
ENDCHAR
STARTCHAR /home/kraus/git/open-iconic/png/eject-6x.png
ENCODING 153
DWIDTH 48 0
BBX 48 48 0 0
BITMAP
000000000000
000001800000
000003c00000
000007e00000
00000ff00000
00000ff00000
00001ff80000
00003ffc0000
00007ffe0000
0000ffff0000
0000ffff0000
0001ffff8000
0003ffffc000
0007ffffe000
000ffffff000
000ffffff000
001ffffff800
003ffffffc00
007ffffffe00
00ffffffff00
00ffffffff00
01ffffffff80
03ffffffffc0
07ffffffffe0
0ffffffffff0
0ffffffffff0
1ffffffffff8
3ffffffffffc
7ffffffffffe
ffffffffffff
000000000000
000000000000
000000000000
000000000000
000000000000
000000000000
ffffffffffff
ffffffffffff
ffffffffffff
ffffffffffff
ffffffffffff
ffffffffffff
ffffffffffff
ffffffffffff
ffffffffffff
ffffffffffff
ffffffffffff
ffffffffffff
ENDCHAR
STARTCHAR /home/kraus/git/open-iconic/png/elevator-6x.png
ENCODING 154
DWIDTH 48 0
BBX 48 48 0 0
BITMAP
000000000000
000001800000
000003c00000
000007e00000
00000ff00000
00001ff80000
00003ffc0000
00007ffe0000
0000ffff0000
0001ffff8000
0003ffffc000
0007ffffe000
000ffffff000
001ffffff800
003ffffffc00
007ffffffe00
00ffffffff00
01ffffffff80
000000000000
000000000000
000000000000
000000000000
000000000000
000000000000
000000000000
000000000000
000000000000
000000000000
000000000000
000000000000
01ffffffff80
00ffffffff00
007ffffffe00
003ffffffc00
001ffffff800
000ffffff000
0007ffffe000
0003ffffc000
0001ffff8000
0000ffff0000
00007ffe0000
00003ffc0000
00001ff80000
00000ff00000
000007e00000
000003c00000
000001800000
000000000000
ENDCHAR
STARTCHAR /home/kraus/git/open-iconic/png/ellipses-6x.png
ENCODING 155
DWIDTH 48 0
BBX 48 48 0 0
BITMAP
000000000000
000000000000
000000000000
000000000000
000000000000
000000000000
000000000000
000000000000
000000000000
000000000000
000000000000
000000000000
000000000000
000000000000
000000000000
000000000000
000000000000
000000000000
fff03ffc0fff
fff03ffc0fff
fff03ffc0fff
fff03ffc0fff
fff03ffc0fff
fff03ffc0fff
fff03ffc0fff
fff03ffc0fff
fff03ffc0fff
fff03ffc0fff
fff03ffc0fff
fff03ffc0fff
000000000000
000000000000
000000000000
000000000000
000000000000
000000000000
000000000000
000000000000
000000000000
000000000000
000000000000
000000000000
000000000000
000000000000
000000000000
000000000000
000000000000
000000000000
ENDCHAR
STARTCHAR /home/kraus/git/open-iconic/png/envelope-closed-6x.png
ENCODING 156
DWIDTH 48 0
BBX 48 48 0 0
BITMAP
000000000000
000000000000
000000000000
000000000000
000000000000
000000000000
ffffffffffff
ffffffffffff
ffffffffffff
ffffffffffff
ffffffffffff
ffffffffffff
7ffffffffffe
1ffffffffff8
07ffffffffe0
01ffffffff80
007ffffffe00
001ffffff800
8007ffffe001
e001ffff8007
f8007ffe001f
fe001ff8007f
ff8007e001ff
ffe0018007ff
fff800001fff
fffe00007fff
ffff8001ffff
ffffe007ffff
fffff81fffff
fffffe7fffff
ffffffffffff
ffffffffffff
ffffffffffff
ffffffffffff
ffffffffffff
ffffffffffff
ffffffffffff
ffffffffffff
ffffffffffff
ffffffffffff
ffffffffffff
ffffffffffff
000000000000
000000000000
000000000000
000000000000
000000000000
000000000000
ENDCHAR
STARTCHAR /home/kraus/git/open-iconic/png/envelope-open-6x.png
ENCODING 157
DWIDTH 48 0
BBX 48 48 0 0
BITMAP
000001800000
000007e00000
00001ff80000
00007ffe0000
0001ffff8000
0007ffffe000
001ffffff800
007ffe7ffe00
01fff81fff80
07ffe007ffe0
1fff8001fff8
7ffe00007ffe
fff800001fff
ffe0000007ff
ff80000001ff
fe000000007f
fc000000003f
fc000000003f
fc0ffffff03f
fc0ffffff03f
fc0ffffff03f
fc0ffffff03f
fc0ffffff03f
fc0ffffff03f
fc07ffffe03f
fc01ffff803f
fc007ffe003f
fe001ff8007f
ff8007e001ff
ffe0018007ff
fff800001fff
fffe00007fff
ffff8001ffff
ffffe007ffff
fffff81fffff
fffffe7fffff
ffffffffffff
ffffffffffff
ffffffffffff
ffffffffffff
ffffffffffff
ffffffffffff
ffffffffffff
ffffffffffff
ffffffffffff
ffffffffffff
ffffffffffff
ffffffffffff
ENDCHAR
STARTCHAR /home/kraus/git/open-iconic/png/euro-6x.png
ENCODING 158
DWIDTH 48 0
BBX 48 48 0 0
BITMAP
0000007fe000
000003fffc00
00001fffff80
00003fffff80
0000ffffff80
0001ffffff80
0003ffc03f80
0007fe000780
000ff8000180
001fe0000000
003fc0000000
003f80000000
007f00000000
007f00000000
00fe00000000
00fc00000000
01fc00000000
01f800000000
ffffffff8000
ffffffff8000
ffffffff8000
ffffffff0000
ffffffff0000
ffffffff0000
03f000000000
03f000000000
03f000000000
03f000000000
01f800000000
01f800000000
fffffffe0000
fffffffe0000
fffffffe0000
fffffffc0000
fffffffc0000
fffffffc0000
003f80000000
003fc0000000
001fe0000040
000ff80001c0
0007fe0007c0
0003ffc03fc0
0001ffffffc0
0000ffffffc0
00003fffffc0
00000fffff00
000003fffc00
0000007fe000
ENDCHAR
STARTCHAR /home/kraus/git/open-iconic/png/excerpt-6x.png
ENCODING 159
DWIDTH 48 0
BBX 48 48 0 0
BITMAP
ffffffffffc0
ffffffffffc0
ffffffffffc0
ffffffffffc0
ffffffffffc0
ffffffffffc0
000000000000
000000000000
000000000000
000000000000
000000000000
000000000000
fffffffc0000
fffffffc0000
fffffffc0000
fffffffc0000
fffffffc0000
fffffffc0000
000000000000
000000000000
000000000000
000000000000
000000000000
000000000000
ffffffffffff
ffffffffffff
ffffffffffff
ffffffffffff
ffffffffffff
ffffffffffff
000000000000
000000000000
000000000000
000000000000
000000000000
000000000000
fc0fc0fc0000
fc0fc0fc0000
fc0fc0fc0000
fc0fc0fc0000
fc0fc0fc0000
fc0fc0fc0000
000000000000
000000000000
000000000000
000000000000
000000000000
000000000000
ENDCHAR
STARTCHAR /home/kraus/git/open-iconic/png/expand-down-6x.png
ENCODING 160
DWIDTH 48 0
BBX 48 48 0 0
BITMAP
ffffffffffff
ffffffffffff
ffffffffffff
ffffffffffff
ffffffffffff
ffffffffffff
000000000000
000000000000
000000000000
000000000000
000000000000
000000000000
0007ffffe000
0003ffffc000
0001ffff8000
0000ffff0000
00007ffe0000
00003ffc0000
00001ff80000
00000ff00000
000007e00000
000003c00000
000001800000
000000000000
000000000000
000000000000
000000000000
000000000000
000000000000
000000000000
000000000000
000000000000
000000000000
000000000000
000000000000
000000000000
ffffffffffff
ffffffffffff
ffffffffffff
ffffffffffff
ffffffffffff
ffffffffffff
ffffffffffff
ffffffffffff
ffffffffffff
ffffffffffff
ffffffffffff
ffffffffffff
ENDCHAR
STARTCHAR /home/kraus/git/open-iconic/png/expand-left-6x.png
ENCODING 161
DWIDTH 48 0
BBX 48 48 0 0
BITMAP
fc0000000fff
fc0000000fff
fc0000000fff
fc0000000fff
fc0000000fff
fc0000000fff
fc0000000fff
fc0000000fff
fc0000000fff
fc0000000fff
fc0000000fff
fc0000000fff
fc0000000fff
fc0800000fff
fc0c00000fff
fc0e00000fff
fc0f00000fff
fc0f80000fff
fc0fc0000fff
fc0fe0000fff
fc0ff0000fff
fc0ff8000fff
fc0ffc000fff
fc0ffe000fff
fc0ffe000fff
fc0ffc000fff
fc0ff8000fff
fc0ff0000fff
fc0fe0000fff
fc0fc0000fff
fc0f80000fff
fc0f00000fff
fc0e00000fff
fc0c00000fff
fc0800000fff
fc0000000fff
fc0000000fff
fc0000000fff
fc0000000fff
fc0000000fff
fc0000000fff
fc0000000fff
fc0000000fff
fc0000000fff
fc0000000fff
fc0000000fff
fc0000000fff
fc0000000fff
ENDCHAR
STARTCHAR /home/kraus/git/open-iconic/png/expand-right-6x.png
ENCODING 162
DWIDTH 48 0
BBX 48 48 0 0
BITMAP
fff00000003f
fff00000003f
fff00000003f
fff00000003f
fff00000003f
fff00000003f
fff00000003f
fff00000003f
fff00000003f
fff00000003f
fff00000003f
fff00000003f
fff00000003f
fff00000103f
fff00000303f
fff00000703f
fff00000f03f
fff00001f03f
fff00003f03f
fff00007f03f
fff0000ff03f
fff0001ff03f
fff0003ff03f
fff0007ff03f
fff0007ff03f
fff0003ff03f
fff0001ff03f
fff0000ff03f
fff00007f03f
fff00003f03f
fff00001f03f
fff00000f03f
fff00000703f
fff00000303f
fff00000103f
fff00000003f
fff00000003f
fff00000003f
fff00000003f
fff00000003f
fff00000003f
fff00000003f
fff00000003f
fff00000003f
fff00000003f
fff00000003f
fff00000003f
fff00000003f
ENDCHAR
STARTCHAR /home/kraus/git/open-iconic/png/expand-up-6x.png
ENCODING 163
DWIDTH 48 0
BBX 48 48 0 0
BITMAP
ffffffffffff
ffffffffffff
ffffffffffff
ffffffffffff
ffffffffffff
ffffffffffff
ffffffffffff
ffffffffffff
ffffffffffff
ffffffffffff
ffffffffffff
ffffffffffff
000000000000
000000000000
000000000000
000000000000
000000000000
000000000000
000000000000
000000000000
000000000000
000000000000
000000000000
000000000000
000000000000
000001800000
000003c00000
000007e00000
00000ff00000
00001ff80000
00003ffc0000
00007ffe0000
0000ffff0000
0001ffff8000
0003ffffc000
0007ffffe000
000000000000
000000000000
000000000000
000000000000
000000000000
000000000000
ffffffffffff
ffffffffffff
ffffffffffff
ffffffffffff
ffffffffffff
ffffffffffff
ENDCHAR
STARTCHAR /home/kraus/git/open-iconic/png/external-link-6x.png
ENCODING 164
DWIDTH 48 0
BBX 48 48 0 0
BITMAP
fff0007fffff
fff0003fffff
fff0001fffff
fff0000fffff
fff00007ffff
fff00003ffff
fc000001ffff
fc000000ffff
fc0000007fff
fc0000007fff
fc000000ffff
fc000001ffff
fc000003ffff
fc000007ffff
fc00000fffff
fc00001ffcff
fc00003ff87f
fc00007ff03f
fc0000ffe01f
fc0001ffc00f
fc0003ff8007
fc0007ff0003
fc000ffe0001
fc001ffc0000
fc001ff80000
fc000ff00000
fc0007e00000
fc0003c00000
fc0001800000
fc0000000000
fc0000000000
fc0000000000
fc0000000000
fc0000000000
fc0000000000
fc0000000000
fc000000003f
fc000000003f
fc000000003f
fc000000003f
fc000000003f
fc000000003f
ffffffffffff
ffffffffffff
ffffffffffff
ffffffffffff
ffffffffffff
ffffffffffff
ENDCHAR
STARTCHAR /home/kraus/git/open-iconic/png/eye-6x.png
ENCODING 165
DWIDTH 48 0
BBX 48 48 0 0
BITMAP
000000000000
000000000000
000000000000
000000000000
000000000000
000000000000
00000ff00000
00007ffe0000
0001ffffc000
0007ffffe000
001ffffff800
003ffffffc00
007ff81ffe00
00ffc003ff00
01ff8001ff80
03ff0000ffc0
07fe00007fe0
0ffc00003ff0
0ff803801ff0
1ff80f001ff8
3ff81f001ffc
7ff01f000ffe
7ff03f000ffe
fff03f840fff
fff03ffc0fff
7ff03ffc0ffe
7ff01ff80ffe
3ff81ff81ffc
1ff80ff01ff8
0ff803c01ff0
0ffc00003ff0
07fe00007fe0
03ff0000ffc0
01ff8001ff80
00ffc003ff00
007ff81ffe00
003ffffffc00
001ffffff800
0007ffffe000
0001ffffc000
00007ffe0000
00000ff00000
000000000000
000000000000
000000000000
000000000000
000000000000
000000000000
ENDCHAR
STARTCHAR /home/kraus/git/open-iconic/png/eyedropper-6x.png
ENCODING 166
DWIDTH 48 0
BBX 48 48 0 0
BITMAP
00001e000fc0
00003f003ff0
00003f807ff8
00003fc0fffc
00003fe1fffe
00001ff3fffe
00000fffffff
000007ffffff
000003ffffff
000003ffffff
000007ffffff
00000fffffff
00001ffffffe
00003fdffffe
00007f8ffffc
0000ff07fff8
0001fe03fff0
0003fc01ffe0
0007f800ffc0
000ff0007fc0
001fe0003fe0
003fe0003ff0
007fc0007ff8
00ff8000fffc
01ff0001fffe
03fe0003ffff
07fc0007fcff
0ff8000ff87f
1ff0001ff03f
3fe0003fe01e
7fc0007fc000
ff8000ff8000
ff0001ff0000
ff8003fe0000
ffc007fc0000
ffe00ff80000
fff01ff00000
fff83fe00000
fffc7fc00000
fffeff800000
ffffff000000
fffffe000000
fffffc000000
fffff8000000
fffff0000000
ffffe0000000
ffffc0000000
ffff80000000
ENDCHAR
STARTCHAR /home/kraus/git/open-iconic/png/file-6x.png
ENCODING 167
DWIDTH 48 0
BBX 48 48 0 0
BITMAP
ffffc0000000
ffffc0800000
ffffc0c00000
ffffc0e00000
ffffc0f00000
ffffc0f80000
ffffc0fc0000
ffffc0fe0000
ffffc0ff0000
ffffc0ff8000
ffffc0ffc000
ffffc0ffe000
ffffc0fff000
ffffc0fff800
ffffc0fffc00
ffffc0fffe00
ffffc0ffff00
ffffc0ffff80
ffffc0000000
ffffc0000000
ffffc0000000
ffffc0000000
ffffc0000000
ffffc0000000
ffffffffffc0
ffffffffffc0
ffffffffffc0
ffffffffffc0
ffffffffffc0
ffffffffffc0
ffffffffffc0
ffffffffffc0
ffffffffffc0
ffffffffffc0
ffffffffffc0
ffffffffffc0
ffffffffffc0
ffffffffffc0
ffffffffffc0
ffffffffffc0
ffffffffffc0
ffffffffffc0
ffffffffffc0
ffffffffffc0
ffffffffffc0
ffffffffffc0
ffffffffffc0
ffffffffffc0
ENDCHAR
STARTCHAR /home/kraus/git/open-iconic/png/fire-6x.png
ENCODING 168
DWIDTH 48 0
BBX 48 48 0 0
BITMAP
000800000000
000400000000
000700000000
000780000000
0007c0000000
0007e0000000
0007f0000000
0007f8000000
000ff8000000
000ffc000000
001ffc000000
001ffe000000
003ffe000000
007ffe000000
007fff000000
00ffff000000
01ffff000000
03ffff000000
07ffff020000
07ffff010000
0fffff01c000
1ffffe01e000
3ffffe01f000
3ffffe01f800
7ffffc01fc00
7ffffc01fe00
7ffff803fe00
fffff003ff00
fffff007ff00
ffffe007ff80
ffffc00fff80
ffff801fff80
ffff001fffc0
fffe003fffc0
7ffe007fffc0
7ffc00ffffc0
7ff801ffffc0
3ff801ffffc0
3ff003ffffc0
1ff007ffffc0
1fe00fffffc0
0fe00fffff80
07e01fffff80
03e01fffff80
01e01fffff00
00e03fffff00
00203ffffe00
00103ffffc00
ENDCHAR
STARTCHAR /home/kraus/git/open-iconic/png/flag-6x.png
ENCODING 169
DWIDTH 48 0
BBX 48 48 0 0
BITMAP
fc0ffffc0000
fc0ffffc0000
fc0ffffc0000
fc0ffffc0000
fc0ffffc0000
fc0ffffc0000
fc0ffffffffe
fc0ffffffffe
fc0ffffffffc
fc0ffffffff8
fc0ffffffff0
fc0fffffffe0
fc0fffffffc0
fc0fffffff80
fc0fffffff00
fc0ffffffe00
fc0ffffffc00
fc0ffffff800
fc0ffffff000
fc0ffffff800
fc0ffffffc00
fc0ffffffe00
fc0fffffff00
fc0fffffff80
fc0000ffffc0
fc0000ffffe0
fc0000fffff0
fc0000fffff8
fc0000fffffc
fc0000fffffe
fc0000000000
fc0000000000
fc0000000000
fc0000000000
fc0000000000
fc0000000000
fc0000000000
fc0000000000
fc0000000000
fc0000000000
fc0000000000
fc0000000000
fc0000000000
fc0000000000
fc0000000000
fc0000000000
fc0000000000
fc0000000000
ENDCHAR
STARTCHAR /home/kraus/git/open-iconic/png/flash-6x.png
ENCODING 170
DWIDTH 48 0
BBX 48 48 0 0
BITMAP
000007fc0000
00000ff80000
00000ff80000
00001ff00000
00001ff00000
00003fe00000
00003fe00000
00007fc00000
00007fc00000
0000ff800000
0000ff800000
0001ff000000
0001fffff000
0003ffffe000
0003ffffe000
0007ffffc000
0007ffffc000
000fffff8000
000000ff8000
000000ff0000
000001ff0000
000001fe0000
000001fe0000
000003fc0000
000003fc0000
000003f80000
000007f80000
000007f00000
000007f00000
00000fe00000
000fffffe000
000fffffc000
0007ffff8000
0007ffff0000
0007fffe0000
0003fffc0000
0003fff80000
0003fff00000
0001ffe00000
0001ffc00000
0001ff800000
0000ff000000
0000fe000000
0000fc000000
000078000000
000070000000
000060000000
000000000000
ENDCHAR
STARTCHAR /home/kraus/git/open-iconic/png/folder-6x.png
ENCODING 171
DWIDTH 48 0
BBX 48 48 0 0
BITMAP
ffffc0000000
ffffc0000000
ffffc0000000
ffffc0000000
ffffc0000000
ffffc0000000
ffffffffffff
ffffffffffff
ffffffffffff
ffffffffffff
ffffffffffff
ffffffffffff
000000000000
000000000000
000000000000
000000000000
000000000000
000000000000
ffffffffffff
ffffffffffff
ffffffffffff
ffffffffffff
ffffffffffff
ffffffffffff
ffffffffffff
ffffffffffff
ffffffffffff
ffffffffffff
ffffffffffff
ffffffffffff
ffffffffffff
ffffffffffff
ffffffffffff
ffffffffffff
ffffffffffff
ffffffffffff
ffffffffffff
ffffffffffff
ffffffffffff
ffffffffffff
ffffffffffff
ffffffffffff
ffffffffffff
ffffffffffff
ffffffffffff
ffffffffffff
ffffffffffff
7ffffffffffe
ENDCHAR
STARTCHAR /home/kraus/git/open-iconic/png/fork-6x.png
ENCODING 172
DWIDTH 48 0
BBX 48 48 0 0
BITMAP
03f00003f000
0ffc000ffc00
1ffe001ffe00
3fff003fff00
7fff807fff80
7fff807fff80
ffffc0ffffc0
ffffc0ffffc0
ffffc0ffffc0
ffffc0ffffc0
ffffc0ffffc0
ffffc0ffffc0
7fff807fff80
7fff807fff80
3fff003fff00
1ffe001ffe00
0ffc000ffc00
03f00003f000
03f00003f000
03f00003f000
03f00003f000
03f00003f000
03f00003f000
03f00007f000
03ffffffe000
03ffffffe000
03ffffffc000
03ffffff8000
03ffffff0000
03fffffc0000
03fc00000000
0ffc00000000
1ffe00000000
3fff00000000
7fff80000000
7fff80000000
ffffc0000000
ffffc0000000
ffffc0000000
ffffc0000000
ffffc0000000
ffffc0000000
7fff80000000
7fff80000000
3fff00000000
1ffe00000000
0ffc00000000
03f000000000
ENDCHAR
STARTCHAR /home/kraus/git/open-iconic/png/fullscreen-enter-6x.png
ENCODING 173
DWIDTH 48 0
BBX 48 48 0 0
BITMAP
fffffe000000
fffffc000000
fffff8000000
fffff0000000
ffffe0000000
ffffc0000000
ffff80000000
ffff00000000
fffe00000000
fffe00000000
ffff00000000
ffff80000000
ffffc0000000
ffffe0000000
fffff0000000
ff3ff8000000
fe1ffc000000
fc0ffe000000
f807fe000000
f003fc000000
e001f8000000
c000f0000000
800060000000
000000000000
000000000000
000000060001
0000000f0003
0000001f8007
0000003fc00f
0000007fe01f
0000007ff03f
0000003ff87f
0000001ffcff
0000000fffff
00000007ffff
00000003ffff
00000001ffff
00000000ffff
000000007fff
000000007fff
00000000ffff
00000001ffff
00000003ffff
00000007ffff
0000000fffff
0000001fffff
0000003fffff
0000007fffff
ENDCHAR
STARTCHAR /home/kraus/git/open-iconic/png/fullscreen-exit-6x.png
ENCODING 174
DWIDTH 48 0
BBX 48 48 0 0
BITMAP
000000000000
060001000000
0f0003000000
1f8007000000
3fc00f000000
7fe01f000000
7ff03f000000
3ff87f000000
1ffcff000000
0fffff000000
07ffff000000
03ffff000000
01ffff000000
00ffff000000
007fff000000
007fff000000
00ffff000000
01ffff000000
03ffff000000
07ffff000000
0fffff000000
1fffff000000
3fffff000000
7fffff000000
000000fffffe
000000fffffc
000000fffff8
000000fffff0
000000ffffe0
000000ffffc0
000000ffff80
000000ffff00
000000fffe00
000000fffe00
000000ffff00
000000ffff80
000000ffffc0
000000ffffe0
000000fffff0
000000ff3ff8
000000fe1ffc
000000fc0ffe
000000f807fe
000000f003fc
000000e001f8
000000c000f0
000000800060
000000000000
ENDCHAR
STARTCHAR /home/kraus/git/open-iconic/png/globe-6x.png
ENCODING 175
DWIDTH 48 0
BBX 48 48 0 0
BITMAP
00001ff80000
0000ffff0000
0007ffffe000
000ffffff000
003ffffffc00
007ffffffe00
00fff00fff00
01ff8007ff80
03fe000fffc0
07ff001fffe0
0fff801ffff0
0fff8007fff0
1fff8001fff8
3ffe0001e1fc
3fe0000181fc
3fe0000380fc
7fe00003f0fe
7f000001f8fe
7f000001fdfe
ff000001ffff
ff000003ffff
ff800007ffff
ff800007ffff
ffc0000fffff
fcc0001fffff
fc40001fffff
fc00001fffff
fc00001fffff
fe00001fffff
7e00000ffffe
7ff00007fffe
7ffc0000fffe
3ffe000003fc
3fff000001fc
3fff000001fc
1fff800003f8
0fff800007f0
0fffc0000ff0
07ffc0001fe0
03ffc0007fc0
01ffc001ff80
00fff00fff00
007ffffffe00
003ffffffc00
000ffffff000
0007ffffe000
0000ffff0000
00001ff80000
ENDCHAR
STARTCHAR /home/kraus/git/open-iconic/png/graph-6x.png
ENCODING 176
DWIDTH 48 0
BBX 48 48 0 0
BITMAP
000000000020
000000000070
0000000000f8
0000000001fc
0000000003fe
0000000007ff
000000000ffe
000000001ffc
000000003ff8
000000007ff0
00000000ffe0
00000001ffc0
00000003ff80
00006007ff00
0000f00ffe00
0001f81ffc00
0003fc3ff800
0007fe7ff000
000fffffe000
001fffffc000
003fffff8000
007fffff0000
00fffffe0000
01fffffc0000
03ff9ff80000
07ff0ff00000
0fff07e00000
1ffe03c00000
3ffc01800000
7ff800000000
fff000000000
7fe000000000
3fc000000000
1f8000000000
0f0000000000
060000000000
000000000000
000000000000
000000000000
000000000000
000000000000
000000000000
ffffffffffff
ffffffffffff
ffffffffffff
ffffffffffff
ffffffffffff
ffffffffffff
ENDCHAR
STARTCHAR /home/kraus/git/open-iconic/png/grid-four-up-6x.png
ENCODING 177
DWIDTH 48 0
BBX 48 48 0 0
BITMAP
fc0fc0fc0fc0
fc0fc0fc0fc0
fc0fc0fc0fc0
fc0fc0fc0fc0
fc0fc0fc0fc0
fc0fc0fc0fc0
000000000000
000000000000
000000000000
000000000000
000000000000
000000000000
fc0fc0fc0fc0
fc0fc0fc0fc0
fc0fc0fc0fc0
fc0fc0fc0fc0
fc0fc0fc0fc0
fc0fc0fc0fc0
000000000000
000000000000
000000000000
000000000000
000000000000
000000000000
fc0fc0fc0fc0
fc0fc0fc0fc0
fc0fc0fc0fc0
fc0fc0fc0fc0
fc0fc0fc0fc0
fc0fc0fc0fc0
000000000000
000000000000
000000000000
000000000000
000000000000
000000000000
fc0fc0fc0fc0
fc0fc0fc0fc0
fc0fc0fc0fc0
fc0fc0fc0fc0
fc0fc0fc0fc0
fc0fc0fc0fc0
000000000000
000000000000
000000000000
000000000000
000000000000
000000000000
ENDCHAR
STARTCHAR /home/kraus/git/open-iconic/png/grid-three-up-6x.png
ENCODING 178
DWIDTH 48 0
BBX 48 48 0 0
BITMAP
fff03ffc0fff
fff03ffc0fff
fff03ffc0fff
fff03ffc0fff
fff03ffc0fff
fff03ffc0fff
fff03ffc0fff
fff03ffc0fff
fff03ffc0fff
fff03ffc0fff
fff03ffc0fff
fff03ffc0fff
000000000000
000000000000
000000000000
000000000000
000000000000
000000000000
fff03ffc0fff
fff03ffc0fff
fff03ffc0fff
fff03ffc0fff
fff03ffc0fff
fff03ffc0fff
fff03ffc0fff
fff03ffc0fff
fff03ffc0fff
fff03ffc0fff
fff03ffc0fff
fff03ffc0fff
000000000000
000000000000
000000000000
000000000000
000000000000
000000000000
fff03ffc0fff
fff03ffc0fff
fff03ffc0fff
fff03ffc0fff
fff03ffc0fff
fff03ffc0fff
fff03ffc0fff
fff03ffc0fff
fff03ffc0fff
fff03ffc0fff
fff03ffc0fff
fff03ffc0fff
ENDCHAR
STARTCHAR /home/kraus/git/open-iconic/png/grid-two-up-6x.png
ENCODING 179
DWIDTH 48 0
BBX 48 48 0 0
BITMAP
ffffc003ffff
ffffc003ffff
ffffc003ffff
ffffc003ffff
ffffc003ffff
ffffc003ffff
ffffc003ffff
ffffc003ffff
ffffc003ffff
ffffc003ffff
ffffc003ffff
ffffc003ffff
ffffc003ffff
ffffc003ffff
ffffc003ffff
ffffc003ffff
ffffc003ffff
ffffc003ffff
000000000000
000000000000
000000000000
000000000000
000000000000
000000000000
000000000000
000000000000
000000000000
000000000000
000000000000
000000000000
ffffc003ffff
ffffc003ffff
ffffc003ffff
ffffc003ffff
ffffc003ffff
ffffc003ffff
ffffc003ffff
ffffc003ffff
ffffc003ffff
ffffc003ffff
ffffc003ffff
ffffc003ffff
ffffc003ffff
ffffc003ffff
ffffc003ffff
ffffc003ffff
ffffc003ffff
ffffc003ffff
ENDCHAR
STARTCHAR /home/kraus/git/open-iconic/png/hard-drive-6x.png
ENCODING 180
DWIDTH 48 0
BBX 48 48 0 0
BITMAP
ffffffffffc0
ffffffffffc0
ffffffffffc0
ffffffffffc0
ffffffffffc0
ffffffffffc0
ffffffffffc0
ffffffffffc0
ffffffffffc0
ffffffffffc0
ffffffffffc0
ffffffffffc0
ffffffffffc0
ffffffffffc0
ffffffffffc0
ffffffffffc0
ffffffffffc0
ffffffffffc0
ffffffffffc0
ffffffffffc0
ffffffffffc0
ffffffffffc0
ffffffffffc0
7fffffffff80
000000000000
000000000000
000000000000
000000000000
000000000000
000000000000
ffffffffffc0
ffffffffffc0
ffffffffffc0
ffffffffffc0
ffffffffffc0
ffffffffffc0
fffffffe1fc0
fffffffc0fc0
fffffffc0fc0
fffffffc0fc0
fffffffc0fc0
fffffffe1fc0
ffffffffffc0
ffffffffffc0
ffffffffffc0
ffffffffffc0
ffffffffffc0
ffffffffffc0
ENDCHAR
STARTCHAR /home/kraus/git/open-iconic/png/header-6x.png
ENCODING 181
DWIDTH 48 0
BBX 48 48 0 0
BITMAP
ffffc0ffffc0
ffffc0ffffc0
ffffc0ffffc0
ffffc0ffffc0
ffffc0ffffc0
ffffc0ffffc0
07f80007f800
03f00003f000
03f00003f000
03f00003f000
03f00003f000
03f00003f000
03f00003f000
03f00003f000
03f00003f000
03f00003f000
03f00003f000
03f00003f000
03fffffff000
03fffffff000
03fffffff000
03fffffff000
03fffffff000
03fffffff000
03f00003f000
03f00003f000
03f00003f000
03f00003f000
03f00003f000
03f00003f000
03f00003f000
03f00003f000
03f00003f000
03f00003f000
03f00003f000
07f80007f800
ffffc0ffffc0
ffffc0ffffc0
ffffc0ffffc0
ffffc0ffffc0
ffffc0ffffc0
ffffc0ffffc0
000000000000
000000000000
000000000000
000000000000
000000000000
000000000000
ENDCHAR
STARTCHAR /home/kraus/git/open-iconic/png/headphones-6x.png
ENCODING 182
DWIDTH 48 0
BBX 48 48 0 0
BITMAP
00000ff00000
00007ffe0000
0001ffff8000
0007ffffe000
000ffffff000
001ffffff800
003ff81ffc00
007fc003fe00
007f8001fe00
00ff0000ff00
00fe00007f00
01fc00003f80
01f800001f80
01f800001f80
03f800001fc0
03f000000fc0
03f000000fc0
03f000000fc0
03f000000fc0
03f000000fc0
03f000000fc0
03f000000fc0
03f000000fc0
03f000000fc0
7ff000000ffe
fff000000fff
fff000000fff
fff000000fff
fff000000fff
fff000000fff
fff000000fff
fff000000fff
fff000000fff
fff000000fff
fff000000fff
fff000000fff
fff000000fff
fff000000fff
fff000000fff
fff000000fff
fff000000fff
7fe0000007fe
000000000000
000000000000
000000000000
000000000000
000000000000
000000000000
ENDCHAR
STARTCHAR /home/kraus/git/open-iconic/png/heart-6x.png
ENCODING 183
DWIDTH 48 0
BBX 48 48 0 0
BITMAP
000000000000
000000000000
000000000000
000000000000
000000000000
000000000000
007e00007e00
03ffc003ffc0
07ffe007ffe0
0ffff00ffff0
1ffff81ffff8
3ffffc3ffffc
7ffffe7ffffe
7ffffe7ffffe
7ffffe7ffffe
ffffffffffff
ffffffffffff
ffffffffffff
ffffffffffff
ffffffffffff
ffffffffffff
7ffffffffffe
7ffffffffffe
7ffffffffffe
3ffffffffffc
1ffffffffff8
0ffffffffff0
07ffffffffe0
03ffffffffc0
01ffffffff80
00ffffffff00
007ffffffe00
003ffffffc00
001ffffff800
000ffffff000
0007ffffe000
0003ffffc000
0001ffff8000
0000ffff0000
00007ffe0000
00003ffc0000
00001ff80000
00000ff00000
000007e00000
000003c00000
000001800000
000000000000
000000000000
ENDCHAR
STARTCHAR /home/kraus/git/open-iconic/png/home-6x.png
ENCODING 184
DWIDTH 48 0
BBX 48 48 0 0
BITMAP
000001800000
000003c00000
000007e00000
00001ff80000
00003ffc0000
00007ffe0000
0001ffff8000
0003ffffc000
0007ffffe000
001ffffff800
003ffffffc00
007ffffffe00
01ffffffff80
03ffffffffc0
07ffffffffe0
1ffffffffff8
3ffffffffffc
7ffffffffffe
03ffffffffc0
03ffffffffc0
03ffffffffc0
03ffffffffc0
03ffffffffc0
03ffffffffc0
03ffffffffc0
03ffffffffc0
03ffffffffc0
03ffffffffc0
03ffffffffc0
03ffffffffc0
03ffc003ffc0
03ffc003ffc0
03ffc003ffc0
03ffc003ffc0
03ffc003ffc0
03ffc003ffc0
03ffc003ffc0
03ffc003ffc0
03ffc003ffc0
03ffc003ffc0
03ffc003ffc0
03ffc003ffc0
000000000000
000000000000
000000000000
000000000000
000000000000
000000000000
ENDCHAR
STARTCHAR /home/kraus/git/open-iconic/png/image-6x.png
ENCODING 185
DWIDTH 48 0
BBX 48 48 0 0
BITMAP
ffffffffffff
ffffffffffff
ffffffffffff
ffffffffffff
ffffffffffff
ffffffffffff
fc000000003f
fc000000003f
fc000000003f
fc000000003f
fc000000003f
fc000000003f
fc000000003f
fc000000003f
fc000000003f
fc000000003f
fc000000003f
fc000000003f
fc000000003f
fc180000183f
fc3c00003c3f
fc7e00007e3f
fcff0000ff3f
fdff8001ffbf
ffffc001ffff
ffffe000ffff
fffff0007fff
fffff8003fff
fffffc001fff
fffffe000fff
ffffff0007ff
ffffff8003ff
ffffffc001ff
ffffffe000ff
fffffff0007f
fffffff8003f
fffffffc003f
fffffffe003f
ffffffff003f
ffffffff803f
ffffffffc03f
ffffffffe03f
ffffffffffff
ffffffffffff
ffffffffffff
ffffffffffff
ffffffffffff
ffffffffffff
ENDCHAR
STARTCHAR /home/kraus/git/open-iconic/png/inbox-6x.png
ENCODING 186
DWIDTH 48 0
BBX 48 48 0 0
BITMAP
ffffffffffff
ffffffffffff
ffffffffffff
ffffffffffff
ffffffffffff
ffffffffffff
ffffffffffff
ffffffffffff
ffffffffffff
ffffffffffff
ffffffffffff
ffffffffffff
fc000000003f
fc000000003f
fc000000003f
fc000000003f
fc000000003f
fc000000003f
fc000000003f
fc000000003f
fc000000003f
fc000000003f
fc000000003f
fc000000003f
fc000000003f
fc000000003f
fc000000003f
fc000000003f
fc000000003f
fc000000003f
fff000000fff
fff800001fff
fffc00003fff
fffe00007fff
ffff0000ffff
ffff8001ffff
ffffffffffff
ffffffffffff
ffffffffffff
ffffffffffff
ffffffffffff
ffffffffffff
ffffffffffff
ffffffffffff
ffffffffffff
ffffffffffff
ffffffffffff
ffffffffffff
ENDCHAR
STARTCHAR /home/kraus/git/open-iconic/png/infinity-6x.png
ENCODING 187
DWIDTH 48 0
BBX 48 48 0 0
BITMAP
000000000000
000000000000
000000000000
000000000000
000000000000
000000000000
000000000000
000000000000
000000000000
000000000000
000000000000
000000000000
00fe00007f00
03ff8001ffc0
0fffe007fff0
1ffff00ffff8
3ffff81ffffc
3ffffc3ffffc
7f83fe7fc1fe
7f00ffff00fe
fe007ffe007e
fc003ffc003f
fc001ff8003f
fc000ff0003f
fc000ff0003f
fc001ff8003f
fc003ffc003f
7e007ffe007e
7f00ffff00fe
7f83fe7fc1fe
3ffffc3ffffc
3ffff81ffffc
1ffff00ffff8
0fffe007fff0
03ff8001ffc0
00fe00007f00
000000000000
000000000000
000000000000
000000000000
000000000000
000000000000
000000000000
000000000000
000000000000
000000000000
000000000000
000000000000
ENDCHAR
STARTCHAR /home/kraus/git/open-iconic/png/info-6x.png
ENCODING 188
DWIDTH 48 0
BBX 48 48 0 0
BITMAP
0000000f0000
0000003fc000
0000007fe000
0000007fe000
000000fff000
000000fff000
000000fff000
000000fff000
0000007fe000
0000007fe000
0000003fc000
0000000f0000
000000000000
000000000000
000000000000
00003f000000
0000ffc00000
0001ffe00000
0003fff00000
0007fff80000
0007fff80000
000fe1fc0000
000fc0fc0000
000fc0fc0000
000000fc0000
000001fc0000
000001f80000
000003f80000
000003f80000
000007f00000
000007f00000
00000fe00000
00000fe00000
00001fc00000
00001fc00000
00001f800000
00003f800000
00003f000000
00003f000000
00003f03f000
00003f03f000
00003f87f000
00001fffe000
00001fffe000
00000fffc000
000007ff8000
000003ff0000
000000fc0000
ENDCHAR
STARTCHAR /home/kraus/git/open-iconic/png/italic-6x.png
ENCODING 189
DWIDTH 48 0
BBX 48 48 0 0
BITMAP
000fffffffc0
000fffffffc0
000fffffffc0
000fffffffc0
000fffffffc0
000fffffffc0
000003ffc000
000007ffc000
000007ffc000
00000fff8000
00000fff8000
00000fff8000
00001fff0000
00001fff0000
00003ffe0000
00003ffe0000
00003ffe0000
00007ffc0000
00007ffc0000
0000fff80000
0000fff80000
0000fff80000
0001fff00000
0001fff00000
0003ffe00000
0003ffe00000
0003ffe00000
0007ffc00000
0007ffc00000
000fff800000
000fff800000
000fff800000
001fff000000
001fff000000
003ffe000000
003ffe000000
003ffe000000
007ffc000000
007ffc000000
00fff8000000
00fff8000000
00fff8000000
fffffffc0000
fffffffc0000
fffffffc0000
fffffffc0000
fffffffc0000
fffffffc0000
ENDCHAR
STARTCHAR /home/kraus/git/open-iconic/png/justify-center-6x.png
ENCODING 190
DWIDTH 48 0
BBX 48 48 0 0
BITMAP
ffffffffffff
ffffffffffff
ffffffffffff
ffffffffffff
ffffffffffff
ffffffffffff
000000000000
000000000000
000000000000
000000000000
000000000000
000000000000
ffffffffffff
ffffffffffff
ffffffffffff
ffffffffffff
ffffffffffff
ffffffffffff
000000000000
000000000000
000000000000
000000000000
000000000000
000000000000
ffffffffffff
ffffffffffff
ffffffffffff
ffffffffffff
ffffffffffff
ffffffffffff
000000000000
000000000000
000000000000
000000000000
000000000000
000000000000
03ffffffffc0
03ffffffffc0
03ffffffffc0
03ffffffffc0
03ffffffffc0
03ffffffffc0
000000000000
000000000000
000000000000
000000000000
000000000000
000000000000
ENDCHAR
STARTCHAR /home/kraus/git/open-iconic/png/justify-left-6x.png
ENCODING 191
DWIDTH 48 0
BBX 48 48 0 0
BITMAP
ffffffffffff
ffffffffffff
ffffffffffff
ffffffffffff
ffffffffffff
ffffffffffff
000000000000
000000000000
000000000000
000000000000
000000000000
000000000000
ffffffffffff
ffffffffffff
ffffffffffff
ffffffffffff
ffffffffffff
ffffffffffff
000000000000
000000000000
000000000000
000000000000
000000000000
000000000000
ffffffffffff
ffffffffffff
ffffffffffff
ffffffffffff
ffffffffffff
ffffffffffff
000000000000
000000000000
000000000000
000000000000
000000000000
000000000000
fffffffff000
fffffffff000
fffffffff000
fffffffff000
fffffffff000
fffffffff000
000000000000
000000000000
000000000000
000000000000
000000000000
000000000000
ENDCHAR
STARTCHAR /home/kraus/git/open-iconic/png/justify-right-6x.png
ENCODING 192
DWIDTH 48 0
BBX 48 48 0 0
BITMAP
ffffffffffff
ffffffffffff
ffffffffffff
ffffffffffff
ffffffffffff
ffffffffffff
000000000000
000000000000
000000000000
000000000000
000000000000
000000000000
ffffffffffff
ffffffffffff
ffffffffffff
ffffffffffff
ffffffffffff
ffffffffffff
000000000000
000000000000
000000000000
000000000000
000000000000
000000000000
ffffffffffff
ffffffffffff
ffffffffffff
ffffffffffff
ffffffffffff
ffffffffffff
000000000000
000000000000
000000000000
000000000000
000000000000
000000000000
000fffffffff
000fffffffff
000fffffffff
000fffffffff
000fffffffff
000fffffffff
000000000000
000000000000
000000000000
000000000000
000000000000
000000000000
ENDCHAR
STARTCHAR /home/kraus/git/open-iconic/png/key-6x.png
ENCODING 193
DWIDTH 48 0
BBX 48 48 0 0
BITMAP
00000007f800
0000003ffe00
0000007fff80
000001ffffe0
000003fffff0
000007fffff8
000007ffc3f8
00000fff00fc
00001ffe007c
00001ffe007e
00001ffc003e
00003ffc003f
00003ffc003f
00003ffc003f
00003ffe007f
00003ffe007f
00003fff00ff
00003fffc3ff
00007fffffff
0000fffffffe
0001fffffffe
0003fffffffc
0007fffffffc
000ffffffff8
001ffffffff8
003ffffffff0
007fffffffe0
007fffffff80
00fffffffe00
01fffffff800
03fffffc0000
07fffffc0000
0ffffffc0000
1ffffffc0000
3ffffffc0000
7ffffffc0000
ffffc0000000
ffffc0000000
ffffc0000000
ffffc0000000
ffffc0000000
ffffc0000000
ffffc0000000
ffffc0000000
ffffc0000000
ffffc0000000
ffffc0000000
ffffc0000000
ENDCHAR
STARTCHAR /home/kraus/git/open-iconic/png/laptop-6x.png
ENCODING 194
DWIDTH 48 0
BBX 48 48 0 0
BITMAP
000000000000
000000000000
000000000000
000000000000
000000000000
000000000000
01ffffffff80
03ffffffffc0
03ffffffffc0
03ffffffffc0
03ffffffffc0
03ffffffffc0
03f000000fc0
03f000000fc0
03f000000fc0
03f000000fc0
03f000000fc0
03f000000fc0
03f000000fc0
03f000000fc0
03f000000fc0
03f000000fc0
03f000000fc0
03f000000fc0
03f000000fc0
03f000000fc0
03f000000fc0
03f000000fc0
03f000000fc0
03f000000fc0
ffffc003ffff
ffffc003ffff
ffffc003ffff
ffffc003ffff
ffffc003ffff
ffffc003ffff
ffffffffffff
ffffffffffff
ffffffffffff
ffffffffffff
ffffffffffff
7ffffffffffe
000000000000
000000000000
000000000000
000000000000
000000000000
000000000000
ENDCHAR
STARTCHAR /home/kraus/git/open-iconic/png/layers-6x.png
ENCODING 195
DWIDTH 48 0
BBX 48 48 0 0
BITMAP
ffffff000000
ffffff000000
ffffff000000
ffffff000000
ffffff000000
ffffff000000
ffffff000000
ffffff000000
ffffff000000
ffffff000000
ffffff000000
ffffff000000
ffffff03f000
ffffff03f000
ffffff03f000
ffffff03f000
ffffff03f000
ffffff03f000
ffffff03f000
ffffff03f000
ffffff03f000
ffffff03f000
ffffff03f000
ffffff03f000
00000003f03f
00000003f03f
00000003f03f
00000003f03f
00000003f03f
00000003f03f
000ffffff03f
000ffffff03f
000ffffff03f
000ffffff03f
000ffffff03f
000ffffff03f
00000000003f
00000000003f
00000000003f
00000000003f
00000000003f
00000000003f
000000ffffff
000000ffffff
000000ffffff
000000ffffff
000000ffffff
000000ffffff
ENDCHAR
STARTCHAR /home/kraus/git/open-iconic/png/lightbulb-6x.png
ENCODING 196
DWIDTH 48 0
BBX 48 48 0 0
BITMAP
000000780000
000001fc0000
000007fc0000
00001ffc0000
00007ff80000
0001fff00000
0007ffe00000
001fff800000
007ffe000000
01fff801e000
03ffe007f000
03ff801ff000
03fe007ff000
03f801ffe000
01e007ffc000
00001fff8000
00007ffe0000
0001fff80000
0007ffe00000
001fff800000
007ffe000000
01fff801e000
03ffe007f000
03ff801ff000
03fe007ff000
03f801ffe000
01e007ffc000
00001fff8000
00007ffe0000
0001fff80000
0007fff80000
0007fffc0000
000ffffc0000
000ffffc0000
0007fffc0000
0007fff80000
000000000000
000000000000
000000000000
000000000000
000000000000
000000000000
0000ffc00000
0001ffe00000
0001ffe00000
0001ffe00000
0001ffe00000
0000ffc00000
ENDCHAR
STARTCHAR /home/kraus/git/open-iconic/png/link-broken-6x.png
ENCODING 197
DWIDTH 48 0
BBX 48 48 0 0
BITMAP
000fc0007e00
000fc003ffc0
000fc007ffe0
000fc00ffff0
000fc01ffff8
000fc03ffffc
03ffc07fc1fe
03ffc0ff00fe
03ffc0fe007e
03ffc0fc003f
03ffc0f8003f
03ffc030003f
00000000003f
00000000003f
00000000003f
00000000007e
0000000000fe
0000000001fe
0007800003fc
000f800007f8
001f80000ff0
003f80001fe0
007f80003fc0
00ff00007f80
01fe0000ff00
03fc0001fe00
07f80003fc00
0ff00003f800
1fe00003f000
3fc00001e000
7f800000c000
7f0000000000
7e0000000000
fc0000000000
fc0000000000
fc0000000000
fc000e03ffc0
fc001f03ffc0
fc003f03ffc0
7e007f03ffc0
7f00ff03ffc0
7f83fe03ffc0
3ffffc03f000
1ffff803f000
0ffff003f000
07ffe003f000
03ffc003f000
007e0003f000
ENDCHAR
STARTCHAR /home/kraus/git/open-iconic/png/link-intact-6x.png
ENCODING 198
DWIDTH 48 0
BBX 48 48 0 0
BITMAP
000000007e00
00000003ffc0
00000007ffe0
0000000ffff0
0000001ffff8
0000003ffffc
0000003fc1fe
0000001f00fe
0000001e007e
00000000003f
00000000003f
00000000003f
00000000003f
00000000003f
00001fe0003f
00007ff8007e
0001fffc00fe
0003fffc01fe
0007fffc03fc
000ffffc07f8
001ff0380ff0
003fc0001fe0
007f80003fc0
00ff00007f80
01fe0000ff00
03fc0001fe00
07f80003fc00
0ff01e0ff800
1fe03ffff000
3fc03fffe000
7f803fffc000
7f003fff8000
7e001ffe0000
fc0003f80000
fc0000000000
fc0000000000
fc0000000000
fc0000000000
fc0000000000
7e0078000000
7f00f8000000
7fc3fc000000
3ffffc000000
1ffff8000000
0ffff0000000
07ffe0000000
03ffc0000000
007e00000000
ENDCHAR
STARTCHAR /home/kraus/git/open-iconic/png/list-6x.png
ENCODING 199
DWIDTH 48 0
BBX 48 48 0 0
BITMAP
780fffffffff
fc0fffffffff
fc0fffffffff
fc0fffffffff
fc0fffffffff
780fffffffff
000000000000
000000000000
000000000000
000000000000
000000000000
000000000000
780fffffffff
fc0fffffffff
fc0fffffffff
fc0fffffffff
fc0fffffffff
780fffffffff
000000000000
000000000000
000000000000
000000000000
000000000000
000000000000
780fffffffff
fc0fffffffff
fc0fffffffff
fc0fffffffff
fc0fffffffff
780fffffffff
000000000000
000000000000
000000000000
000000000000
000000000000
000000000000
780fffffffff
fc0fffffffff
fc0fffffffff
fc0fffffffff
fc0fffffffff
780fffffffff
000000000000
000000000000
000000000000
000000000000
000000000000
000000000000
ENDCHAR
STARTCHAR /home/kraus/git/open-iconic/png/list-rich-6x.png
ENCODING 200
DWIDTH 48 0
BBX 48 48 0 0
BITMAP
ffffc0ffffff
ffffc0ffffff
ffffc0ffffff
ffffc0ffffff
ffffc0ffffff
ffffc0ffffff
ffffc0000000
ffffc0000000
ffffc0000000
ffffc0000000
ffffc0000000
ffffc0000000
ffffc0ffffc0
ffffc0ffffc0
ffffc0ffffc0
ffffc0ffffc0
ffffc0ffffc0
ffffc0ffffc0
000000000000
000000000000
000000000000
000000000000
000000000000
000000000000
ffffc0ffffff
ffffc0ffffff
ffffc0ffffff
ffffc0ffffff
ffffc0ffffff
ffffc0ffffff
ffffc0000000
ffffc0000000
ffffc0000000
ffffc0000000
ffffc0000000
ffffc0000000
ffffc0ffffc0
ffffc0ffffc0
ffffc0ffffc0
ffffc0ffffc0
ffffc0ffffc0
ffffc0ffffc0
000000000000
000000000000
000000000000
000000000000
000000000000
000000000000
ENDCHAR
STARTCHAR /home/kraus/git/open-iconic/png/location-6x.png
ENCODING 201
DWIDTH 48 0
BBX 48 48 0 0
BITMAP
000000000000
000000000006
00000000001e
00000000007c
0000000001fc
0000000007f8
000000001ff8
000000007ff0
00000001fff0
00000007ffe0
0000001fffe0
0000007fffc0
000001ffffc0
000007ffff80
00001fffff80
00007fffff00
0001ffffff00
0007fffffe00
001ffffffe00
007ffffffc00
01fffffffc00
07fffffff800
1ffffffff800
7ffffffff000
3ffffffff000
07ffffffe000
00ffffffe000
001fffffc000
0003ffffc000
00007fff8000
00003fff8000
00001fff0000
00001fff0000
00001ffe0000
00000ffe0000
00000ffc0000
00000ffc0000
000007f80000
000007f80000
000007f00000
000003f00000
000003e00000
000003e00000
000001c00000
000001c00000
000001800000
000000800000
000000000000
ENDCHAR
STARTCHAR /home/kraus/git/open-iconic/png/lock-locked-6x.png
ENCODING 202
DWIDTH 48 0
BBX 48 48 0 0
BITMAP
000007e00000
00003ffc0000
00007ffe0000
0000ffff0000
0001ffff8000
0003ffffc000
0007fc3fe000
0007f00fe000
0007e007e000
000fe007f000
000fc003f000
000fc003f000
000fc003f000
000fc003f000
000fc003f000
000fc003f000
000fc003f000
000fc003f000
03ffffffffc0
03ffffffffc0
03ffffffffc0
03ffffffffc0
03ffffffffc0
03ffffffffc0
03ffffffffc0
03ffffffffc0
03ffffffffc0
03ffffffffc0
03ffffffffc0
03ffffffffc0
03ffffffffc0
03ffffffffc0
03ffffffffc0
03ffffffffc0
03ffffffffc0
03ffffffffc0
03ffffffffc0
03ffffffffc0
03ffffffffc0
03ffffffffc0
03ffffffffc0
03ffffffffc0
000000000000
000000000000
000000000000
000000000000
000000000000
000000000000
ENDCHAR
STARTCHAR /home/kraus/git/open-iconic/png/lock-unlocked-6x.png
ENCODING 203
DWIDTH 48 0
BBX 48 48 0 0
BITMAP
000007e00000
00003ffc0000
00007ffe0000
0000ffff0000
0001ffff8000
0003ffffc000
0007fc3fe000
0007f00fe000
0007e007e000
000fe007f000
000fc003f000
000fc003f000
00000003f000
00000003f000
00000003f000
00000003f000
00000003f000
00000003f000
00000003f000
00000003f000
00000003f000
00000003f000
00000003f000
00000003f000
03ffffffffc0
03ffffffffc0
03ffffffffc0
03ffffffffc0
03ffffffffc0
03ffffffffc0
03ffffffffc0
03ffffffffc0
03ffffffffc0
03ffffffffc0
03ffffffffc0
03ffffffffc0
03ffffffffc0
03ffffffffc0
03ffffffffc0
03ffffffffc0
03ffffffffc0
03ffffffffc0
03ffffffffc0
03ffffffffc0
03ffffffffc0
03ffffffffc0
03ffffffffc0
03ffffffffc0
ENDCHAR
STARTCHAR /home/kraus/git/open-iconic/png/loop-6x.png
ENCODING 204
DWIDTH 48 0
BBX 48 48 0 0
BITMAP
000000000800
000000000c00
000000000e00
000000000f80
000000000fc0
000000000fe0
0ffffffffff8
3ffffffffffc
7ffffffffffe
7ffffffffffe
fffffffffffc
fffffffffff8
fc0000000fe0
fc0000000fc0
fc0000000f80
fc0000000e00
fc0000000c00
fc0000000800
000000000000
000000000000
000000000000
000000000000
000000000000
000000000000
00100000003f
00300000003f
00700000003f
01f00000003f
03f00000003f
07f00000003f
1fffffffffff
3fffffffffff
7ffffffffffe
7ffffffffffe
3ffffffffffc
1ffffffffff0
07f000000000
03f000000000
01f000000000
007000000000
003000000000
001000000000
000000000000
000000000000
000000000000
000000000000
000000000000
000000000000
ENDCHAR
STARTCHAR /home/kraus/git/open-iconic/png/loop-circular-6x.png
ENCODING 205
DWIDTH 48 0
BBX 48 48 0 0
BITMAP
000000000000
000000000000
000000000000
000000000000
000000000000
000000000000
00000f000000
00007f000000
0001ff000000
0007ff000000
000fff000000
001fff000000
003ff8000000
007fc0000300
007f80000780
00ff00000fc0
00fe00000fc0
01fc00001fe0
01f800003ff0
01f800007ff8
03f800007ff8
03f00000fffc
03f00001fffe
03f00003ffff
ffffc0000fc0
7fff80000fc0
3fff00000fc0
1ffe00001fc0
1ffe00001f80
0ffc00001f80
07f800003f80
03f000007f00
03f00000ff00
01e00001fe00
00c00003fe00
0000001ffc00
000000fff800
000000fff000
000000ffe000
000000ff8000
000000fe0000
000000f00000
000000000000
000000000000
000000000000
000000000000
000000000000
000000000000
ENDCHAR
STARTCHAR /home/kraus/git/open-iconic/png/loop-square-6x.png
ENCODING 206
DWIDTH 48 0
BBX 48 48 0 0
BITMAP
03ffffffffc0
03ffffffffc0
03ffffffffc0
03ffffffffc0
03ffffffffc0
03ffffffffc0
03f000000fc0
03f000000fc0
03f000000fc0
03f000000fc0
03f000000fc0
03f000000fc0
000000000fc0
000000000fc0
000000000fc0
000000000fc0
00c000000fc0
00c000000fc0
01e00003ffff
03f00001fffe
03f00000fffc
07f80000fffc
07f800007ff8
0ffc00007ff8
1ffe00003ff0
1ffe00001fe0
3fff00001fe0
3fff00000fc0
7fff80000fc0
ffffc0000780
03f000000300
03f000000300
03f000000000
03f000000000
03f000000000
03f000000000
03f000000fc0
03f000000fc0
03f000000fc0
03f000000fc0
03f000000fc0
03f000000fc0
03ffffffffc0
03ffffffffc0
03ffffffffc0
03ffffffffc0
03ffffffffc0
03ffffffffc0
ENDCHAR
STARTCHAR /home/kraus/git/open-iconic/png/magnifying-glass-6x.png
ENCODING 207
DWIDTH 48 0
BBX 48 48 0 0
BITMAP
0000ffc00000
0007fff80000
001ffffe0000
007fffff8000
00ffffffc000
01ffffffe000
03ff807ff000
07fc000ff800
0ff80007fc00
1fe00001fe00
1fc00000fe00
3f8000007f00
3f8000007f00
7f0000003f80
7e0000001f80
7e0000001f80
fe0000001fc0
fc0000000fc0
fc0000000fc0
fc0000000fc0
fc0000000fc0
fc0000000fc0
fc0000000fc0
fc0000000fc0
fc0000000fc0
7e0000001f80
7e0000001f80
7e0000001f80
7f0000003f80
3f8000007f00
3f8000007f00
1fc00000ff00
1fe00001ff80
0ff80007ffc0
07fc000fffe0
03ff807ffff0
01fffffffff8
00fffffffffc
007ffffffffe
001fffffffff
0007fff8ffff
00007fc07fff
000000003fff
000000001fff
000000000fff
0000000007fe
0000000003fe
0000000001f8
ENDCHAR
STARTCHAR /home/kraus/git/open-iconic/png/map-6x.png
ENCODING 208
DWIDTH 48 0
BBX 48 48 0 0
BITMAP
ffffffffffff
ffffffffffff
ffffffffffff
ffffffffffff
ffffffffffff
ffffffffffff
fc000000003f
fc000000003f
fc000000003f
fc000000003f
fc000000003f
fc000000003f
fc003f00003f
fc00ffc0003f
fc01ffe0003f
fc03fff0003f
fc07fff8003f
fc07fff8003f
fc0fe1fc003f
fc0fc0fc003f
fc0fc0fc003f
fc0fc0fc003f
fc0fc0fc003f
fc0fe1fc003f
fc07fff8003f
fc07fff8003f
fc03fff0003f
fc03fff0003f
fc01ffe0003f
fc00ffc0003f
fc00ffc1ffff
fc007f83ffff
fc003f03ffff
fc001e03ffff
fc000c03ffff
fc000001ffff
fc000000003f
fc000000003f
fc000000003f
fc000000003f
fc000000003f
fc000000003f
ffffffffffff
ffffffffffff
ffffffffffff
ffffffffffff
ffffffffffff
ffffffffffff
ENDCHAR
STARTCHAR /home/kraus/git/open-iconic/png/map-marker-6x.png
ENCODING 209
DWIDTH 48 0
BBX 48 48 0 0
BITMAP
00000ff00000
00007ffe0000
0001ffff8000
0007ffffe000
000ffffff000
001ffffff800
003ff81ffc00
007fc003fe00
007f8001fe00
00ff0000ff00
00fe00007f00
01fc00003f80
01f800001f80
01f800001f80
03f800001fc0
03f000000fc0
03f000000fc0
03f000000fc0
03f000000fc0
03f000000fc0
03f000000fc0
03f800001fc0
01f800001f80
01f800001f80
01fc00003f80
00fe00007f00
00ff0000ff00
007f8001fe00
007fc003fe00
003ff81ffc00
003ffffffc00
001ffffff800
000ffffff000
000ffffff000
0007ffffe000
0003ffffc000
0003ffffc000
0001ffff8000
0000ffff0000
00007ffe0000
00007ffe0000
00003ffc0000
00001ff80000
00000ff00000
000007e00000
000003c00000
000001800000
000000000000
ENDCHAR
STARTCHAR /home/kraus/git/open-iconic/png/media-pause-6x.png
ENCODING 210
DWIDTH 48 0
BBX 48 48 0 0
BITMAP
000000000000
000000000000
000000000000
000000000000
000000000000
000000000000
03ffc003ffc0
03ffc003ffc0
03ffc003ffc0
03ffc003ffc0
03ffc003ffc0
03ffc003ffc0
03ffc003ffc0
03ffc003ffc0
03ffc003ffc0
03ffc003ffc0
03ffc003ffc0
03ffc003ffc0
03ffc003ffc0
03ffc003ffc0
03ffc003ffc0
03ffc003ffc0
03ffc003ffc0
03ffc003ffc0
03ffc003ffc0
03ffc003ffc0
03ffc003ffc0
03ffc003ffc0
03ffc003ffc0
03ffc003ffc0
03ffc003ffc0
03ffc003ffc0
03ffc003ffc0
03ffc003ffc0
03ffc003ffc0
03ffc003ffc0
03ffc003ffc0
03ffc003ffc0
03ffc003ffc0
03ffc003ffc0
03ffc003ffc0
03ffc003ffc0
000000000000
000000000000
000000000000
000000000000
000000000000
000000000000
ENDCHAR
STARTCHAR /home/kraus/git/open-iconic/png/media-play-6x.png
ENCODING 211
DWIDTH 48 0
BBX 48 48 0 0
BITMAP
000000000000
000000000000
000000000000
000000000000
000000000000
000000000000
020000000000
038000000000
03e000000000
03f800000000
03fe00000000
03ff80000000
03ffe0000000
03fff8000000
03fffe000000
03ffff800000
03ffffe00000
03fffff80000
03fffffe0000
03ffffff8000
03ffffffe000
03fffffff800
03fffffffe00
03ffffffff80
03ffffffff80
03fffffffe00
03fffffff800
03ffffffe000
03ffffff8000
03fffffe0000
03fffff80000
03ffffe00000
03ffff800000
03fffe000000
03fff8000000
03ffe0000000
03ff80000000
03fe00000000
03f800000000
03e000000000
038000000000
020000000000
000000000000
000000000000
000000000000
000000000000
000000000000
000000000000
ENDCHAR
STARTCHAR /home/kraus/git/open-iconic/png/media-record-6x.png
ENCODING 212
DWIDTH 48 0
BBX 48 48 0 0
BITMAP
000000000000
000000000000
000000000000
000000000000
000000000000
000000000000
00000ff00000
00007ffe0000
0001ffff8000
0007ffffe000
000ffffff000
001ffffff800
003ffffffc00
007ffffffe00
007ffffffe00
00ffffffff00
00ffffffff00
01ffffffff80
01ffffffff80
01ffffffff80
03ffffffffc0
03ffffffffc0
03ffffffffc0
03ffffffffc0
03ffffffffc0
03ffffffffc0
03ffffffffc0
03ffffffffc0
01ffffffff80
01ffffffff80
01ffffffff80
00ffffffff00
00ffffffff00
007ffffffe00
007ffffffe00
003ffffffc00
001ffffff800
000ffffff000
0007ffffe000
0001ffff8000
00007ffe0000
00000ff00000
000000000000
000000000000
000000000000
000000000000
000000000000
000000000000
ENDCHAR
STARTCHAR /home/kraus/git/open-iconic/png/media-skip-backward-6x.png
ENCODING 213
DWIDTH 48 0
BBX 48 48 0 0
BITMAP
000000000000
000000000000
000000000000
000000000000
000000000000
000000000000
000001000001
000003000003
000007000007
00001f00001f
00003f00003f
00007f00007f
0001ff0001ff
0003ff0003ff
0007ff0007ff
001fff001fff
003fff003fff
007fff007fff
01ffff01ffff
03ffff03ffff
07ffff07ffff
1fffff1fffff
3fffff3fffff
7fffff7fffff
7fffff7fffff
3fffff3fffff
1fffff1fffff
07ffff07ffff
03ffff03ffff
01ffff01ffff
007fff007fff
003fff003fff
001fff001fff
0007ff0007ff
0003ff0003ff
0001ff0001ff
00007f00007f
00003f00003f
00001f00001f
000007000007
000003000003
000001000001
000000000000
000000000000
000000000000
000000000000
000000000000
000000000000
ENDCHAR
STARTCHAR /home/kraus/git/open-iconic/png/media-skip-forward-6x.png
ENCODING 214
DWIDTH 48 0
BBX 48 48 0 0
BITMAP
000000000000
000000000000
000000000000
000000000000
000000000000
000000000000
800000800000
c00000c00000
e00000e00000
f80000f80000
fc0000fc0000
fe0000fe0000
ff8000ff8000
ffc000ffc000
ffe000ffe000
fff800fff800
fffc00fffc00
fffe00fffe00
ffff80ffff80
ffffc0ffffc0
ffffe0ffffe0
fffff8fffff8
fffffcfffffc
fffffefffffe
fffffefffffe
fffffcfffffc
fffff8fffff8
ffffe0ffffe0
ffffc0ffffc0
ffff80ffff80
fffe00fffe00
fffc00fffc00
fff800fff800
ffe000ffe000
ffc000ffc000
ff8000ff8000
fe0000fe0000
fc0000fc0000
f80000f80000
e00000e00000
c00000c00000
800000800000
000000000000
000000000000
000000000000
000000000000
000000000000
000000000000
ENDCHAR
STARTCHAR /home/kraus/git/open-iconic/png/media-step-backward-6x.png
ENCODING 215
DWIDTH 48 0
BBX 48 48 0 0
BITMAP
000000000000
000000000000
000000000000
000000000000
000000000000
000000000000
fff000000040
fff0000000c0
fff0000003c0
fff000000fc0
fff000001fc0
fff000007fc0
fff00001ffc0
fff00003ffc0
fff0000fffc0
fff0003fffc0
fff0007fffc0
fff001ffffc0
fff007ffffc0
fff00fffffc0
fff03fffffc0
fff0ffffffc0
fff1ffffffc0
fff7ffffffc0
fff7ffffffc0
fff1ffffffc0
fff0ffffffc0
fff03fffffc0
fff00fffffc0
fff007ffffc0
fff001ffffc0
fff0007fffc0
fff0003fffc0
fff0000fffc0
fff00003ffc0
fff00001ffc0
fff000007fc0
fff000001fc0
fff000000fc0
fff0000003c0
fff0000000c0
fff000000040
000000000000
000000000000
000000000000
000000000000
000000000000
000000000000
ENDCHAR
STARTCHAR /home/kraus/git/open-iconic/png/media-step-forward-6x.png
ENCODING 216
DWIDTH 48 0
BBX 48 48 0 0
BITMAP
000000000000
000000000000
000000000000
000000000000
000000000000
000000000000
80000003ffc0
c0000003ffc0
f0000003ffc0
fc000003ffc0
fe000003ffc0
ff800003ffc0
ffe00003ffc0
fff00003ffc0
fffc0003ffc0
ffff0003ffc0
ffff8003ffc0
ffffe003ffc0
fffff803ffc0
fffffc03ffc0
ffffff03ffc0
ffffffc3ffc0
ffffffe3ffc0
fffffffbffc0
fffffffbffc0
ffffffe3ffc0
ffffffc3ffc0
ffffff03ffc0
fffffc03ffc0
fffff803ffc0
ffffe003ffc0
ffff8003ffc0
ffff0003ffc0
fffc0003ffc0
fff00003ffc0
ffe00003ffc0
ff800003ffc0
fe000003ffc0
fc000003ffc0
f0000003ffc0
c0000003ffc0
80000003ffc0
000000000000
000000000000
000000000000
000000000000
000000000000
000000000000
ENDCHAR
STARTCHAR /home/kraus/git/open-iconic/png/media-stop-6x.png
ENCODING 217
DWIDTH 48 0
BBX 48 48 0 0
BITMAP
000000000000
000000000000
000000000000
000000000000
000000000000
000000000000
03ffffffffc0
03ffffffffc0
03ffffffffc0
03ffffffffc0
03ffffffffc0
03ffffffffc0
03ffffffffc0
03ffffffffc0
03ffffffffc0
03ffffffffc0
03ffffffffc0
03ffffffffc0
03ffffffffc0
03ffffffffc0
03ffffffffc0
03ffffffffc0
03ffffffffc0
03ffffffffc0
03ffffffffc0
03ffffffffc0
03ffffffffc0
03ffffffffc0
03ffffffffc0
03ffffffffc0
03ffffffffc0
03ffffffffc0
03ffffffffc0
03ffffffffc0
03ffffffffc0
03ffffffffc0
03ffffffffc0
03ffffffffc0
03ffffffffc0
03ffffffffc0
03ffffffffc0
03ffffffffc0
000000000000
000000000000
000000000000
000000000000
000000000000
000000000000
ENDCHAR
STARTCHAR /home/kraus/git/open-iconic/png/medical-cross-6x.png
ENCODING 218
DWIDTH 48 0
BBX 48 48 0 0
BITMAP
000ffffff000
000ffffff000
000ffffff000
000ffffff000
000ffffff000
000ffffff000
000ffffff000
000ffffff000
000ffffff000
000ffffff000
000ffffff000
000ffffff000
ffffffffffff
ffffffffffff
ffffffffffff
ffffffffffff
ffffffffffff
ffffffffffff
ffffffffffff
ffffffffffff
ffffffffffff
ffffffffffff
ffffffffffff
ffffffffffff
ffffffffffff
ffffffffffff
ffffffffffff
ffffffffffff
ffffffffffff
ffffffffffff
ffffffffffff
ffffffffffff
ffffffffffff
ffffffffffff
ffffffffffff
ffffffffffff
000ffffff000
000ffffff000
000ffffff000
000ffffff000
000ffffff000
000ffffff000
000ffffff000
000ffffff000
000ffffff000
000ffffff000
000ffffff000
000ffffff000
ENDCHAR
STARTCHAR /home/kraus/git/open-iconic/png/menu-6x.png
ENCODING 219
DWIDTH 48 0
BBX 48 48 0 0
BITMAP
000000000000
000000000000
000000000000
000000000000
000000000000
000000000000
ffffffffffff
ffffffffffff
ffffffffffff
ffffffffffff
ffffffffffff
ffffffffffff
000000000000
000000000000
000000000000
000000000000
000000000000
000000000000
000000000000
000000000000
000000000000
000000000000
000000000000
000000000000
ffffffffffff
ffffffffffff
ffffffffffff
ffffffffffff
ffffffffffff
ffffffffffff
000000000000
000000000000
000000000000
000000000000
000000000000
000000000000
000000000000
000000000000
000000000000
000000000000
000000000000
000000000000
ffffffffffff
ffffffffffff
ffffffffffff
ffffffffffff
ffffffffffff
ffffffffffff
ENDCHAR
STARTCHAR /home/kraus/git/open-iconic/png/microphone-6x.png
ENCODING 220
DWIDTH 48 0
BBX 48 48 0 0
BITMAP
000007e00000
00000ff00000
00001ff80000
00003ffc0000
00003ffc0000
00003ffc0000
00003ffc0000
00003ffc0000
00003ffc0000
00003ffc0000
00003ffc0000
00003ffc0000
01e03ffc0780
03f03ffc07c0
03f03ffc0fc0
03f03ffc0fc0
03f03ffc0fc0
03f03ffc0fc0
03f03ffc0fc0
03f03ffc0fc0
03f01ff80fc0
03f81ff80fc0
01f80ff01fc0
01f803c01f80
01fc00003f80
00fe00007f00
00ff00007f00
007f8001fe00
003fc003fe00
003ff80ffc00
001ffffff800
000ffffff000
0003ffffe000
0001ffff8000
00007ffe0000
000007f00000
000007e00000
000007e00000
000007e00000
000007e00000
000007e00000
000007e00000
0000ffff0000
0003ffffc000
0007ffffe000
0007fffff000
000ffffff000
000ffffff000
ENDCHAR
STARTCHAR /home/kraus/git/open-iconic/png/minus-6x.png
ENCODING 221
DWIDTH 48 0
BBX 48 48 0 0
BITMAP
000000000000
000000000000
000000000000
000000000000
000000000000
000000000000
000000000000
000000000000
000000000000
000000000000
000000000000
000000000000
000000000000
000000000000
000000000000
000000000000
000000000000
000000000000
ffffffffffff
ffffffffffff
ffffffffffff
ffffffffffff
ffffffffffff
ffffffffffff
ffffffffffff
ffffffffffff
ffffffffffff
ffffffffffff
ffffffffffff
ffffffffffff
000000000000
000000000000
000000000000
000000000000
000000000000
000000000000
000000000000
000000000000
000000000000
000000000000
000000000000
000000000000
000000000000
000000000000
000000000000
000000000000
000000000000
000000000000
ENDCHAR
STARTCHAR /home/kraus/git/open-iconic/png/monitor-6x.png
ENCODING 222
DWIDTH 48 0
BBX 48 48 0 0
BITMAP
7ffffffffffe
ffffffffffff
ffffffffffff
ffffffffffff
ffffffffffff
ffffffffffff
fc000000003f
fc000000003f
fc000000003f
fc000000003f
fc000000003f
fc000000003f
fc000000003f
fc000000003f
fc000000003f
fc000000003f
fc000000003f
fc000000003f
fc000000003f
fc000000003f
fc000000003f
fc000000003f
fc000000003f
fc000000003f
fc000000003f
fc000000003f
fc000000003f
fc000000003f
fc000000003f
fc000000003f
ffffffffffff
ffffffffffff
ffffffffffff
ffffffffffff
ffffffffffff
7ffffffffffe
00003ffc0000
00003ffc0000
00003ffc0000
00003ffc0000
00003ffc0000
00003ffc0000
003ffffffc00
00ffffffff00
01ffffffff80
01ffffffff80
03ffffffffc0
03ffffffffc0
ENDCHAR
STARTCHAR /home/kraus/git/open-iconic/png/moon-6x.png
ENCODING 223
DWIDTH 48 0
BBX 48 48 0 0
BITMAP
000100000000
000700000000
001f00000000
003e00000000
00fe00000000
01fe00000000
03fe00000000
07fe00000000
07fe00000000
0ffe00000000
1ffe00000000
1ffe00000000
3ffe00000000
3fff00000000
7fff00000000
7fff00000000
7fff80000000
7fff80000000
ffffc0000000
ffffc0000000
ffffe0000000
ffffe0000000
fffff0000000
fffff8000000
fffffc000000
fffffe000000
ffffff000000
ffffff800000
7fffffe00000
7ffffff80000
7fffffff0000
3ffffffff03c
3ffffffffffc
1ffffffffff8
1ffffffffff8
0ffffffffff0
0ffffffffff0
07ffffffffe0
03ffffffffc0
01ffffffff80
00ffffffff00
007ffffffe00
001ffffff800
000ffffff000
0003ffffc000
00007ffe0000
000007e00000
000000000000
ENDCHAR
STARTCHAR /home/kraus/git/open-iconic/png/move-6x.png
ENCODING 224
DWIDTH 48 0
BBX 48 48 0 0
BITMAP
000000000000
00000c000000
00001e000000
00003f000000
00007f800000
0000ffc00000
0001ffe00000
0003fff00000
0007fff80000
00003f000000
00003f000000
00003f000000
00003f000000
00803f004000
01803f006000
03803f007000
07803f007800
0f803f007c00
1ffffffffe00
3fffffffff00
7fffffffff80
7fffffffff80
3fffffffff00
1ffffffffe00
0f803f007c00
07803f007800
03803f007000
01803f006000
00803f004000
00003f000000
00003f000000
00003f000000
00003f000000
0007fff80000
0003fff00000
0001ffe00000
0000ffc00000
00007f800000
00003f000000
00001e000000
00000c000000
000000000000
000000000000
000000000000
000000000000
000000000000
000000000000
000000000000
ENDCHAR
STARTCHAR /home/kraus/git/open-iconic/png/musical-note-6x.png
ENCODING 225
DWIDTH 48 0
BBX 48 48 0 0
BITMAP
000000003fff
0000003fffff
000007ffffff
00007fffffff
0001ffffffff
0007ffffffff
000fffffffff
000fffffffff
000fffffffff
000fffffffff
000fffffffff
000fffffffff
000fffffe03f
000fffc0003f
000ff000003f
000fc000003f
000fc000003f
000fc000003f
000fc000003f
000fc000003f
000fc000003f
000fc000003f
000fc000003f
000fc000003f
000fc0000fff
000fc0003fff
000fc0007fff
000fc000ffff
000fc001ffff
000fc001ffff
03ffc003ffff
0fffc003ffff
1fffc003ffff
3fffc003ffff
7fffc003ffff
7fffc003ffff
ffffc001fffe
ffffc001fffe
ffffc000fffc
ffffc0007ff8
ffffc0003ff0
ffffc0000fc0
7fff80000000
7fff80000000
3fff00000000
1ffe00000000
0ffc00000000
03f000000000
ENDCHAR
STARTCHAR /home/kraus/git/open-iconic/png/paperclip-6x.png
ENCODING 226
DWIDTH 48 0
BBX 48 48 0 0
BITMAP
0000001f8000
000000fff000
000001fff800
000003fffc00
000007fffe00
00000fffff00
00001fe0ff80
00007fc03f80
0000ff801f80
0001ff000fc0
0003fe000fc0
0007fc000fc0
000ff8000fc0
001ff0000fc0
003fe0001fc0
007fc0001f80
00ff80003f80
01ff00007f80
03fe0000ff00
07fc2001fe00
0ff87003fc00
1ff0f807f800
1fe1fc0ff000
3fc3fc1fe000
3f87f83fc000
7f0ff07f8000
7e0fe0ff0000
7e1fc1fe0000
fc1f83fc0000
fc1f87f80000
fc1f8ff00000
fc1fffe00000
fc1fffc30000
fc0fff878000
fc0fff0fc000
7e07fe1fe000
7e01f83fe000
7f00007fc000
3f8000ff8000
3f8001ff0000
1fe003fe0000
1ff80ffc0000
0ffffff80000
07fffff00000
03ffffe00000
00ffff800000
003ffe000000
0007f0000000
ENDCHAR
STARTCHAR /home/kraus/git/open-iconic/png/pencil-6x.png
ENCODING 227
DWIDTH 48 0
BBX 48 48 0 0
BITMAP
000000000000
000000001800
000000003c00
000000007e00
00000000ff00
00000001ff80
00000001ffc0
00000000ffe0
000000007ff0
000000003ff8
000000001ffc
000000000ffe
0000000007fe
0000018003fc
000003c001f8
000007e000f0
00000ff00060
00001ff80000
00003ffc0000
00007ffe0000
0000ffff0000
0001ffff8000
0003ffffc000
0007ffffe000
000fffffe000
001fffffc000
003fffff8000
007fffff0000
00fffffe0000
01fffffc0000
03fffff80000
07fffff00000
0fffffe00000
1fffffc00000
3fffff800000
7fffff000000
fffffe000000
fffffc000000
fffff8000000
fffff0000000
ffffe0000000
ffffc0000000
ffff80000000
ffff00000000
fffe00000000
fffc00000000
fff800000000
fff000000000
ENDCHAR
STARTCHAR /home/kraus/git/open-iconic/png/people-6x.png
ENCODING 228
DWIDTH 48 0
BBX 48 48 0 0
BITMAP
00000003e000
00000007f800
0000000ffc00
0000001ffe00
0000003fff00
0000003fff00
000fc01fff80
001fe01fff80
003ff00fffc0
007ff80fffc0
00fffc07ffc0
01fffe07ffc0
01fffe07ffc0
01fffe03ffc0
03ffff03ffc0
03ffff03ffc0
03ffff03ff80
03ffff03ff80
03ffff03ff80
03ffff03ff00
03ffff03fe00
03ffff03fc00
01fffe03f800
01fffe01f000
01fffe000000
00fffc000010
007ff800003c
003ff000007e
001fe00001fe
000f800007ff
000000003fff
080000403fff
3c0000f01fff
3e0001f01fff
7f8007f80fff
ffe01ffc0fff
fffffffc0fff
fffffffc0fff
fffffffc0fff
fffffffc0fff
fffffffc0fff
fffffffc0fff
fffffffc0000
fffffffc0000
fffffffc0000
fffffffc0000
fffffffc0000
fffffffc0000
ENDCHAR
STARTCHAR /home/kraus/git/open-iconic/png/person-6x.png
ENCODING 229
DWIDTH 48 0
BBX 48 48 0 0
BITMAP
000007e00000
00001ff80000
00007ffe0000
0000ffff0000
0001ffff8000
0001ffff8000
0003ffffc000
0003ffffc000
0007ffffe000
0007ffffe000
0007ffffe000
000ffffff000
000ffffff000
000ffffff000
000ffffff000
000ffffff000
000ffffff000
000ffffff000
000ffffff000
0007ffffe000
0007ffffe000
0007ffffe000
0003ffffc000
0003ffffc000
0001ffff8000
0001ffff8000
0000ffff0000
00007ffe0000
00001ff80000
000007e00000
007000000e00
03f800001fc0
07fc00003fe0
0fff0000fff0
1fff8001fff8
3ffff00ffffc
7ffffffffffe
7ffffffffffe
7ffffffffffe
ffffffffffff
ffffffffffff
ffffffffffff
ffffffffffff
ffffffffffff
ffffffffffff
ffffffffffff
ffffffffffff
ffffffffffff
ENDCHAR
STARTCHAR /home/kraus/git/open-iconic/png/phone-6x.png
ENCODING 230
DWIDTH 48 0
BBX 48 48 0 0
BITMAP
03fffffff000
03fffffff000
03fffffff000
03fffffff000
03fffffff000
03fffffff000
03f00003f000
03f00003f000
03f00003f000
03f00003f000
03f00003f000
03f00003f000
03f00003f000
03f00003f000
03f00003f000
03f00003f000
03f00003f000
03f00003f000
03f00003f000
03f00003f000
03f00003f000
03f00003f000
03f00003f000
03f00003f000
03f00003f000
03f00003f000
03f00003f000
03f00003f000
03f00003f000
03f00003f000
03f00003f000
03f00003f000
03f00003f000
03f00003f000
03f00003f000
03f00003f000
03fffffff000
03fffffff000
03fffffff000
03ffe1fff000
03ffc0fff000
03ffc0fff000
03ffc0fff000
03ffc0fff000
03ffe1fff000
03fffffff000
03fffffff000
03fffffff000
ENDCHAR
STARTCHAR /home/kraus/git/open-iconic/png/pie-chart-6x.png
ENCODING 231
DWIDTH 48 0
BBX 48 48 0 0
BITMAP
00007f000000
0007ff000000
001fff000000
007fff000000
00ffff000000
01ffff000000
01ffff020000
00ffff03c000
007fff03f800
003fff03fc00
001fff03ff00
000fff03ff80
0007ff03ffc0
0003ff03ffe0
0401ff03fff0
0e00ff03fff0
1f007f03fff8
1f803f03fffc
3fc01f03fffc
3fe00f03fffe
7ff00703fffe
7ff80303fffe
7ffc0103fffe
fffe0003ffff
ffff0003ffff
ffff8003ffff
ffffc003ffff
ffffe007ffff
ffffe00fffff
ffffc01fffff
ffff803fffff
7fff007ffffe
7ffe00fffffe
7ffc01fffffe
3ff803fffffe
3ff007fffffc
1fe00ffffffc
0fc01ffffff8
0f803ffffff8
07007ffffff0
0200ffffffe0
0001ffffffc0
0003ffffff80
0003ffffff00
0000fffffe00
00007ffff800
00001fffe000
000001fe0000
ENDCHAR
STARTCHAR /home/kraus/git/open-iconic/png/pin-6x.png
ENCODING 232
DWIDTH 48 0
BBX 48 48 0 0
BITMAP
01ffffffe000
03fffffff000
03fffffff000
03fffffff000
03fffffff000
01ffffffe000
000ffffc0000
000ffffc0000
000ffffc0000
000ffffc0000
000ffffc0000
000ffffc0000
000ffffc0000
000ffffc0000
000ffffc0000
000ffffc0000
000ffffc0000
000ffffc0000
0ffffffffc00
3fffffffff00
7fffffffff80
7fffffffff80
ffffffffffc0
ffffffffffc0
00003f000000
00003f000000
00003f000000
00003f000000
00003f000000
00003f000000
00003f000000
00003f000000
00003f000000
00003f000000
00003f000000
00003f000000
00003f000000
00003f000000
00003f000000
00003f000000
00003f000000
00003f000000
00003f000000
00001e000000
00001e000000
00000c000000
000008000000
000000000000
ENDCHAR
STARTCHAR /home/kraus/git/open-iconic/png/play-circle-6x.png
ENCODING 233
DWIDTH 48 0
BBX 48 48 0 0
BITMAP
00001ff80000
0000ffff0000
0007ffffe000
000ffffff000
003ffffffc00
007ffffffe00
00ffffffff00
01ffffffff80
03ffffffffc0
07ffffffffe0
0ffffffffff0
0ffffffffff0
1fffdffffff8
3fffcffffffc
3fffc3fffffc
3fffc1fffffc
7fffc07ffffe
7fffc03ffffe
7fffc00ffffe
ffffc007ffff
ffffc001ffff
ffffc000ffff
ffffc0003fff
ffffc0001fff
ffffc0001fff
ffffc0003fff
ffffc000ffff
ffffc001ffff
ffffc007ffff
7fffc00ffffe
7fffc03ffffe
7fffc07ffffe
3fffc1fffffc
3fffc3fffffc
3fffcffffffc
1fffdffffff8
0ffffffffff0
0ffffffffff0
07ffffffffe0
03ffffffffc0
01ffffffff80
00ffffffff00
007ffffffe00
003ffffffc00
000ffffff000
0007ffffe000
0000ffff0000
00001ff80000
ENDCHAR
STARTCHAR /home/kraus/git/open-iconic/png/plus-6x.png
ENCODING 234
DWIDTH 48 0
BBX 48 48 0 0
BITMAP
00003ffc0000
00003ffc0000
00003ffc0000
00003ffc0000
00003ffc0000
00003ffc0000
00003ffc0000
00003ffc0000
00003ffc0000
00003ffc0000
00003ffc0000
00003ffc0000
00003ffc0000
00003ffc0000
00003ffc0000
00003ffc0000
00003ffc0000
00003ffc0000
ffffffffffff
ffffffffffff
ffffffffffff
ffffffffffff
ffffffffffff
ffffffffffff
ffffffffffff
ffffffffffff
ffffffffffff
ffffffffffff
ffffffffffff
ffffffffffff
00003ffc0000
00003ffc0000
00003ffc0000
00003ffc0000
00003ffc0000
00003ffc0000
00003ffc0000
00003ffc0000
00003ffc0000
00003ffc0000
00003ffc0000
00003ffc0000
00003ffc0000
00003ffc0000
00003ffc0000
00003ffc0000
00003ffc0000
00003ffc0000
ENDCHAR
STARTCHAR /home/kraus/git/open-iconic/png/power-standby-6x.png
ENCODING 235
DWIDTH 48 0
BBX 48 48 0 0
BITMAP
00003f000000
00003f000000
00003f000000
00003f000000
00003f000000
00003f000000
00003f000000
00003f000000
00003f000000
00603f018000
00f03f03c000
01f83f07e000
03f83f07f000
07fc3f0ff800
0ff83f07fc00
1fe03f01fe00
1fc03f00fe00
3f803f007f00
3f803f007f00
7f003f003f80
7e003f003f80
7e003f001f80
fe003f001f80
fc003f000fc0
fc0000000fc0
fc0000000fc0
fc0000000fc0
fc0000000fc0
fc0000000fc0
fc0000000fc0
fc0000000fc0
7e0000001f80
7e0000001f80
7e0000001f80
7f0000003f80
3f8000007f00
3f8000007f00
1fc00000fe00
1fe00001fe00
0ff80007fc00
07fc000ff800
03ff807ff000
01ffffffe000
00ffffffc000
007fffff8000
001ffffe0000
0007fff80000
00007f800000
ENDCHAR
STARTCHAR /home/kraus/git/open-iconic/png/print-6x.png
ENCODING 236
DWIDTH 48 0
BBX 48 48 0 0
BITMAP
000ffffff000
000ffffff000
000ffffff000
000ffffff000
000ffffff000
000ffffff000
000ffffff000
000ffffff000
000ffffff000
000ffffff000
000ffffff000
000ffffff000
000000000000
000000000000
000000000000
000000000000
000000000000
000000000000
ffffffffffff
ffffffffffff
ffffffffffff
ffffffffffff
ffffffffffff
ffffffffffff
fc000000003f
fc000000003f
fc000000003f
fc000000003f
fc000000003f
fc000000003f
fc0ffffff03f
fc0ffffff03f
fc0ffffff03f
fc0ffffff03f
fc0ffffff03f
fc0ffffff03f
000ffffff000
000ffffff000
000ffffff000
000ffffff000
000ffffff000
000ffffff000
000ffffff000
000ffffff000
000ffffff000
000ffffff000
000ffffff000
000ffffff000
ENDCHAR
STARTCHAR /home/kraus/git/open-iconic/png/project-6x.png
ENCODING 237
DWIDTH 48 0
BBX 48 48 0 0
BITMAP
fc000000003f
fc000000003f
fc000000003f
fc000000003f
fc000000003f
fc000000003f
fc0fff00003f
fc0fff00003f
fc0fff00003f
fc0fff00003f
fc0fff00003f
fc0fff00003f
fc000000003f
fc000000003f
fc000000003f
fc000000003f
fc000000003f
fc000000003f
fc003ffc003f
fc003ffc003f
fc003ffc003f
fc003ffc003f
fc003ffc003f
fc003ffc003f
fc000000003f
fc000000003f
fc000000003f
fc000000003f
fc000000003f
fc000000003f
fc0000fff03f
fc0000fff03f
fc0000fff03f
fc0000fff03f
fc0000fff03f
fc0000fff03f
fc000000003f
fc000000003f
fc000000003f
fc000000003f
fc000000003f
fc000000003f
000000000000
000000000000
000000000000
000000000000
000000000000
000000000000
ENDCHAR
STARTCHAR /home/kraus/git/open-iconic/png/pulse-6x.png
ENCODING 238
DWIDTH 48 0
BBX 48 48 0 0
BITMAP
000000000000
000010000000
000010000000
000038000000
000038000000
000038000000
000038000000
00007c000000
00007c000000
00007c000000
0000fe000000
0000fe000000
0000fe008000
0001ff008000
0001ff00c000
0001ff01e000
0003ff81e000
0003ff83f000
0003ff83f000
0003ffc3f800
0007ffc7f800
0007efc7fc00
ffe7efefffff
ffffc7efffff
ffffc7ffffff
ffffc7ffffff
ffff83ffffff
ffff83ffbfff
01ff83ff8000
01ff81ff0000
00ff01ff0000
00ff01fe0000
00ff01fe0000
007e00fe0000
007e00fc0000
007e00fc0000
003c00780000
003c00780000
003c00780000
001800300000
001800300000
001800200000
000000000000
000000000000
000000000000
000000000000
000000000000
000000000000
ENDCHAR
STARTCHAR /home/kraus/git/open-iconic/png/puzzle-piece-6x.png
ENCODING 239
DWIDTH 48 0
BBX 48 48 0 0
BITMAP
0001f8000000
0003fc000000
0007fe000000
000ffe000000
000fff000000
000fff000000
000fff000000
000fff000000
0007fe000000
0007fe000000
0003fc000000
0003fc000000
fffffffff000
fffffffff000
fffffffff000
fffffffff000
fffffffff000
fffffffff000
fffffffff000
fffffffff000
fffffffff000
fffffffff000
fffffffff000
fffffffff000
fffffffff0f8
fffffffff3fc
fffffffffffe
fffffffffffe
ffffffffffff
ffffffffffff
ffffffffffff
ffffffffffff
fffffffffffe
fffffffffffe
fffffffff3fc
fffffffff0f0
fffe07fff000
fffc03fff000
fff801fff000
fff000fff000
fff000fff000
fff000fff000
fff000fff000
fff000fff000
fff801fff000
fff801fff000
fffc03fff000
fffc03fff000
ENDCHAR
STARTCHAR /home/kraus/git/open-iconic/png/question-mark-6x.png
ENCODING 240
DWIDTH 48 0
BBX 48 48 0 0
BITMAP
000003ff0000
00001fffe000
00007ffff800
0000fffffc00
0001fffffe00
0003ffffff00
0003fe01ff00
0007f8007f80
0007f0001f80
000fe0001fc0
000fc0000fc0
000fc0000fc0
000000000fc0
000000000fc0
000000000fc0
000000001f80
000000001f80
000000003f80
000000007f00
00000000ff00
00000001fe00
00000003fe00
00000007fc00
0000000ff800
0000001ff000
0000001fe000
0000003fc000
0000007f0000
0000007f0000
0000007e0000
000000fc0000
000000fc0000
000000fc0000
000000fc0000
000000fc0000
000000fc0000
000000000000
000000000000
000000000000
000000000000
000000000000
000000000000
000000fc0000
000000fc0000
000000fc0000
000000fc0000
000000fc0000
000000fc0000
ENDCHAR
STARTCHAR /home/kraus/git/open-iconic/png/rain-6x.png
ENCODING 241
DWIDTH 48 0
BBX 48 48 0 0
BITMAP
000001fe0000
00000fffc000
00001fffe000
00007ffff800
0000fffffc00
0001fffffe00
0003fffffe00
0003ffffff00
0007ffffff80
0007ffffff80
000fffffff80
000fffffffc0
007fffffffc0
03ffffffffc0
07ffffffffc0
0fffffffffc0
1fffffffffc0
3fffffffffc0
7fffffffffe0
7ffffffffff8
7ffffffffffc
fffffffffffc
fffffffffffe
fffffffffffe
ffffc0ffffff
ffff003fffff
fffe001fffff
7ffc000fffff
7ff80007ffff
7ff80007ffff
3c001e000ffe
10003f0003fe
00003f0001fc
00003f0000f8
00003f000070
00003f000000
01e03f01e000
03f03f03f000
03f03f03f000
03f03f03f000
03f03f03f000
03f03f03f000
03f03f03f000
03f03f03f000
03f03f03f000
03f03f03f000
03f03f03f000
01e01e01e000
ENDCHAR
STARTCHAR /home/kraus/git/open-iconic/png/random-6x.png
ENCODING 242
DWIDTH 48 0
BBX 48 48 0 0
BITMAP
000000000800
000000000c00
000000000e00
000000000f80
000000000fc0
000000000fe0
ff000003fff8
ffc00007fffc
ffe0000ffffe
fff0001ffffe
fff8001ffffc
fff8003ffff8
03fc007f8fe0
01fe00ff0fc0
00ff01fe0f80
007f81fc0e00
003fc3f80c00
001fe7f80800
000feff00000
000fffe00000
0007ffc00000
0003ff800000
0001ff800000
0000ff000000
0001ff800000
0003ffc00000
0003ffc00000
0007ffe00000
000ffff00000
001fe7f80000
003fc3fc0800
003f81fe0c00
007f00fe0e00
00ff00ff0f80
01fe007f8fc0
03fc003fcfe0
fff8001ffff8
fff0000ffffc
fff00007fffe
ffe00003fffe
ffc00001fffc
ff800000fff8
000000000fe0
000000000fc0
000000000f80
000000000e00
000000000c00
000000000800
ENDCHAR
STARTCHAR /home/kraus/git/open-iconic/png/reload-6x.png
ENCODING 243
DWIDTH 48 0
BBX 48 48 0 0
BITMAP
00001ff80000
0000ffff0003
0007ffffc007
000ffffff00f
003ffffffc1f
007ffffffe3f
00fff00fff7f
01ff8001ffff
03fe00007fff
07f800003fff
0ff000001fff
0fe000000fff
1fc000001fff
3f8000003fff
3f8000007fff
3f000000ffff
7f000001ffff
7e000003ffff
7e0000000000
fe0000000000
fc0000000000
fc0000000000
fc0000000000
fc0000000000
fc0000000000
fc0000000000
fc0000000000
fc0000000000
fe0000000000
7e0000000000
7e0000000000
7f0000000000
3f0000000000
3f8000000000
3f8000000000
1fc000000000
0fe000000000
0ff000000800
07f800001c00
03fe00007e00
01ff8001ff00
00fff00fff80
007ffffffe00
003ffffffc00
000ffffff800
0007ffffe000
0000ffff0000
00001ff80000
ENDCHAR
STARTCHAR /home/kraus/git/open-iconic/png/resize-both-6x.png
ENCODING 244
DWIDTH 48 0
BBX 48 48 0 0
BITMAP
0000007fffff
0000003fffff
0000001fffff
0000000fffff
00000007ffff
00000003ffff
00000001ffff
00000000ffff
000000007fff
000000003fff
000000007fff
00000000ffff
00000001ffff
00000003ffff
00000007fdff
0000000ff8ff
0000001ff07f
0000003fe03f
0000007fc01f
000000ff800f
000001ff0007
000003fe0003
000007fc0001
00000ff80000
80001ff00000
c0003fe00000
e0007fc00000
e000ff800000
f001ff000000
f803fe000000
fc07fc000000
fe0ff8000000
ff1ff0000000
ffbfe0000000
ffffc0000000
ffff80000000
ffff00000000
fffe00000000
fffc00000000
fffe00000000
ffff00000000
ffff80000000
ffffc0000000
ffffe0000000
fffff0000000
fffff8000000
fffffc000000
fffffe000000
ENDCHAR
STARTCHAR /home/kraus/git/open-iconic/png/resize-height-6x.png
ENCODING 245
DWIDTH 48 0
BBX 48 48 0 0
BITMAP
000000000000
00000c000000
00001e000000
00003f000000
00007f800000
0000ffc00000
0000ffc00000
0001ffe00000
0003fff00000
0007fff80000
000ffffc0000
001ffffe0000
001ffffe0000
003fffff0000
007fffff8000
00ffffffc000
01ffffffe000
03fffffff000
00003f000000
00003f000000
00003f000000
00003f000000
00003f000000
00003f000000
00003f000000
00003f000000
00003f000000
00003f000000
00003f000000
00003f000000
03fffffff000
01ffffffe000
00ffffffc000
007fffff8000
003fffff0000
001ffffe0000
001ffffe0000
000ffffc0000
0007fff80000
0003fff00000
0001ffe00000
0000ffc00000
0000ffc00000
00007f800000
00003f000000
00001e000000
00000c000000
000000000000
ENDCHAR
STARTCHAR /home/kraus/git/open-iconic/png/resize-width-6x.png
ENCODING 246
DWIDTH 48 0
BBX 48 48 0 0
BITMAP
000000000000
000000000000
000000000000
000000000000
000000000000
000000000000
000040020000
0000c0030000
0001c0038000
0003c003c000
0007c003e000
001fc003f800
003fc003fc00
007fc003fe00
00ffc003ff00
01ffc003ff80
07ffc003ffe0
0fffc003fff0
1ffffffffff8
3ffffffffffc
7ffffffffffe
7ffffffffffe
3ffffffffffc
1ffffffffff8
0fffc003fff0
07ffc003ffe0
01ffc003ff80
00ffc003ff00
007fc003fe00
003fc003fc00
001fc003f800
0007c003e000
0003c003c000
0001c0038000
0000c0030000
000040020000
000000000000
000000000000
000000000000
000000000000
000000000000
000000000000
000000000000
000000000000
000000000000
000000000000
000000000000
000000000000
ENDCHAR
STARTCHAR /home/kraus/git/open-iconic/png/rss-6x.png
ENCODING 247
DWIDTH 48 0
BBX 48 48 0 0
BITMAP
03f000000000
03ff80000000
03fff0000000
03fffe000000
03ffff800000
03ffffe00000
000ffff00000
0000fffc0000
00001ffe0000
000003ff8000
000001ffc000
0000007fe000
03e0001ff000
03fe000ff800
03ffc007fc00
03fff003fe00
03fffc01fe00
03fffe00ff00
001fff807f80
0003ffc03f80
00007fe01fc0
00003ff00fe0
00000ff80fe0
000007fc07f0
03c003fc07f0
03f801fe03f8
03fe00ff01f8
03ff807f01f8
03ffc03f81fc
03ffe03f80fc
007ff01fc0fc
000ff80fc0fe
0007f80fc07e
0003fc0fe07e
0001fc07e07e
0000fe07e07e
0f007e07e03f
3fc07e03f03f
7fe07f03f03f
7fe03f03f03f
fff03f03f03f
fff03f03f03f
fff000000000
fff000000000
7fe000000000
7fe000000000
3fc000000000
0f0000000000
ENDCHAR
STARTCHAR /home/kraus/git/open-iconic/png/rss-alt-6x.png
ENCODING 248
DWIDTH 48 0
BBX 48 48 0 0
BITMAP
fe0000000000
fff000000000
fffe00000000
ffffc0000000
fffff0000000
fffffc000000
ffffff000000
ffffffc00000
ffffffe00000
fffffff80000
fffffffc0000
fffffffe0000
03ffffff0000
003fffff8000
0007ffffc000
0000ffffe000
00003ffff000
00001ffff800
f80007fffc00
ff8003fffe00
fff001fffe00
fffc00ffff00
ffff007fff80
ffff803fff80
ffffe01fffc0
fffff00fffc0
fffff807ffe0
fffffc03ffe0
fffffe03fff0
ffffff01fff0
0fffff00fff8
01ffff80fff8
007fffc07ff8
001fffc07ffc
000fffe07ffc
0007ffe03ffc
e003fff03ffe
fc01fff03ffe
fe01fff01ffe
ff00fff81ffe
ff80fff81ffe
ffc07ff81fff
ffe07ff80fff
ffe07ffc0fff
ffe03ffc0fff
fff03ffc0fff
fff03ffc0fff
fff03ffc0fff
ENDCHAR
STARTCHAR /home/kraus/git/open-iconic/png/script-6x.png
ENCODING 249
DWIDTH 48 0
BBX 48 48 0 0
BITMAP
0000fffffff0
0003fffffffc
0007fffffffe
0007fffffffe
000fffffffff
000fffffffff
000fe1ffffff
000fc0ffffff
000fc0ffffff
000fc0ffffff
000fc0ffffff
000fc0ffffff
000fc0ffffff
000fc0ffffff
000fc0ffffff
000fc0ffffff
000fc0ffffff
000fc0ffffff
000fc0000000
000fc0000000
000fc0000000
000fc0000000
000fc0000000
000fc0000000
000fffffffc0
000fffffffc0
000fffffffc0
000fffffffc0
000fffffffc0
000fffffffc0
fc0fffffffc0
fc0fffffffc0
fc0fffffffc0
fc0fffffffc0
fc0fffffffc0
fc0fffffffc0
fc0fffffffc0
fc0fffffffc0
fc0fffffffc0
fc0fffffffc0
fc0fffffffc0
fe1fffffffc0
ffffffffffc0
ffffffffffc0
7fffffffff80
7fffffffff80
3fffffffff00
0ffffffffc00
ENDCHAR
STARTCHAR /home/kraus/git/open-iconic/png/share-6x.png
ENCODING 250
DWIDTH 48 0
BBX 48 48 0 0
BITMAP
000000020000
000000030000
000000038000
00000003c000
00000003e000
00000003f000
00000003f800
00000003fc00
00000003fe00
00000003ff00
00000003ff80
00000003ffc0
000003ffffe0
00007ffffff0
0003fffffff8
000ffffffffc
001ffffffffe
007fffffffff
00fffffffffe
01fffffffffc
03fffffffff8
07fffffffff0
0fffffffffe0
0fffffffffc0
1fffc003ff80
1ffe0003ff00
3ff00003fe00
3fc00003fc00
3f800003f800
7e000003f000
7c000003e000
78000003c000
780000038000
700000030000
e00000020000
e00000000000
c00000000000
c00000000000
800000000000
800000000000
000000000000
000000000000
000000000000
000000000000
000000000000
000000000000
000000000000
000000000000
ENDCHAR
STARTCHAR /home/kraus/git/open-iconic/png/share-boxed-6x.png
ENCODING 251
DWIDTH 48 0
BBX 48 48 0 0
BITMAP
1fffc0000000
7fffc0000800
7fffc0000c00
ffffc0000e00
ffffc0000f00
ffffc0000f80
fc000001ffc0
fc00000fffe0
fc00007ffff8
fc0000fffffc
fc0003fffffe
fc0007ffffff
fc000ffffffe
fc001ffffffc
fc003ffffff8
fc007ffffff0
fc00ffffffe0
fc00ffffffc0
fc01f0000f80
fc01c0000f00
fc0380000e00
fc0300000c00
fc0600000800
fc0400000000
fc0000000000
fc0000000000
fc0000000000
fc0000000000
fc0000000000
fc0000000000
fc000003f000
fc000003f000
fc000003f000
fc000003f000
fc000003f000
fc000003f000
fffffffff000
fffffffff000
fffffffff000
ffffffffe000
7fffffffe000
1fffffff8000
000000000000
000000000000
000000000000
000000000000
000000000000
000000000000
ENDCHAR
STARTCHAR /home/kraus/git/open-iconic/png/shield-6x.png
ENCODING 252
DWIDTH 48 0
BBX 48 48 0 0
BITMAP
000001800000
000007e00000
00003ffc0000
0000ffff0000
0007ffffe000
001ffffff800
007ffffffe00
03fffcffffc0
0fffe0fffff0
3fff80fffffc
fffe00ffffff
fff000ffffff
ffc000ffffff
fe0000ffffff
fc0000ffffff
fc0000ffffff
fe0000ffffff
fe0000ffffff
7e0000fffffe
7e0000fffffe
7e0000fffffe
7f0000fffffe
7f0000fffffc
3f0000fffffc
3f8000fffffc
3f8000fffffc
1fc000fffff8
1fc000fffff8
0fc000fffff0
0fe000fffff0
07f000ffffe0
07f000ffffe0
03f800ffffc0
03fc00ffffc0
01fc00ffff80
00fe00ffff00
00ff00ffff00
007f80fffe00
003fc0fffc00
001fe0fff800
000ff8fff000
0007fcffe000
0003ffffc000
0001ffff8000
0000ffff0000
00007ffe0000
00001ff80000
000007e00000
ENDCHAR
STARTCHAR /home/kraus/git/open-iconic/png/signal-6x.png
ENCODING 253
DWIDTH 48 0
BBX 48 48 0 0
BITMAP
000000000fc0
000000000fc0
000000000fc0
000000000fc0
000000000fc0
000000000fc0
000000fc0fc0
000000fc0fc0
000000fc0fc0
000000fc0fc0
000000fc0fc0
000000fc0fc0
000000fc0fc0
000000fc0fc0
000000fc0fc0
000000fc0fc0
000000fc0fc0
000000fc0fc0
000fc0fc0fc0
000fc0fc0fc0
000fc0fc0fc0
000fc0fc0fc0
000fc0fc0fc0
000fc0fc0fc0
000fc0fc0fc0
000fc0fc0fc0
000fc0fc0fc0
000fc0fc0fc0
000fc0fc0fc0
000fc0fc0fc0
fc0fc0fc0fc0
fc0fc0fc0fc0
fc0fc0fc0fc0
fc0fc0fc0fc0
fc0fc0fc0fc0
fc0fc0fc0fc0
fc0fc0fc0fc0
fc0fc0fc0fc0
fc0fc0fc0fc0
fc0fc0fc0fc0
fc0fc0fc0fc0
fc0fc0fc0fc0
fc0fc0fc0fc0
fc0fc0fc0fc0
fc0fc0fc0fc0
fc0fc0fc0fc0
fc0fc0fc0fc0
fc0fc0fc0fc0
ENDCHAR
STARTCHAR /home/kraus/git/open-iconic/png/signpost-6x.png
ENCODING 254
DWIDTH 48 0
BBX 48 48 0 0
BITMAP
00003f000000
00003f000000
00003f000000
00003f000000
00003f000000
00003f000000
03ffff000000
07ffff000000
0fffff000000
1fffff000000
3fffff000000
7fffff000000
7ffffffff000
3ffffffff800
1ffffffffc00
0ffffffffe00
07ffffffff00
03ffffffff80
00003fffff80
00003fffff00
00003ffffe00
00003ffffc00
00003ffff800
00003ffff000
00003f000000
00003f000000
00003f000000
00003f000000
00003f000000
00003f000000
00003f000000
00003f000000
00003f000000
00003f000000
00003f000000
00003f000000
00003f000000
00003f000000
00003f000000
00003f000000
00003f000000
00003f000000
00003f000000
00003f000000
00003f000000
00003f000000
00003f000000
00003f000000
ENDCHAR
STARTCHAR /home/kraus/git/open-iconic/png/sort-ascending-6x.png
ENCODING 255
DWIDTH 48 0
BBX 48 48 0 0
BITMAP
000fc0fff000
000fc0fff000
000fc0fff000
000fc0fff000
000fc0fff000
000fc0fff000
000fc0000000
000fc0000000
000fc0000000
000fc0000000
000fc0000000
000fc0000000
000fc0ffffc0
000fc0ffffc0
000fc0ffffc0
000fc0ffffc0
000fc0ffffc0
000fc0ffffc0
000fc0000000
000fc0000000
000fc0000000
000fc0000000
000fc0000000
000fc0000000
000fc0ffffff
000fc0ffffff
000fc0ffffff
000fc0ffffff
000fc0ffffff
000fc0ffffff
000fc0000000
000fc0000000
000fc0000000
000fc0000000
000fc0000000
000fc0000000
7ffffff80000
3ffffff00000
1fffffe00000
0fffffc00000
03ffff000000
01fffe000000
00fffc000000
007ff8000000
001fe0000000
000fc0000000
000780000000
000300000000
ENDCHAR
STARTCHAR /home/kraus/git/open-iconic/png/sort-descending-6x.png
ENCODING 256
DWIDTH 48 0
BBX 48 48 0 0
BITMAP
000fc0ffffff
000fc0ffffff
000fc0ffffff
000fc0ffffff
000fc0ffffff
000fc0ffffff
000fc0000000
000fc0000000
000fc0000000
000fc0000000
000fc0000000
000fc0000000
000fc0ffffc0
000fc0ffffc0
000fc0ffffc0
000fc0ffffc0
000fc0ffffc0
000fc0ffffc0
000fc0000000
000fc0000000
000fc0000000
000fc0000000
000fc0000000
000fc0000000
000fc0fff000
000fc0fff000
000fc0fff000
000fc0fff000
000fc0fff000
000fc0fff000
000fc0000000
000fc0000000
000fc0000000
000fc0000000
000fc0000000
000fc0000000
7ffffff80000
3ffffff00000
1fffffe00000
0fffffc00000
03ffff000000
01fffe000000
00fffc000000
007ff8000000
001fe0000000
000fc0000000
000780000000
000300000000
ENDCHAR
STARTCHAR /home/kraus/git/open-iconic/png/spreadsheet-6x.png
ENCODING 257
DWIDTH 48 0
BBX 48 48 0 0
BITMAP
1ffffffffffc
7ffffffffffe
7ffffffffffe
ffffffffffff
ffffffffffff
ffffffffffff
fc0fc000003f
fc0fc000003f
fc0fc000003f
fc0fc000003f
fc0fc000003f
fc0fc000003f
ffffffffffff
ffffffffffff
ffffffffffff
ffffffffffff
ffffffffffff
ffffffffffff
fc0fc000003f
fc0fc000003f
fc0fc000003f
fc0fc000003f
fc0fc000003f
fc0fc000003f
ffffffffffff
ffffffffffff
ffffffffffff
ffffffffffff
ffffffffffff
ffffffffffff
fc0fc000003f
fc0fc000003f
fc0fc000003f
fc0fc000003f
fc0fc000003f
fc0fc000003f
ffffffffffff
ffffffffffff
ffffffffffff
fffffffffffe
7ffffffffffe
1ffffffffff8
000000000000
000000000000
000000000000
000000000000
000000000000
000000000000
ENDCHAR
STARTCHAR /home/kraus/git/open-iconic/png/star-6x.png
ENCODING 258
DWIDTH 48 0
BBX 48 48 0 0
BITMAP
000000000000
000000000000
000001800000
000001800000
000001800000
000003c00000
000003c00000
000003c00000
000007e00000
000007e00000
000007e00000
00000ff00000
00000ff00000
00000ff00000
00001ff80000
00001ff80000
00001ff80000
00003ffc0000
7ffffffffffe
3ffffffffffc
1ffffffffff8
0ffffffffff0
03ffffffffc0
01ffffffff80
00ffffffff00
007ffffffe00
001ffffff800
000ffffff000
0007ffffe000
0003ffffc000
0001ffff8000
0001ffff8000
0003ffffc000
0003ffffc000
0003ffffc000
0007ffffe000
0007fe7fe000
0007fc3fe000
000ff81ff000
000ff00ff000
000fc003f000
001f8001f800
001f0000f800
001e00007800
003800001c00
003000000c00
002000000400
000000000000
ENDCHAR
STARTCHAR /home/kraus/git/open-iconic/png/sun-6x.png
ENCODING 259
DWIDTH 48 0
BBX 48 48 0 0
BITMAP
000003c00000
000007e00000
000007e00000
000007e00000
000007e00000
000003c00000
01e000000780
03f000000fc0
03f000000fc0
03f000000fc0
03f000000fc0
01e000000780
000007e00000
00003ffc0000
00007ffe0000
0000ffff0000
0001ffff8000
0003ffffc000
0007ffffe000
0007ffffe000
0007ffffe000
780ffffff01e
fc0ffffff03f
fc0ffffff03f
fc0ffffff03f
fc0ffffff03f
780ffffff01e
0007ffffe000
0007ffffe000
0007ffffe000
0003ffffc000
0001ffff8000
0000ffff0000
00007ffe0000
00003ffc0000
000007e00000
01e000000780
03f000000fc0
03f000000fc0
03f000000fc0
03f000000fc0
01e000000780
000003c00000
000007e00000
000007e00000
000007e00000
000007e00000
000003c00000
ENDCHAR
STARTCHAR /home/kraus/git/open-iconic/png/tablet-6x.png
ENCODING 260
DWIDTH 48 0
BBX 48 48 0 0
BITMAP
7fffffffff80
ffffffffffc0
ffffffffffc0
ffffffffffc0
ffffffffffc0
ffffffffffc0
fc0000000fc0
fc0000000fc0
fc0000000fc0
fc0000000fc0
fc0000000fc0
fc0000000fc0
fc0000000fc0
fc0000000fc0
fc0000000fc0
fc0000000fc0
fc0000000fc0
fc0000000fc0
fc0000000fc0
fc0000000fc0
fc0000000fc0
fc0000000fc0
fc0000000fc0
fc0000000fc0
fc0000000fc0
fc0000000fc0
fc0000000fc0
fc0000000fc0
fc0000000fc0
fc0000000fc0
fc0000000fc0
fc0000000fc0
fc0000000fc0
fc0000000fc0
fc0000000fc0
fc0000000fc0
ffffffffffc0
ffffffffffc0
ffffffffffc0
ffffe1ffffc0
ffffc0ffffc0
ffffc0ffffc0
ffffc0ffffc0
ffffc0ffffc0
ffffe1ffffc0
ffffffffffc0
ffffffffffc0
7fffffffff80
ENDCHAR
STARTCHAR /home/kraus/git/open-iconic/png/tag-6x.png
ENCODING 261
DWIDTH 48 0
BBX 48 48 0 0
BITMAP
ffffc0000000
ffffe0000000
fffff0000000
fffff8000000
fffffc000000
fffffe000000
ffc3ff000000
ff00ff800000
fe007fc00000
fe007fe00000
fc003ff00000
fc003ff80000
fc003ffc0000
fc003ffe0000
fe007fff0000
fe007fff8000
ff00ffffc000
ffc3ffffe000
7ffffffff000
3ffffffff800
1ffffffffc00
0ffffffffe00
07ffffffff00
03ffffffff80
01ffffffffc0
00ffffffffe0
007ffffffff0
003ffffffff8
001ffffffffc
000ffffffffe
0007fffffffe
0003fffffffc
0001fffffff8
0000fffffff0
00007fffffe0
00003fffffc0
00001fffff80
00000fffff00
000007fffe00
000003fffc00
000001fff800
000000fff000
0000007fe000
0000003fc000
0000001f8000
0000000f0000
000000060000
000000000000
ENDCHAR
STARTCHAR /home/kraus/git/open-iconic/png/tags-6x.png
ENCODING 262
DWIDTH 48 0
BBX 48 48 0 0
BITMAP
000000000000
000000000000
000000000000
000000000000
000000000000
000000000000
fff007fc0000
fff803fe0000
fffc01ff0000
fffe00ff8000
ffff007fc000
ffff803fe000
fe1fc01ff000
fc0fe00ff800
fc0ff007fc00
fc0ff803fe00
fc0ffc01ff00
fe1ffe00ff80
7fffff007fc0
3fffff803fe0
1fffffc01ff0
0fffffe00ff8
07fffff007fc
03fffff803fe
01fffff803fe
00fffff007fc
007fffe00ff8
003fffc01ff0
001fff803fe0
000fff007fc0
0007fe00ff80
0003fc00ff00
0001f8007e00
0000f0003c00
000060001800
000000000000
000000000000
000000000000
000000000000
000000000000
000000000000
000000000000
000000000000
000000000000
000000000000
000000000000
000000000000
000000000000
ENDCHAR
STARTCHAR /home/kraus/git/open-iconic/png/target-6x.png
ENCODING 263
DWIDTH 48 0
BBX 48 48 0 0
BITMAP
00001ff80000
0000ffff0000
0007ffffe000
000ffffff000
003ffffffc00
007ffffffe00
00fff00fff00
01ff8001ff80
03fe00007fc0
07f800001fe0
0ff000000ff0
0fe0000007f0
1fc007e003f8
3f803ffc01fc
3f807ffe01fc
3f00ffff00fc
7f01ffff80fe
7e03ffffc07e
7e07fc3fe07e
fe07f00fe07f
fc07e007e03f
fc0fe007f03f
fc0fc003f03f
fc0fc003f03f
fc0fc003f03f
fc0fc003f03f
fc0fe007f03f
fc07e007e03f
fe07f00fe07f
7e07fc3fe07e
7e03ffffc07e
7f01ffff80fe
3f00ffff00fc
3f807ffe01fc
3f803ffc01fc
1fc007e003f8
0fe0000007f0
0ff000000ff0
07f800001fe0
03fe00007fc0
01ff8001ff80
00fff00fff00
007ffffffe00
003ffffffc00
000ffffff000
0007ffffe000
0000ffff0000
00001ff80000
ENDCHAR
STARTCHAR /home/kraus/git/open-iconic/png/task-6x.png
ENCODING 264
DWIDTH 48 0
BBX 48 48 0 0
BITMAP
ffffffff8000
ffffffff0060
fffffffe00f0
fffffffc01f8
fffffff803fc
fffffff007fe
fc0000000ffe
fc0000001ffc
fc0000003ff8
fc0000007ff0
fc000000ffe0
fc000001ffc0
fc000003ff80
fc006007ff00
fc00f00ffe00
fc01f81ffc00
fc03fc3ff800
fc07fe7ff000
fc07ffffe000
fc03ffffc000
fc01ffff8000
fc00ffff0040
fc007ffe00c0
fc003ffc01c0
fc001ff803c0
fc000ff007c0
fc0007e00fc0
fc0003c00fc0
fc0001800fc0
fc0000000fc0
fc0000000fc0
fc0000000fc0
fc0000000fc0
fc0000000fc0
fc0000000fc0
fc0000000fc0
ffffffffffc0
ffffffffffc0
ffffffffffc0
ffffffffffc0
ffffffffffc0
ffffffffffc0
000000000000
000000000000
000000000000
000000000000
000000000000
000000000000
ENDCHAR
STARTCHAR /home/kraus/git/open-iconic/png/terminal-6x.png
ENCODING 265
DWIDTH 48 0
BBX 48 48 0 0
BITMAP
ffffffffffff
ffffffffffff
ffffffffffff
ffffffffffff
ffffffffffff
ff3fffffffff
fe1fffffffff
fc0fffffffff
f807ffffffff
f803ffffffff
fc01ffffffff
fe00ffffffff
ff007fffffff
ff803fffffff
ffc01fffffff
ffc01fffffff
ff803fffffff
ff007fffffff
fe00ff00003f
fc01ff00003f
f803ff00003f
f807ff00003f
fc0fff00003f
fe1fff00003f
ff3fffffffff
ffffffffffff
ffffffffffff
ffffffffffff
ffffffffffff
ffffffffffff
ffffffffffff
ffffffffffff
ffffffffffff
ffffffffffff
ffffffffffff
ffffffffffff
ffffffffffff
ffffffffffff
ffffffffffff
ffffffffffff
ffffffffffff
ffffffffffff
ffffffffffff
ffffffffffff
ffffffffffff
ffffffffffff
ffffffffffff
ffffffffffff
ENDCHAR
STARTCHAR /home/kraus/git/open-iconic/png/text-6x.png
ENCODING 266
DWIDTH 48 0
BBX 48 48 0 0
BITMAP
ffffffffffff
ffffffffffff
ffffffffffff
ffffffffffff
ffffffffffff
ffffffffffff
fe003ffc007f
f8003ffc001f
f0003ffc000f
f0003ffc000f
e0003ffc0007
e0003ffc0007
00003ffc0000
00003ffc0000
00003ffc0000
00003ffc0000
00003ffc0000
00003ffc0000
00003ffc0000
00003ffc0000
00003ffc0000
00003ffc0000
00003ffc0000
00003ffc0000
00003ffc0000
00003ffc0000
00003ffc0000
00003ffc0000
00003ffc0000
00003ffc0000
00003ffc0000
00003ffc0000
00003ffc0000
00003ffc0000
00003ffc0000
00003ffc0000
00003ffc0000
00003ffc0000
00003ffc0000
00003ffc0000
00003ffc0000
00007ffe0000
000ffffff000
000ffffff000
000ffffff000
000ffffff000
000ffffff000
000ffffff000
ENDCHAR
STARTCHAR /home/kraus/git/open-iconic/png/thumb-down-6x.png
ENCODING 267
DWIDTH 48 0
BBX 48 48 0 0
BITMAP
fc0fffffe000
fc0ffffff000
fc0ffffff000
fc0ffffff000
fc0ffffff800
fc0ffffff800
fc0ffffff800
fc0ffffffc00
fc0ffffffc00
fc0ffffffc00
fc0ffffffe00
fc0ffffffe00
fc0ffffffe00
fc0fffffff00
fc0fffffff00
fc0fffffff00
fc0fffffff80
fc0fffffff80
fc0fffffff80
fc0fffffffc0
fc0fffffffc0
fc0fffffffc0
fc0fffffffc0
fc0fffffff80
0001fff00000
0000ffe00000
00007fe00000
00003fe00000
00003fe00000
00001fe00000
00001ff00000
00000ff00000
00000ff00000
000007f00000
000007f80000
000003f80000
000003f80000
000001fc0000
000001fc0000
000000fc0000
000000fc0000
000000780000
000000000000
000000000000
000000000000
000000000000
000000000000
000000000000
ENDCHAR
STARTCHAR /home/kraus/git/open-iconic/png/thumb-up-6x.png
ENCODING 268
DWIDTH 48 0
BBX 48 48 0 0
BITMAP
000000780000
000000fc0000
000000fc0000
000001fc0000
000001fc0000
000003f80000
000003f80000
000007f80000
000007f00000
00000ff00000
00000ff00000
00001ff00000
00001fe00000
00003fe00000
00007fe00000
00007fe00000
0000ffe00000
0001fff00000
fc0fffffff80
fc0fffffffc0
fc0fffffffc0
fc0fffffffc0
fc0fffffffc0
fc0fffffff80
fc0fffffff80
fc0fffffff80
fc0fffffff00
fc0fffffff00
fc0fffffff00
fc0ffffffe00
fc0ffffffe00
fc0ffffffe00
fc0ffffffc00
fc0ffffffc00
fc0ffffffc00
fc0ffffff800
fc0ffffff800
fc0ffffff800
fc0ffffff000
fc0ffffff000
fc0ffffff000
fc0fffffe000
000000000000
000000000000
000000000000
000000000000
000000000000
000000000000
ENDCHAR
STARTCHAR /home/kraus/git/open-iconic/png/timer-6x.png
ENCODING 269
DWIDTH 48 0
BBX 48 48 0 0
BITMAP
000ffffc0000
000ffffc0000
000ffffc0000
000ffffc0000
000ffffc0000
000ffffc0000
0000ff800000
0007fff00000
001ffff00080
007ffff00100
00ffffe00600
01ffffe00c00
03ff80401800
07fe00003000
0ff80000f000
1fe00001e000
1fc00003c000
3f80000f8000
3f80001f0000
7f00003e0000
7e00007e0380
7e0001fc0f80
7e0003f81f80
fc0007f00fc0
fc001fe00fc0
fc001fc00fc0
fc003f800fc0
fc003f000fc0
fc001f000fc0
fc001e000fc0
fc0000000fc0
7e0000001f80
7e0000001f80
7e0000001f80
7f0000003f80
3f8000007f00
3f8000007f00
1fc00000fe00
1fe00001fe00
0ff80007fc00
07fc000ff800
03ff807ff000
01ffffffe000
00ffffffc000
007fffff8000
001ffffe0000
0007fff80000
00007f800000
ENDCHAR
STARTCHAR /home/kraus/git/open-iconic/png/transfer-6x.png
ENCODING 270
DWIDTH 48 0
BBX 48 48 0 0
BITMAP
000000000800
000000000c00
000000000e00
000000000f80
000000000fc0
000000000fe0
fffffffffff8
fffffffffffc
fffffffffffe
fffffffffffe
fffffffffffc
fffffffffff8
000000000fe0
000000000fc0
000000000f80
000000000e00
000000000c00
000000000800
000000000000
000000000000
000000000000
000000000000
000000000000
000000000000
001000000000
003000000000
007000000000
01f000000000
03f000000000
07f000000000
1fffffffffff
3fffffffffff
7fffffffffff
7fffffffffff
3fffffffffff
1fffffffffff
07f000000000
03f000000000
01f000000000
007000000000
003000000000
001000000000
000000000000
000000000000
000000000000
000000000000
000000000000
000000000000
ENDCHAR
STARTCHAR /home/kraus/git/open-iconic/png/trash-6x.png
ENCODING 271
DWIDTH 48 0
BBX 48 48 0 0
BITMAP
0000ffc00000
0003fff00000
0007fff80000
0007fff80000
000ffffc0000
000ffffc0000
0ffffffffc00
3fffffffff00
7fffffffff80
7fffffffff80
ffffffffffc0
ffffffffffc0
000000000000
000000000000
000000000000
000000000000
000000000000
000000000000
03f03f03f000
03f03f03f000
03f03f03f000
03f03f03f000
03f03f03f000
03f03f03f000
03f03f03f000
03f03f03f000
03f03f03f000
03f03f03f000
03f03f03f000
03f03f03f000
03f03f03f000
03f03f03f000
03f03f03f000
03f03f03f000
03f03f03f000
03f03f03f000
03f03f03f000
03f03f03f000
03f03f03f000
03f03f03f000
03f03f03f000
03f87f87f000
03fffffff000
03fffffff000
03fffffff000
03fffffff000
03fffffff000
03fffffff000
ENDCHAR
STARTCHAR /home/kraus/git/open-iconic/png/underline-6x.png
ENCODING 272
DWIDTH 48 0
BBX 48 48 0 0
BITMAP
03ffc003f000
03ffc003f000
03ffc003f000
03ffc003f000
03ffc003f000
03ffc003f000
03ffc003f000
03ffc003f000
03ffc003f000
03ffc003f000
03ffc003f000
03ffc003f000
03ffc003f000
03ffc003f000
03ffc003f000
03ffc003f000
03ffc003f000
03ffc003f000
03ffc003f000
03ffc003f000
03ffc003f000
03ffc003f000
03ffc003f000
03ffc003f000
03ffc003f000
03ffc003f000
03ffe007f000
01ffe007e000
01fff00fe000
00fffc3fe000
00ffffffc000
007fffff8000
003fffff0000
000ffffe0000
0003fffc0000
00007fe00000
000000000000
000000000000
000000000000
000000000000
000000000000
000000000000
ffffffffffc0
ffffffffffc0
ffffffffffc0
ffffffffffc0
ffffffffffc0
ffffffffffc0
ENDCHAR
STARTCHAR /home/kraus/git/open-iconic/png/vertical-align-bottom-6x.png
ENCODING 273
DWIDTH 48 0
BBX 48 48 0 0
BITMAP
fff000000fff
fff000000fff
fff000000fff
fff000000fff
fff000000fff
fff000000fff
fff000000fff
fff000000fff
fff000000fff
fff000000fff
fff000000fff
fff000000fff
fff03ffc0fff
fff03ffc0fff
fff03ffc0fff
fff03ffc0fff
fff03ffc0fff
fff03ffc0fff
fff03ffc0fff
fff03ffc0fff
fff03ffc0fff
fff03ffc0fff
fff03ffc0fff
fff03ffc0fff
fff03ffc0fff
fff03ffc0fff
fff03ffc0fff
fff03ffc0fff
fff03ffc0fff
fff03ffc0fff
000000000000
000000000000
000000000000
000000000000
000000000000
000000000000
ffffffffffff
ffffffffffff
ffffffffffff
ffffffffffff
ffffffffffff
ffffffffffff
000000000000
000000000000
000000000000
000000000000
000000000000
000000000000
ENDCHAR
STARTCHAR /home/kraus/git/open-iconic/png/vertical-align-center-6x.png
ENCODING 274
DWIDTH 48 0
BBX 48 48 0 0
BITMAP
fff000000fff
fff000000fff
fff000000fff
fff000000fff
fff000000fff
fff000000fff
fff03ffc0fff
fff03ffc0fff
fff03ffc0fff
fff03ffc0fff
fff03ffc0fff
fff03ffc0fff
000000000000
000000000000
000000000000
000000000000
000000000000
000000000000
ffffffffffff
ffffffffffff
ffffffffffff
ffffffffffff
ffffffffffff
ffffffffffff
000000000000
000000000000
000000000000
000000000000
000000000000
000000000000
fff03ffc0fff
fff03ffc0fff
fff03ffc0fff
fff03ffc0fff
fff03ffc0fff
fff03ffc0fff
fff000000fff
fff000000fff
fff000000fff
fff000000fff
fff000000fff
fff000000fff
000000000000
000000000000
000000000000
000000000000
000000000000
000000000000
ENDCHAR
STARTCHAR /home/kraus/git/open-iconic/png/vertical-align-top-6x.png
ENCODING 275
DWIDTH 48 0
BBX 48 48 0 0
BITMAP
ffffffffffff
ffffffffffff
ffffffffffff
ffffffffffff
ffffffffffff
ffffffffffff
000000000000
000000000000
000000000000
000000000000
000000000000
000000000000
fff03ffc0fff
fff03ffc0fff
fff03ffc0fff
fff03ffc0fff
fff03ffc0fff
fff03ffc0fff
fff03ffc0fff
fff03ffc0fff
fff03ffc0fff
fff03ffc0fff
fff03ffc0fff
fff03ffc0fff
fff03ffc0fff
fff03ffc0fff
fff03ffc0fff
fff03ffc0fff
fff03ffc0fff
fff03ffc0fff
fff000000fff
fff000000fff
fff000000fff
fff000000fff
fff000000fff
fff000000fff
fff000000fff
fff000000fff
fff000000fff
fff000000fff
fff000000fff
fff000000fff
000000000000
000000000000
000000000000
000000000000
000000000000
000000000000
ENDCHAR
STARTCHAR /home/kraus/git/open-iconic/png/video-6x.png
ENCODING 276
DWIDTH 48 0
BBX 48 48 0 0
BITMAP
000000000000
000000000000
000000000000
000000000000
000000000000
000000000000
7fffffffe000
fffffffff000
fffffffff000
fffffffff000
fffffffff000
fffffffff000
fffffffff03f
fffffffff07f
fffffffff0ff
fffffffff1ff
fffffffff3ff
fffffffff7ff
ffffffffffff
ffffffffffff
ffffffffffff
ffffffffffff
ffffffffffff
ffffffffffff
fffffffff7ff
fffffffff3ff
fffffffff1ff
fffffffff0ff
fffffffff07f
fffffffff03f
fffffffff000
fffffffff000
fffffffff000
fffffffff000
fffffffff000
7fffffffe000
000000000000
000000000000
000000000000
000000000000
000000000000
000000000000
000000000000
000000000000
000000000000
000000000000
000000000000
000000000000
ENDCHAR
STARTCHAR /home/kraus/git/open-iconic/png/volume-high-6x.png
ENCODING 277
DWIDTH 48 0
BBX 48 48 0 0
BITMAP
00000f000000
00001f000000
00003f000000
00003f000000
00007f000000
0000ff000000
0000ff03c000
0001ff03f800
0003ff03fe00
0003ff03ff80
0007ff03ffc0
000fff03ffe0
ffffff003ff0
ffffff000ff8
ffffff0007f8
ffffff0003fc
ffffff0001fc
ffffff0000fe
ffffff03007e
ffffff03c07e
ffffff03e07f
ffffff03e03f
ffffff03f03f
ffffff03f03f
ffffff03f03f
ffffff03f03f
ffffff03e03f
ffffff03e07f
ffffff03c07e
ffffff03007e
ffffff0000fe
ffffff0001fc
ffffff0003fc
ffffff0007f8
ffffff000ff8
ffffff007ff0
000fff03ffe0
0007ff03ffc0
0003ff03ff80
0003ff03fe00
0001ff03f800
0000ff03c000
0000ff000000
00007f000000
00003f000000
00003f000000
00001f000000
00000f000000
ENDCHAR
STARTCHAR /home/kraus/git/open-iconic/png/volume-low-6x.png
ENCODING 278
DWIDTH 48 0
BBX 48 48 0 0
BITMAP
0000003c0000
0000007c0000
000000fc0000
000000fc0000
000001fc0000
000003fc0000
000003fc0000
000007fc0000
00000ffc0000
00000ffc0000
00001ffc0000
00003ffc0000
03fffffc0000
03fffffc0000
03fffffc0000
03fffffc0000
03fffffc0000
03fffffc0000
03fffffc0c00
03fffffc0f00
03fffffc0f80
03fffffc0f80
03fffffc0fc0
03fffffc0fc0
03fffffc0fc0
03fffffc0fc0
03fffffc0f80
03fffffc0f80
03fffffc0f00
03fffffc0c00
03fffffc0000
03fffffc0000
03fffffc0000
03fffffc0000
03fffffc0000
03fffffc0000
00003ffc0000
00001ffc0000
00000ffc0000
00000ffc0000
000007fc0000
000003fc0000
000003fc0000
000001fc0000
000000fc0000
000000fc0000
0000007c0000
0000003c0000
ENDCHAR
STARTCHAR /home/kraus/git/open-iconic/png/volume-off-6x.png
ENCODING 279
DWIDTH 48 0
BBX 48 48 0 0
BITMAP
00000000f000
00000001f000
00000003f000
00000003f000
00000007f000
0000000ff000
0000000ff000
0000001ff000
0000003ff000
0000003ff000
0000007ff000
000000fff000
000ffffff000
000ffffff000
000ffffff000
000ffffff000
000ffffff000
000ffffff000
000ffffff000
000ffffff000
000ffffff000
000ffffff000
000ffffff000
000ffffff000
000ffffff000
000ffffff000
000ffffff000
000ffffff000
000ffffff000
000ffffff000
000ffffff000
000ffffff000
000ffffff000
000ffffff000
000ffffff000
000ffffff000
000000fff000
0000007ff000
0000003ff000
0000003ff000
0000001ff000
0000000ff000
0000000ff000
00000007f000
00000003f000
00000003f000
00000001f000
00000000f000
ENDCHAR
STARTCHAR /home/kraus/git/open-iconic/png/warning-6x.png
ENCODING 280
DWIDTH 48 0
BBX 48 48 0 0
BITMAP
00003f000000
00007f000000
00007f800000
0000ff800000
0000ffc00000
0000ffc00000
0001ffe00000
0001ffe00000
0003ffe00000
0003fff00000
0007fff00000
0007fff80000
0007fff80000
000ffffc0000
000ffffc0000
001ffffe0000
001ffffe0000
003ffffe0000
003fc0ff0000
003fc0ff0000
007fc0ff8000
007fc0ff8000
00ffc0ffc000
00ffc0ffc000
01ffc0ffc000
01ffc0ffe000
01ffc0ffe000
03ffc0fff000
03ffc0fff000
07ffc0fff800
07fffffff800
0ffffffff800
0ffffffffc00
0ffffffffc00
1ffffffffe00
1ffffffffe00
3fffc0ffff00
3fffc0ffff00
7fffc0ffff00
7fffc0ffff80
ffffc0ffff80
ffffc0ffffc0
ffffffffffc0
ffffffffffc0
ffffffffffc0
ffffffffffc0
ffffffffffc0
ffffffffffc0
ENDCHAR
STARTCHAR /home/kraus/git/open-iconic/png/wifi-6x.png
ENCODING 281
DWIDTH 48 0
BBX 48 48 0 0
BITMAP
0000fff80000
001fffffc000
00fffffff800
03fffffffe00
0fffffffffc0
3fffffffffe0
ffff0007fff8
7ff000007ff8
7f8000000ff0
3e00000001e0
180000000060
000000000000
000000000000
000000000000
000000000000
000000000000
000000000000
000000000000
00003fe00000
0003fffe0000
000fffff8000
003fffffe000
003fffffe000
001fffffc000
001fc01fc000
000e00038000
000000000000
000000000000
000000000000
000000000000
000000000000
000000000000
000000000000
000000000000
000000000000
000000000000
00000f800000
00001fc00000
00003fe00000
00007ff00000
00007ff00000
00007ff00000
00007ff00000
00007ff00000
00007ff00000
00003fe00000
00001fc00000
00000f800000
ENDCHAR
STARTCHAR /home/kraus/git/open-iconic/png/wrench-6x.png
ENCODING 282
DWIDTH 48 0
BBX 48 48 0 0
BITMAP
00000007e000
0000003fe000
0000007fc000
000001ff8000
000003ff0000
000007fe0000
000007fc0000
00000ffc0000
00001ffc0000
00001ffc0000
00001ffc0000
00003ffc0000
00003ffc0000
00003ffc0001
00003ffc0003
00003ffc0007
00003ffc000f
00003ffc001f
00003fffffff
00001ffffffe
00001ffffffe
00003ffffffe
00007ffffffc
0000fffffff8
0001fffffff8
0003fffffff0
0007ffffffe0
000fffffff80
001fffffff00
003fffe7f800
007fffc00000
00ffff800000
01ffff000000
03fffe000000
07fffc000000
0ffff8000000
1ffff0000000
3fffe0000000
7fffc0000000
f0ff80000000
e07f00000000
e07e00000000
e07c00000000
e07800000000
f0f000000000
7fe000000000
3fc000000000
1f8000000000
ENDCHAR
STARTCHAR /home/kraus/git/open-iconic/png/x-6x.png
ENCODING 283
DWIDTH 48 0
BBX 48 48 0 0
BITMAP
008000000200
01c000000700
03e000000f80
07f000001fc0
0ff800003fe0
1ffc00007ff0
3ffe0000fff8
7fff0001fffc
ffff8003fffe
7fffc007fffc
3fffe00ffff8
1ffff01ffff0
0ffff83fffe0
07fffc7fffc0
03fffeffff80
01ffffffff00
00fffffffe00
007ffffffc00
003ffffff800
001ffffff000
000fffffe000
0007ffffc000
0003ffff8000
0001ffff0000
0003ffff8000
0007ffffc000
000fffffe000
001ffffff000
003ffffff800
007ffffffc00
00fffffffe00
01ffffffff00
03fffeffff80
07fffc7fffc0
0ffff83fffe0
1ffff01ffff0
3fffe00ffff8
7fffc007fffc
ffff8003fffe
7fff0001fffc
3ffe0000fff8
1ffc00007ff0
0ff800003fe0
07f000001fc0
03e000000f80
01c000000700
008000000200
000000000000
ENDCHAR
STARTCHAR /home/kraus/git/open-iconic/png/yen-6x.png
ENCODING 284
DWIDTH 48 0
BBX 48 48 0 0
BITMAP
fc0000000fc0
7e0000001f80
3f0000003f00
1f8000007e00
1f8000007e00
0fc00000fc00
07e00001f800
03f00003f000
03f80007f000
01f80007e000
00fc000fc000
007e001f8000
007f003f8000
003f003f0000
001f807e0000
000fc0fc0000
000fe1fc0000
0007e1f80000
ffffffffffc0
ffffffffffc0
ffffffffffc0
ffffffffffc0
ffffffffffc0
ffffffffffc0
00003f000000
00003f000000
00003f000000
00003f000000
00003f000000
00003f000000
ffffffffffc0
ffffffffffc0
ffffffffffc0
ffffffffffc0
ffffffffffc0
ffffffffffc0
00003f000000
00003f000000
00003f000000
00003f000000
00003f000000
00003f000000
00003f000000
00003f000000
00003f000000
00003f000000
00003f000000
00003f000000
ENDCHAR
STARTCHAR /home/kraus/git/open-iconic/png/zoom-in-6x.png
ENCODING 285
DWIDTH 48 0
BBX 48 48 0 0
BITMAP
0000ff800000
0007fff80000
001ffffe0000
007fffff8000
00ffffffc000
01ffffffe000
03ff807ff000
07fc000ff800
0ff80007fc00
1fe00001fe00
1fc00000fe00
3f8000007f00
3f803f007f00
7f003f003f80
7e003f001f80
7e003f001f80
fe003f001f80
fc003f000fc0
fc0ffffc0fc0
fc0ffffc0fc0
fc0ffffc0fc0
fc0ffffc0fc0
fc0ffffc0fc0
fc0ffffc0fc0
fc003f000fc0
7e003f001f80
7e003f001f80
7e003f001f80
7f003f003f80
3f803f007f00
3f8000007f00
1fc00001ff00
1fe00001ff80
0ff80007ffc0
07fe001fffe0
03ff807ffff0
01fffffffff8
00fffffffffc
007ffffffffe
001fffffffff
0007fff8ffff
00007f807fff
000000003fff
000000001fff
000000000fff
0000000007fe
0000000003fe
0000000001f8
ENDCHAR
STARTCHAR /home/kraus/git/open-iconic/png/zoom-out-6x.png
ENCODING 286
DWIDTH 48 0
BBX 48 48 0 0
BITMAP
0000ff800000
0007fff80000
001ffffe0000
007fffff8000
00ffffffc000
01ffffffe000
03ff807ff000
07fc000ff800
0ff80007fc00
1fe00001fe00
1fc00000fe00
3f8000007f00
3f8000007f00
7f0000003f80
7e0000001f80
7e0000001f80
fe0000001f80
fc0000000fc0
fc0ffffc0fc0
fc0ffffc0fc0
fc0ffffc0fc0
fc0ffffc0fc0
fc0ffffc0fc0
fc0ffffc0fc0
fc0000000fc0
7e0000001f80
7e0000001f80
7e0000001f80
7f0000003f80
3f8000007f00
3f8000007f00
1fc00001ff00
1fe00001ff80
0ff80007ffc0
07fe001fffe0
03ff807ffff0
01fffffffff8
00fffffffffc
007ffffffffe
001fffffffff
0007fff8ffff
00007f807fff
000000003fff
000000001fff
000000000fff
0000000007fe
0000000003fe
0000000001f8
ENDCHAR
ENDFONT
